<svg xmlns="http://www.w3.org/2000/svg" xmlns:xlink="http://www.w3.org/1999/xlink" viewBox="0 0 439.63 527.45"><defs><style>.cls-1{fill:url(#linear-gradient);}.cls-2{fill:url(#linear-gradient-2);}.cls-3{fill:url(#linear-gradient-3);}.cls-4{fill:url(#linear-gradient-4);}.cls-5{fill:url(#linear-gradient-5);}.cls-6{fill:url(#linear-gradient-6);}.cls-7{fill:url(#linear-gradient-7);}.cls-8{fill:url(#linear-gradient-8);}.cls-9{fill:url(#linear-gradient-9);}.cls-10{fill:url(#linear-gradient-10);}.cls-11{fill:url(#linear-gradient-11);}.cls-12{fill:url(#linear-gradient-12);}.cls-13{fill:url(#linear-gradient-13);}.cls-14{fill:#254b8e;}</style><linearGradient id="linear-gradient" y1="133.78" x2="439.63" y2="133.78" gradientUnits="userSpaceOnUse"><stop offset="0" stop-color="#f0f7fc"/><stop offset="1" stop-color="#b5e0d7"/></linearGradient><linearGradient id="linear-gradient-2" x1="-4579.72" y1="-1925.09" x2="-4567.81" y2="-1925.09" gradientTransform="matrix(8, 0, 0, -8, 36873.41, -15151.99)" gradientUnits="userSpaceOnUse"><stop offset="0" stop-color="#02bec4"/><stop offset="1" stop-color="#a9e8dc"/></linearGradient><linearGradient id="linear-gradient-3" x1="-4585.3" y1="-1925.09" x2="-4570.14" y2="-1925.09" gradientTransform="matrix(8, 0, 0, -8, 36873.41, -15151.99)" gradientUnits="userSpaceOnUse"><stop offset="0" stop-color="#88e0d7"/><stop offset="1" stop-color="#f0f7fc"/></linearGradient><linearGradient id="linear-gradient-4" x1="-4595.75" y1="-1912.87" x2="-4577.13" y2="-1912.87" gradientTransform="matrix(8, 0, 0, -8, 36873.41, -15151.99)" gradientUnits="userSpaceOnUse"><stop offset="0.01" stop-color="#29467a"/><stop offset="1" stop-color="#02bec4"/><stop offset="1" stop-color="#a9e8dc"/></linearGradient><linearGradient id="linear-gradient-5" x1="-4595.75" y1="-1937.31" x2="-4577.13" y2="-1937.31" xlink:href="#linear-gradient-4"/><linearGradient id="linear-gradient-6" x1="228.47" y1="248.73" x2="265.71" y2="248.73" gradientTransform="matrix(1, 0, 0, 1, 0, 0)" xlink:href="#linear-gradient-2"/><linearGradient id="linear-gradient-7" x1="279.68" y1="248.73" x2="298.3" y2="248.73" gradientTransform="matrix(1, 0, 0, 1, 0, 0)" xlink:href="#linear-gradient-2"/><linearGradient id="linear-gradient-8" x1="-4594" y1="-1930.33" x2="-4578.87" y2="-1930.33" xlink:href="#linear-gradient-3"/><linearGradient id="linear-gradient-9" x1="-4586.44" y1="-1927.41" x2="-4586.44" y2="-1926.26" gradientTransform="matrix(8, 0, 0, -8, 36873.41, -15151.99)" gradientUnits="userSpaceOnUse"><stop offset="0.01" stop-color="#f76c46"/><stop offset="1" stop-color="#ffd594"/></linearGradient><linearGradient id="linear-gradient-10" x1="-4586.44" y1="-1929.74" x2="-4586.44" y2="-1928.59" xlink:href="#linear-gradient-9"/><linearGradient id="linear-gradient-11" x1="-4586.44" y1="-1935.57" x2="-4586.44" y2="-1930.91" xlink:href="#linear-gradient-9"/><linearGradient id="linear-gradient-12" x1="-4594.01" y1="-1916.93" x2="-4578.87" y2="-1916.93" xlink:href="#linear-gradient-3"/><linearGradient id="linear-gradient-13" x1="-4586.32" y1="-1925.1" x2="-4586.32" y2="-1916.61" xlink:href="#linear-gradient-9"/></defs><title>Rapidly Train Models</title><g id="Layer_2" data-name="Layer 2"><g id="Layer_1-2" data-name="Layer 1"><g id="Cloud_Sharing" data-name="Cloud Sharing"><path class="cls-1" d="M439.63,210.21a57.35,57.35,0,0,1-57.35,57.35H95.57A95.57,95.57,0,0,1,0,172c0-57.35,51.42-99.78,98.92-95.58C153.49-39,324.08-19.16,350.65,105.66a38.22,38.22,0,0,1,31.2,44.15c-.21,1.22-.48,2.44-.81,3.63h1.24a57.36,57.36,0,0,1,57.35,56.77Z"/></g><g id="hourglass"><path class="cls-2" d="M330.9,211.49V286a18.63,18.63,0,0,1-18.63,18.62H241.5A67,67,0,0,0,235.68,286H298.3a14,14,0,0,1,14-14V225.45a14,14,0,0,1-14-14H235.68a67,67,0,0,0,5.82-18.63h70.77A18.63,18.63,0,0,1,330.9,211.49Z"/><path class="cls-3" d="M312.27,225.45V272a14,14,0,0,0-14,14H235.68a69.09,69.09,0,0,0-33.15-33.06c-14.89-7.12-15.73-1.25,0-8.38a69.33,69.33,0,0,0,33.15-33H298.3a14,14,0,0,0,14,14Z"/><path class="cls-4" d="M242.43,164.93h-121a14,14,0,0,1,0-27.94H242.43a14,14,0,0,1,0,27.94Z"/><path class="cls-5" d="M242.43,360.47h-121a14,14,0,0,1,0-27.93H242.43a14,14,0,1,1,0,27.93Z"/><circle class="cls-6" cx="247.09" cy="248.73" r="18.62"/><path class="cls-7" d="M289,258a9.31,9.31,0,1,1,9.31-9.31A9.31,9.31,0,0,1,289,258Z"/><path class="cls-8" d="M241.5,304.6a69.47,69.47,0,0,0-50.28-55.87H172.6a65.32,65.32,0,0,0-18.63,8.2,69.46,69.46,0,0,0-32.59,58.85v16.76h23.28l37.25-37.25,37.25,37.25h23.27a165.09,165.09,0,0,0-.93-27.94ZM181.91,286a4.66,4.66,0,1,1,4.66-4.66A4.66,4.66,0,0,1,181.91,286Zm0-18.62a4.66,4.66,0,1,1,4.66-4.66A4.66,4.66,0,0,1,181.91,267.36Z"/><path class="cls-9" d="M186.57,262.7a4.66,4.66,0,1,1-4.66-4.66A4.66,4.66,0,0,1,186.57,262.7Z"/><path class="cls-10" d="M186.57,281.32a4.66,4.66,0,1,1-4.66-4.65A4.66,4.66,0,0,1,186.57,281.32Z"/><path class="cls-11" d="M219.16,332.54h-74.5l37.25-37.25Z"/><path class="cls-12" d="M242.43,164.93v18.62c-73.79-14-47,31.75-119,14.43-2.61-10.33-2-17.59-2-33Z"/><path class="cls-13" d="M242.43,183.55a69.4,69.4,0,0,1-46.18,63.55c-5.87,2.19-3.45,1.63-23.61,1.63A69.39,69.39,0,0,1,123.34,198C195.36,215.3,168.59,169.58,242.43,183.55Z"/></g><path class="cls-14" d="M64.63,443.46c5.28,0,7.49,2.69,7.49,7.68v2.74c0,3.69-1.29,6-4.18,6.91,3.08.91,4.23,3.41,4.23,7V473a8.45,8.45,0,0,0,.67,4H69.05a8.83,8.83,0,0,1-.62-4.08V467.7c0-3.79-1.78-5-4.9-5H60.89v14.35H57.14v-33.6Zm-1,15.84c3,0,4.76-1,4.76-4.61v-3.21c0-3-1.11-4.61-3.89-4.61H60.89V459.3Z"/><path class="cls-14" d="M79.85,470.29l-1.3,6.77H75.1l6.43-33.6H87l6.44,33.6H89.64l-1.29-6.77Zm.48-3.21h7.49L84,447.68Z"/><path class="cls-14" d="M103.66,443.46c5.28,0,7.53,3.12,7.53,8.21v4c0,5.33-2.49,8.11-7.82,8.11h-3.31v13.25H96.31v-33.6Zm-.29,17c2.78,0,4.13-1.29,4.13-4.51v-4.46c0-3.08-1.11-4.61-3.84-4.61h-3.6v13.58Z"/><path class="cls-14" d="M118,443.46v33.6h-3.75v-33.6Z"/><path class="cls-14" d="M129.72,443.46c5.23,0,7.63,3.17,7.63,8.35v16.95c0,5.13-2.4,8.3-7.63,8.3h-7.87v-33.6Zm-.05,30.19c2.69,0,4-1.68,4-4.75V451.62c0-3.07-1.3-4.75-4-4.75h-4v26.78Z"/><path class="cls-14" d="M140.85,477.06v-33.6h3.75v30.19h9.6v3.41Z"/><path class="cls-14" d="M160,465l-7.11-21.55h3.89L162,460l5.28-16.51h3.56L163.7,465v12.05H160Z"/><path class="cls-14" d="M185.88,477.06V446.87h-6.19v-3.41h16.13v3.41h-6.2v30.19Z"/><path class="cls-14" d="M205.9,443.46c5.28,0,7.48,2.69,7.48,7.68v2.74c0,3.69-1.29,6-4.17,6.91,3.07.91,4.22,3.41,4.22,7V473a8.45,8.45,0,0,0,.67,4h-3.79a8.83,8.83,0,0,1-.62-4.08V467.7c0-3.79-1.78-5-4.9-5h-2.64v14.35h-3.74v-33.6Zm-1,15.84c3,0,4.76-1,4.76-4.61v-3.21c0-3-1.11-4.61-3.89-4.61h-3.65V459.3Z"/><path class="cls-14" d="M221.11,470.29l-1.3,6.77h-3.45l6.43-33.6h5.42l6.44,33.6H230.9l-1.29-6.77Zm.48-3.21h7.49l-3.79-19.4Z"/><path class="cls-14" d="M241.32,443.46v33.6h-3.75v-33.6Z"/><path class="cls-14" d="M248.47,477.06h-3.36v-33.6h4.75l7.78,24.29V443.46H261v33.6h-3.89l-8.59-27.17Z"/><path class="cls-14" d="M284.61,477H281l-5.56-26.73v26.78h-3.27v-33.6h5.23l5.52,26.83,5.33-26.83h5.23v33.6h-3.55V450Z"/><path class="cls-14" d="M297,451.57c0-5.13,2.55-8.45,7.69-8.45s7.72,3.32,7.72,8.45V469c0,5.09-2.54,8.45-7.72,8.45S297,474,297,469Zm3.7,17.57c0,3.07,1.3,4.85,4,4.85s4-1.78,4-4.85V451.38c0-3-1.25-4.85-4-4.85s-4,1.83-4,4.85Z"/><path class="cls-14" d="M323.88,443.46c5.23,0,7.63,3.17,7.63,8.35v16.95c0,5.13-2.4,8.3-7.63,8.3H316v-33.6Zm-.05,30.19c2.69,0,4-1.68,4-4.75V451.62c0-3.07-1.29-4.75-4-4.75h-4v26.78Z"/><path class="cls-14" d="M347,458.34v3.36h-8.21v11.95h10.08v3.41H335v-33.6h13.83v3.41H338.76v11.47Z"/><path class="cls-14" d="M352.29,477.06v-33.6H356v30.19h9.6v3.41Z"/><path class="cls-14" d="M383,451.52v.92h-3.55v-1.11c0-3-1.15-4.8-3.84-4.8s-3.84,1.78-3.84,4.75c0,7.54,11.28,8.26,11.28,17.72,0,5.09-2.45,8.4-7.58,8.4s-7.54-3.31-7.54-8.4v-1.92h3.5v2.11c0,3,1.25,4.8,3.94,4.8s3.94-1.78,3.94-4.8c0-7.49-11.24-8.21-11.24-17.67,0-5.18,2.4-8.4,7.44-8.4S383,446.44,383,451.52Z"/><path class="cls-14" d="M33,527.06H27.82l-4.61-33.6h3.65l3.93,28.61,3.75-28.56h3.69l3.7,28.61,3.79-28.66H49l-4.56,33.6h-5l-3.21-22.8Z"/><path class="cls-14" d="M55.75,493.46v33.6H52v-33.6Z"/><path class="cls-14" d="M64.49,527.06V496.87H58.3v-3.41H74.43v3.41h-6.2v30.19Z"/><path class="cls-14" d="M80.76,511.94v15.12H77v-33.6h3.74v15.12H89V493.46h3.74v33.6H89V511.94Z"/><path class="cls-14" d="M96.31,501.57c0-5.13,2.55-8.45,7.68-8.45s7.73,3.32,7.73,8.45V519c0,5.09-2.54,8.45-7.73,8.45S96.31,524,96.31,519Zm3.7,17.57c0,3.07,1.29,4.85,4,4.85s4-1.78,4-4.85V501.38c0-3-1.25-4.85-4-4.85s-4,1.83-4,4.85Z"/><path class="cls-14" d="M118.82,519.14c0,3,1.2,4.85,3.94,4.85s3.89-1.82,3.89-4.85V493.46h3.5V519c0,5.09-2.35,8.5-7.53,8.5s-7.49-3.41-7.49-8.5V493.46h3.69Z"/><path class="cls-14" d="M138.74,527.06V496.87h-6.19v-3.41h16.13v3.41h-6.19v30.19Z"/><path class="cls-14" d="M162.45,511.94v15.12h-3.74v-33.6h3.74v15.12h8.26V493.46h3.75v33.6h-3.75V511.94Z"/><path class="cls-14" d="M182,493.46v33.6h-3.75v-33.6Z"/><path class="cls-14" d="M200.71,501.57v2.88h-3.55v-3.07c0-3-1.2-4.85-3.94-4.85s-3.93,1.83-3.93,4.85v17.76c0,3,1.24,4.85,3.93,4.85s3.94-1.82,3.94-4.85v-6.72H193.7v-3.36h7V519c0,5.09-2.4,8.45-7.58,8.45s-7.54-3.36-7.54-8.45V501.57c0-5.09,2.4-8.45,7.54-8.45S200.71,496.48,200.71,501.57Z"/><path class="cls-14" d="M208,511.94v15.12h-3.74v-33.6H208v15.12h8.26V493.46H220v33.6h-3.75V511.94Z"/><path class="cls-14" d="M246.12,501.57v3h-3.56v-3.22c0-3-1.2-4.85-3.93-4.85s-3.94,1.83-3.94,4.85v17.76c0,3,1.25,4.85,3.94,4.85s3.93-1.82,3.93-4.85v-4.37h3.56V519c0,5.09-2.4,8.45-7.59,8.45S231,524,231,519V501.57c0-5.09,2.4-8.45,7.53-8.45S246.12,496.48,246.12,501.57Z"/><path class="cls-14" d="M249.52,527.06v-33.6h3.75v30.19h9.6v3.41Z"/><path class="cls-14" d="M265.41,501.57c0-5.13,2.55-8.45,7.68-8.45s7.73,3.32,7.73,8.45V519c0,5.09-2.54,8.45-7.73,8.45s-7.68-3.36-7.68-8.45Zm3.7,17.57c0,3.07,1.29,4.85,4,4.85s4-1.78,4-4.85V501.38c0-3-1.25-4.85-4-4.85s-4,1.83-4,4.85Z"/><path class="cls-14" d="M287.92,519.14c0,3,1.2,4.85,3.94,4.85s3.89-1.82,3.89-4.85V493.46h3.5V519c0,5.09-2.35,8.5-7.53,8.5s-7.49-3.41-7.49-8.5V493.46h3.69Z"/><path class="cls-14" d="M310.82,493.46c5.23,0,7.63,3.17,7.63,8.35v16.95c0,5.13-2.4,8.3-7.63,8.3H303v-33.6Zm-.05,30.19c2.69,0,4-1.68,4-4.75V501.62c0-3.07-1.3-4.75-4-4.75h-4v26.78Z"/><path class="cls-14" d="M344.23,501.57v3h-3.55v-3.22c0-3-1.2-4.85-3.94-4.85s-3.94,1.83-3.94,4.85v17.76c0,3,1.25,4.85,3.94,4.85s3.94-1.82,3.94-4.85v-4.37h3.55V519c0,5.09-2.4,8.45-7.59,8.45s-7.53-3.36-7.53-8.45V501.57c0-5.09,2.4-8.45,7.53-8.45S344.23,496.48,344.23,501.57Z"/><path class="cls-14" d="M347.35,501.57c0-5.13,2.54-8.45,7.68-8.45s7.72,3.32,7.72,8.45V519c0,5.09-2.54,8.45-7.72,8.45s-7.68-3.36-7.68-8.45ZM351,519.14c0,3.07,1.3,4.85,4,4.85s4-1.78,4-4.85V501.38c0-3-1.25-4.85-4-4.85s-4,1.83-4,4.85Z"/><path class="cls-14" d="M380.85,501.52v.92H377.3v-1.11c0-3-1.15-4.8-3.84-4.8s-3.84,1.78-3.84,4.75c0,7.54,11.28,8.26,11.28,17.72,0,5.09-2.45,8.4-7.59,8.4s-7.53-3.31-7.53-8.4v-1.92h3.5v2.11c0,3,1.25,4.8,3.94,4.8s3.93-1.78,3.93-4.8c0-7.49-11.23-8.21-11.23-17.67,0-5.18,2.4-8.4,7.44-8.4S380.85,496.44,380.85,501.52Z"/><path class="cls-14" d="M389.06,527.06V496.87h-6.2v-3.41H399v3.41H392.8v30.19Z"/><path class="cls-14" d="M416.13,501.52v.92h-3.55v-1.11c0-3-1.15-4.8-3.84-4.8s-3.84,1.78-3.84,4.75c0,7.54,11.28,8.26,11.28,17.72,0,5.09-2.45,8.4-7.59,8.4s-7.53-3.31-7.53-8.4v-1.92h3.5v2.11c0,3,1.25,4.8,3.94,4.8s3.93-1.78,3.93-4.8c0-7.49-11.23-8.21-11.23-17.67,0-5.18,2.4-8.4,7.44-8.4S416.13,496.44,416.13,501.52Z"/></g></g></svg>