<svg xmlns="http://www.w3.org/2000/svg" xmlns:xlink="http://www.w3.org/1999/xlink" viewBox="0 0 1380.37 340.14"><defs><style>.cls-1{fill:none;}.cls-2{fill:#fff;}.cls-3{clip-path:url(#clip-path);}.cls-4{fill:url(#linear-gradient);}.cls-5{fill:url(#linear-gradient-2);}.cls-6{fill:url(#linear-gradient-3);}.cls-7{fill:url(#linear-gradient-4);}.cls-8{fill:url(#linear-gradient-5);}.cls-9{fill:url(#linear-gradient-6);}.cls-10{fill:url(#linear-gradient-7);}.cls-11{fill:url(#linear-gradient-8);}.cls-12{fill:url(#linear-gradient-9);}.cls-13{fill:url(#linear-gradient-10);}.cls-14{fill:url(#linear-gradient-11);}.cls-15{fill:url(#linear-gradient-12);}.cls-16{fill:url(#linear-gradient-13);}.cls-17{fill:url(#linear-gradient-14);}.cls-18{fill:url(#linear-gradient-15);}.cls-19{fill:url(#linear-gradient-16);}.cls-20{fill:url(#linear-gradient-17);}.cls-21{fill:url(#linear-gradient-18);}.cls-22{fill:url(#linear-gradient-19);}.cls-23{fill:url(#linear-gradient-20);}.cls-24{fill:url(#linear-gradient-21);}.cls-25{fill:url(#linear-gradient-22);}.cls-26{fill:#f6f6f6;}.cls-27{fill:url(#linear-gradient-23);}</style><clipPath id="clip-path" transform="translate(63.78 12.68)"><path class="cls-1" d="M0,96.18S18.31,35.76,125.94,25.34c35.2-3.41,84.71-25,84.71-25-3-.78,11.78-1.42,66.89,12.59,49.2,12.5,70.82,40,96.3,62.48-7.76,5.5-67.22,49.62-160.9,39.17-68.34-7.61-79.76,72.76-79.76,72.76S68.43,88.44,0,96.18Z"/></clipPath><linearGradient id="linear-gradient" x1="300.04" y1="17.63" x2="-18.34" y2="55.76" gradientUnits="userSpaceOnUse"><stop offset="0.2" stop-color="#0c2c5b"/><stop offset="0.42" stop-color="#02bec4"/><stop offset="0.71" stop-color="#cafffc"/></linearGradient><linearGradient id="linear-gradient-2" x1="-25.32" y1="-260.28" x2="-467.86" y2="-294.67" gradientTransform="matrix(1.15, -0.04, 0.04, 1.13, 463.54, 469.4)" gradientUnits="userSpaceOnUse"><stop offset="0" stop-color="#023859"/><stop offset="0.19" stop-color="#025373"/><stop offset="0.62" stop-color="#60bfbf"/><stop offset="0.9" stop-color="#bad9d9"/></linearGradient><linearGradient id="linear-gradient-3" x1="478.14" y1="137.1" x2="17.21" y2="101.28" gradientTransform="matrix(1, 0.01, -0.01, 1, -36.41, 5.27)" xlink:href="#linear-gradient-2"/><linearGradient id="linear-gradient-4" x1="603.87" y1="291.95" x2="142.94" y2="256.13" gradientTransform="matrix(1, 0.01, -0.01, 1, -36.41, 5.27)" xlink:href="#linear-gradient-2"/><linearGradient id="linear-gradient-5" x1="423.89" y1="123.02" x2="-0.42" y2="90.05" gradientTransform="matrix(1, 0.01, -0.01, 1, -36.41, 5.27)" xlink:href="#linear-gradient-2"/><linearGradient id="linear-gradient-6" x1="478.9" y1="127.3" x2="17.97" y2="91.48" gradientTransform="matrix(1, 0.01, -0.01, 1, -36.41, 5.27)" xlink:href="#linear-gradient-2"/><linearGradient id="linear-gradient-7" x1="-88.78" y1="151.48" x2="-632.54" y2="109.22" gradientTransform="matrix(1.23, -0.04, 0.04, 1, 581.49, -76.52)" gradientUnits="userSpaceOnUse"><stop offset="0.25" stop-color="#254b8e"/><stop offset="0.56" stop-color="#02bec4"/><stop offset="0.76" stop-color="#cafffc"/></linearGradient><linearGradient id="linear-gradient-8" x1="540.77" y1="169.6" x2="-29.02" y2="125.32" gradientTransform="matrix(1, 0.01, -0.01, 1, -36.41, 5.27)" xlink:href="#linear-gradient-2"/><linearGradient id="linear-gradient-9" x1="377.32" y1="165.45" x2="-57.24" y2="131.68" gradientTransform="matrix(1, 0.01, -0.01, 1, -36.41, 5.27)" xlink:href="#linear-gradient-2"/><linearGradient id="linear-gradient-10" x1="537.02" y1="177.86" x2="-28.58" y2="133.91" gradientTransform="matrix(1, 0.01, -0.01, 1, -36.41, 5.27)" xlink:href="#linear-gradient-2"/><linearGradient id="linear-gradient-11" x1="574.58" y1="180.78" x2="8.98" y2="136.82" gradientTransform="matrix(1, 0.01, -0.01, 1, -36.41, 5.27)" xlink:href="#linear-gradient-2"/><linearGradient id="linear-gradient-12" x1="-124.06" y1="215.6" x2="-737.59" y2="167.92" gradientTransform="matrix(1.21, -0.04, 0.04, 1, 646.07, -78.89)" gradientUnits="userSpaceOnUse"><stop offset="0.12" stop-color="#254b8e"/><stop offset="0.5" stop-color="#02bec4"/><stop offset="0.84" stop-color="#a9e8dc"/></linearGradient><linearGradient id="linear-gradient-13" x1="-54.48" y1="268.1" x2="-668.01" y2="220.42" gradientTransform="matrix(1.25, -0.05, 0.04, 1, 668.28, -79.71)" gradientUnits="userSpaceOnUse"><stop offset="0.39" stop-color="#254b8e"/><stop offset="0.58" stop-color="#02bec4"/><stop offset="0.76" stop-color="#cafffc"/></linearGradient><linearGradient id="linear-gradient-14" x1="551.65" y1="251.84" x2="127.34" y2="218.87" gradientTransform="matrix(1, 0.01, -0.01, 1, -36.41, 5.27)" xlink:href="#linear-gradient-2"/><linearGradient id="linear-gradient-15" x1="662.28" y1="260.44" x2="201.35" y2="224.62" gradientTransform="matrix(1, 0.01, -0.01, 1, -36.41, 5.27)" xlink:href="#linear-gradient-2"/><linearGradient id="linear-gradient-16" x1="438.73" y1="50.76" x2="-99.99" y2="176.53" gradientTransform="matrix(1, 0.01, -0.01, 1, -36.41, 5.27)" gradientUnits="userSpaceOnUse"><stop offset="0.16" stop-color="#0c2c5b"/><stop offset="0.37" stop-color="#02bec4"/><stop offset="0.71" stop-color="#cafffc"/></linearGradient><linearGradient id="linear-gradient-17" x1="378.95" y1="169.12" x2="-58.81" y2="135.1" gradientTransform="matrix(1, 0.01, -0.01, 1, -36.41, 5.27)" xlink:href="#linear-gradient-2"/><linearGradient id="linear-gradient-18" x1="539.82" y1="181.62" x2="-29.95" y2="137.34" gradientTransform="matrix(1, 0.01, -0.01, 1, -36.41, 5.27)" xlink:href="#linear-gradient-2"/><linearGradient id="linear-gradient-19" x1="577.66" y1="184.56" x2="7.89" y2="140.28" gradientTransform="matrix(1, 0.01, -0.01, 1, -36.41, 5.27)" xlink:href="#linear-gradient-2"/><linearGradient id="linear-gradient-20" x1="608.58" y1="186.97" x2="38.81" y2="142.69" gradientTransform="matrix(1, 0.01, -0.01, 1, -36.41, 5.27)" xlink:href="#linear-gradient-2"/><linearGradient id="linear-gradient-21" x1="384.68" y1="167.37" x2="-62.32" y2="132.63" gradientTransform="matrix(1, 0.01, -0.01, 1, -36.41, 5.27)" xlink:href="#linear-gradient-2"/><linearGradient id="linear-gradient-22" x1="479.51" y1="174.74" x2="-56.06" y2="133.12" gradientTransform="matrix(1, 0.01, -0.01, 1, -36.41, 5.27)" xlink:href="#linear-gradient-2"/><linearGradient id="linear-gradient-23" x1="1250.65" y1="184.3" x2="1323.56" y2="184.3" gradientUnits="userSpaceOnUse"><stop offset="0" stop-color="#e65863"/><stop offset="1" stop-color="#e30613"/></linearGradient></defs><title>equadraturesLockupHorizontalWhiteWithLove</title><g id="Layer_2" data-name="Layer 2"><g id="Layer_1-2" data-name="Layer 1"><path class="cls-2" d="M450.19,84.1c0,15.74,7.51,24.78,21.77,24.78,8.56,0,13.52-2.48,19.37-8.16l7.36,6.26c-7.51,7.29-14.56,11.08-27,11.08-19.67,0-32.28-11.37-32.28-36.73,0-23.33,11.56-36.74,30.33-36.74,19.22,0,30.33,13.27,30.33,34.84V84.1ZM487,64.27a19.21,19.21,0,0,0-34.53,0c-1.81,3.79-2,6.12-2.26,12h39.19C488.93,70.39,488.78,68.06,487,64.27Z" transform="translate(63.78 12.68)"/><path class="cls-2" d="M567,149.26V108.73c-6.15,7.44-12.61,9.33-20.87,9.33-7.65,0-14.11-2.47-18-6.26-7.35-7.29-9-19-9-30.47s1.65-23.33,9-30.47c3.91-3.79,10.37-6.27,18-6.27,8.41,0,14.87,1.89,21,9.33V45.46h10.67v103.8ZM548.55,53.92c-16.22,0-18.62,13.41-18.62,27.41s2.4,27.4,18.62,27.4c16.06,0,18.46-13.41,18.46-27.4S564.61,53.92,548.55,53.92Z" transform="translate(63.78 12.68)"/><path class="cls-2" d="M651.55,117.19v-8a27.44,27.44,0,0,1-20.87,8.89c-8,0-14.56-2.33-19.07-6.7-5.25-5-7.51-11.81-7.51-20.12V45.46h10.81V89.64c0,12.68,6.91,19.09,18,19.09s18.47-6.56,18.47-19.09V45.46h10.81v71.73Z" transform="translate(63.78 12.68)"/><path class="cls-2" d="M731.14,117.19v-6.85c-5.86,5.68-11.42,7.72-21.33,7.72-10.21,0-15.76-1.75-20.87-6.56-3.75-3.49-5.55-8.89-5.55-14.57,0-12.69,9.16-20.71,25.67-20.71h22.08V69.37c0-10.35-5.26-15.74-18.92-15.74-9.31,0-14.12,2.33-18.62,8.31l-7.36-6.56c6.46-8.31,14-10.79,26.13-10.79,20,0,29.58,8.46,29.58,23.91v48.69Zm0-33.09H710.56q-16.66,0-16.66,12.68c0,8.31,5.25,12.25,17.12,12.25,6.15,0,11.56-.59,16.36-4.82,2.55-2.33,3.76-6.41,3.76-12.39Z" transform="translate(63.78 12.68)"/><path class="cls-2" d="M812.37,117.19v-8.6c-6.16,7.58-12.62,9.47-21,9.47-7.66,0-14.12-2.47-18-6.26-7.36-7.29-9-19-9-30.47s1.65-23.33,9-30.47c3.9-3.79,10.36-6.27,18-6.27,8.26,0,14.71,1.75,20.87,9.18V13.39H823v103.8ZM793.75,53.92c-16.22,0-18.62,13.41-18.62,27.41s2.4,27.4,18.62,27.4,18.47-13.41,18.47-27.4S809.82,53.92,793.75,53.92Z" transform="translate(63.78 12.68)"/><path class="cls-2" d="M891.35,59.17c-4.05-3.94-7.06-5.25-12.76-5.25-10.81,0-17.72,8.31-17.72,19.24v44H850.06V45.46h10.81v8.75c4-6,12.16-9.62,20.72-9.62,7.06,0,12.46,1.6,17.72,6.71Z" transform="translate(63.78 12.68)"/><path class="cls-2" d="M953.67,117.19v-6.85c-5.86,5.68-11.42,7.72-21.33,7.72-10.21,0-15.76-1.75-20.87-6.56-3.75-3.49-5.55-8.89-5.55-14.57,0-12.69,9.16-20.71,25.67-20.71h22.08V69.37c0-10.35-5.26-15.74-18.92-15.74-9.31,0-14.12,2.33-18.62,8.31l-7.36-6.56c6.46-8.31,14-10.79,26.13-10.79,20,0,29.58,8.46,29.58,23.91v48.69Zm0-33.09H933.09q-16.67,0-16.66,12.68c0,8.31,5.25,12.25,17.12,12.25,6.15,0,11.56-.59,16.36-4.82,2.55-2.33,3.76-6.41,3.76-12.39Z" transform="translate(63.78 12.68)"/><path class="cls-2" d="M1011.47,117.19c-12.61,0-18.91-8.6-18.91-19.24V53.48h-9.31v-8h9.31v-22h10.81v22h15.76v8h-15.76V97.65c0,6.56,3.15,10.5,10.06,10.5h5.7v9Z" transform="translate(63.78 12.68)"/><path class="cls-2" d="M1087.3,117.19v-8a27.44,27.44,0,0,1-20.87,8.89c-8,0-14.56-2.33-19.07-6.7-5.25-5-7.51-11.81-7.51-20.12V45.46h10.81V89.64c0,12.68,6.91,19.09,18,19.09s18.47-6.56,18.47-19.09V45.46H1098v71.73Z" transform="translate(63.78 12.68)"/><path class="cls-2" d="M1166.28,59.17c-4-3.94-7-5.25-12.76-5.25-10.81,0-17.72,8.31-17.72,19.24v44H1125V45.46h10.81v8.75c4.06-6,12.17-9.62,20.72-9.62,7.06,0,12.47,1.6,17.72,6.71Z" transform="translate(63.78 12.68)"/><path class="cls-2" d="M1190.46,84.1c0,15.74,7.51,24.78,21.77,24.78,8.56,0,13.52-2.48,19.37-8.16L1239,107c-7.51,7.29-14.57,11.08-27,11.08-19.67,0-32.28-11.37-32.28-36.73,0-23.33,11.56-36.74,30.33-36.74,19.22,0,30.33,13.27,30.33,34.84V84.1Zm36.79-19.83a19.22,19.22,0,0,0-34.54,0c-1.8,3.79-2,6.12-2.25,12h39.19C1229.2,70.39,1229.05,68.06,1227.25,64.27Z" transform="translate(63.78 12.68)"/><path class="cls-2" d="M1286.56,118.06c-12.61,0-22.37-2.77-30.33-10.35l7.21-7c5.7,5.83,13.81,8.31,23,8.31,12.31,0,19.67-4.23,19.67-12.69,0-6.41-3.6-9.77-12.31-10.49l-12.16-1c-14.42-1.17-22.08-7.29-22.08-19.25,0-13.12,11.26-21,27.18-21,10.66,0,19.82,2.48,26.58,7.73l-7.06,6.85c-5.26-3.94-12-5.69-19.67-5.69-10.81,0-16.52,4.38-16.52,11.81,0,6.42,4.06,9.62,13.22,10.5l11.56,1c12.91,1.16,21.77,5.83,21.77,19.39C1316.59,110.05,1304.58,118.06,1286.56,118.06Z" transform="translate(63.78 12.68)"/><g class="cls-3"><path class="cls-4" d="M225.4,41.29c52-5.51,65.42-48.19,65.42-48.19s1.47,0,4.13,0a466.81,466.81,0,0,0-68.86-5.81s-53.36,28.46-97,27.43c-149.23-3.5-157.93,72-154.14,76.06A110.83,110.83,0,0,1,7.17,91.87C29,68.68,127.13,51.69,225.4,41.29Z" transform="translate(63.78 12.68)"/><path class="cls-5" d="M189.55,164c53.58-5.53,119.73-32.74,119.73-32.74s7.25,0,19.06.45A255.94,255.94,0,0,0,279.6,116.1c-6.72-1.47-13.48-2.71-20.1-3.74-2.52,0-3.91,0-3.91,0,.86.38,5.32,43.49-78.82,22C86,111.11,7.33,181.65-13.39,202.84c15.25,2.55,30.05,7.93,43.83,14.77C57.06,196.57,105,172.73,189.55,164Z" transform="translate(63.78 12.68)"/><path class="cls-6" d="M67,118.84c-11-8.63-23.09-16.07-35.77-20.72-10.51,12.18-13.67,21.71-13.67,21.71,14.19-1.23,28.12,1.81,41.36,7.51A107.11,107.11,0,0,1,67,118.84Z" transform="translate(63.78 12.68)"/><path class="cls-7" d="M289.57,280.87l.09-.52-1-.94Z" transform="translate(63.78 12.68)"/><path class="cls-8" d="M70.71,115.51a187.42,187.42,0,0,0-30-27.05,108.9,108.9,0,0,0-9.48,9.66C43.93,102.77,56,110.21,67,118.84,68.19,117.74,69.41,116.63,70.71,115.51Z" transform="translate(63.78 12.68)"/><path class="cls-9" d="M70.71,115.51a187.42,187.42,0,0,0-30-27.05,108.9,108.9,0,0,0-9.48,9.66C43.93,102.77,56,110.21,67,118.84,68.19,117.74,69.41,116.63,70.71,115.51Z" transform="translate(63.78 12.68)"/><path class="cls-10" d="M328.3,37.22s14.46-.08,36.52,1.26C345.64,25.16,326.1,11.64,300.21.07c-44.27-1-140.24-4.94-90-4.35,0,0,40.89,55-70.79,27.59-100.88-24.71-170.68,57-203.2,83C-43.47,116.58-25,129.4-9.47,141.78c33.06-25.47,91.21-53.59,191.48-64C247.49,70.91,328.3,37.22,328.3,37.22Z" transform="translate(63.78 12.68)"/><path class="cls-11" d="M77.32,154.3c-1.14-1.38-2.65-3.15-4.5-5.25A273.9,273.9,0,0,0,43,127.15a121.23,121.23,0,0,0-10,8.47,204.5,204.5,0,0,1,41.67,20.51C75.52,155.52,76.41,154.91,77.32,154.3Z" transform="translate(63.78 12.68)"/><path class="cls-12" d="M72.82,149.05c1.85,2.1,3.36,3.87,4.5,5.25l.91-.6Q75.59,151.38,72.82,149.05Z" transform="translate(63.78 12.68)"/><path class="cls-13" d="M72.82,149.05c1.85,2.1,3.36,3.87,4.5,5.25l.91-.6Q75.59,151.38,72.82,149.05Z" transform="translate(63.78 12.68)"/><path class="cls-14" d="M72.82,149.05c1.85,2.1,3.36,3.87,4.5,5.25l.91-.6Q75.59,151.38,72.82,149.05Z" transform="translate(63.78 12.68)"/><path class="cls-15" d="M147.12,49.41C28,20,10.48,88.41,4.88,104.66c29.67-17.12,36.64,180.9,116.5,173.52C178,273,329.44,190.89,329.44,190.89s86-119,133.12-113.27c14.57-5.86-50.33-30.37-47.14-32-6.39-3.53-12.66-7.13-19-10.73-4.74-1-9.63-2-14.71-2.86-31.19-5.57-52.27-41.34-74.88-42.32,4.33,2.46-21.63,5.47-17.25,7.89C365.1,36.63,259.85,77.22,147.12,49.41Z" transform="translate(63.78 12.68)"/><path class="cls-16" d="M242.36,98.45c-122.83-29.25-141,39.16-146.77,55.42,30.61-17.16,37.57,180.86,120,173.39,58.37-5.29,214.69-87.53,214.69-87.53S519.11,120.57,567.67,126.3c15-5.88-51.89-30.31-48.59-31.92-6.59-3.52-13.05-7.11-19.58-10.71q-7.33-1.48-15.18-2.84c-32.16-5.53-53.86-41.28-77.18-42.24,4.47,2.46-22.31,5.5-17.79,7.91C467.19,85.42,358.59,126.13,242.36,98.45Z" transform="translate(63.78 12.68)"/><path class="cls-17" d="M259.25,246.3s.25-1.5.86-4.05q-3.9-3.34-8-6.53C256.72,242.2,259.25,246.3,259.25,246.3Z" transform="translate(63.78 12.68)"/><path class="cls-18" d="M259.25,246.3s.25-1.5.86-4.05q-3.9-3.34-8-6.53C256.72,242.2,259.25,246.3,259.25,246.3Z" transform="translate(63.78 12.68)"/><path class="cls-19" d="M223.78,109.08c136,28.61,142.15-33.25,177.45-47.33C385.7,55.4,383.54,70.91,376.6,50.4c-1.46-4.29,71.91-66.55-.46-50.4C456.22,49.25,337,142.88,144.93,61.06,51.08,21.09,5.27,83.27-.32,99.6c-16.8,44.84,32.52,41.13,36.18,33.76,16.29,9.89,1.35,73.37,106.75,71C92.85,115.82,117.4,86.71,223.78,109.08Z" transform="translate(63.78 12.68)"/><path class="cls-20" d="M80.37,155.59l-2.14-1.89-.91.6c1.69,2,2.58,3.18,2.58,3.18S80,156.8,80.37,155.59Z" transform="translate(63.78 12.68)"/><path class="cls-21" d="M80.37,155.59l-2.14-1.89-.91.6c1.69,2,2.58,3.18,2.58,3.18S80,156.8,80.37,155.59Z" transform="translate(63.78 12.68)"/><path class="cls-22" d="M80.37,155.59l-2.14-1.89-.91.6c1.69,2,2.58,3.18,2.58,3.18S80,156.8,80.37,155.59Z" transform="translate(63.78 12.68)"/><path class="cls-23" d="M80.37,155.59l-2.14-1.89-.91.6c1.69,2,2.58,3.18,2.58,3.18S80,156.8,80.37,155.59Z" transform="translate(63.78 12.68)"/><path class="cls-24" d="M80.37,155.59c.27-1,.67-2.39,1.22-4.05q-1.73,1.08-3.36,2.16Z" transform="translate(63.78 12.68)"/><path class="cls-25" d="M80.37,155.59c.27-1,.67-2.39,1.22-4.05q-1.73,1.08-3.36,2.16Z" transform="translate(63.78 12.68)"/></g><path class="cls-26" d="M1041.3,202.8V187.45c0-3.93-2.23-5.62-5.07-5.62a5,5,0,0,0-5.21,5.37v15.6H1026V187.45c0-3.93-2.23-5.62-5.07-5.62s-5.21,1.74-5.21,5.62V202.8h-5.07V177.61h5v2.53a9.14,9.14,0,0,1,6.71-2.83,8.07,8.07,0,0,1,7.15,3.68,9.59,9.59,0,0,1,7.9-3.68,9.08,9.08,0,0,1,6.35,2.29,9.35,9.35,0,0,1,2.69,7.1v16.1Z" transform="translate(63.78 12.68)"/><path class="cls-26" d="M1067.73,202.8v-2.29c-1.84,1.84-3.58,2.58-6.7,2.58s-5.22-.74-6.76-2.28a7.74,7.74,0,0,1-2-5.42c0-4.22,2.93-7.25,8.75-7.25h6.6v-1.79c0-3.22-1.54-4.71-5.51-4.71-2.68,0-4.07.69-5.52,2.48l-3.27-3.13c2.33-2.78,4.76-3.68,9-3.68,7,0,10.38,3,10.38,8.65V202.8Zm-.1-11.13h-5.81c-3.08,0-4.62,1.29-4.62,3.63s1.44,3.57,4.77,3.57a6.05,6.05,0,0,0,4.57-1.44c.79-.74,1.09-1.93,1.09-3.72Z" transform="translate(63.78 12.68)"/><path class="cls-26" d="M1095,202.8v-2.69a7.75,7.75,0,0,1-6.66,3,8.72,8.72,0,0,1-6.16-2.23c-2.43-2.48-2.83-6.51-2.83-10.68s.4-8.15,2.83-10.63a8.6,8.6,0,0,1,6.11-2.24,7.82,7.82,0,0,1,6.61,2.83V167.43h5.06V202.8Zm-5.32-21c-4.62,0-5.27,3.88-5.27,8.35s.65,8.39,5.27,8.39,5.22-3.92,5.22-8.39S1094.21,181.83,1089.64,181.83Z" transform="translate(63.78 12.68)"/><path class="cls-26" d="M1111.7,191.67c0,4.37,2.23,7.05,6.41,7.05a7.52,7.52,0,0,0,6.11-2.58l3.22,3a11.81,11.81,0,0,1-9.43,3.92c-6.31,0-11.33-3.32-11.33-12.91,0-8.2,4.22-12.87,10.68-12.87,6.76,0,10.68,4.87,10.68,12.22v2.14Zm10.63-7a5.52,5.52,0,0,0-10,0,8,8,0,0,0-.64,3.43H1123A8.74,8.74,0,0,0,1122.33,184.71Z" transform="translate(63.78 12.68)"/><path class="cls-26" d="M1171.31,202.8H1167l-5.91-17.59-5.86,17.59h-4.38l-7.79-25.19h5.36l4.87,17.74,5.86-17.74h3.92l5.82,17.74,4.86-17.74h5.42Z" transform="translate(63.78 12.68)"/><path class="cls-26" d="M1183.43,172.64v-5.36h5.37v5.36Zm.15,30.16V177.61h5.07V202.8Z" transform="translate(63.78 12.68)"/><path class="cls-26" d="M1204.2,202.8c-4.72,0-6.91-3.38-6.91-7v-14.3h-2.88v-3.88h2.88v-7.2h5.07v7.2h4.87v3.88h-4.87v14c0,1.84.9,2.94,2.78,2.94h2.09v4.32Z" transform="translate(63.78 12.68)"/><path class="cls-26" d="M1229,202.8V187.45c0-3.93-2.24-5.62-5.07-5.62s-5.22,1.74-5.22,5.62V202.8h-5.06V167.43h5.06v12.71a9.33,9.33,0,0,1,12.82-.54c1.94,1.89,2.53,4.27,2.53,7.1v16.1Z" transform="translate(63.78 12.68)"/><path class="cls-27" d="M1305.66,166.33a15.38,15.38,0,0,0-18.42-4.78,18.51,18.51,0,0,0-7.4,6,18.34,18.34,0,0,0-7.4-6,15.38,15.38,0,0,0-18.42,4.78,17,17,0,0,0-3.37,10.43c0,5.67,3.38,11.89,10,18.5a96.71,96.71,0,0,0,15.2,11.93,7.31,7.31,0,0,0,7.89,0A97.18,97.18,0,0,0,1299,195.26c6.67-6.6,10-12.83,10-18.5A16.94,16.94,0,0,0,1305.66,166.33Z" transform="translate(63.78 12.68)"/></g></g></svg>