<svg xmlns="http://www.w3.org/2000/svg" xmlns:xlink="http://www.w3.org/1999/xlink" viewBox="0 0 825.61 381.48"><defs><style>.cls-1{fill:none;}.cls-2{fill:#02bec4;}.cls-3{clip-path:url(#clip-path);}.cls-4{fill:url(#linear-gradient);}.cls-5{fill:url(#linear-gradient-2);}.cls-6{fill:url(#linear-gradient-3);}.cls-7{fill:url(#linear-gradient-4);}.cls-8{fill:url(#linear-gradient-5);}.cls-9{fill:url(#linear-gradient-6);}.cls-10{fill:url(#linear-gradient-7);}.cls-11{fill:url(#linear-gradient-8);}.cls-12{fill:url(#linear-gradient-9);}.cls-13{fill:url(#linear-gradient-10);}.cls-14{fill:url(#linear-gradient-11);}.cls-15{fill:url(#linear-gradient-12);}.cls-16{fill:url(#linear-gradient-13);}.cls-17{fill:url(#linear-gradient-14);}.cls-18{fill:url(#linear-gradient-15);}.cls-19{fill:url(#linear-gradient-16);}.cls-20{fill:url(#linear-gradient-17);}.cls-21{fill:url(#linear-gradient-18);}.cls-22{fill:url(#linear-gradient-19);}.cls-23{fill:url(#linear-gradient-20);}.cls-24{fill:url(#linear-gradient-21);}.cls-25{fill:url(#linear-gradient-22);}</style><clipPath id="clip-path" transform="translate(0 14.08)"><path class="cls-1" d="M193,106.77s20.32-67.08,139.81-78.64c39.07-3.78,94-27.75,94-27.75-3.34-.87,13.07-1.57,74.24,14C555.72,28.23,579.72,58.71,608,83.7c-8.61,6.11-74.62,55.09-178.6,43.49C353.53,118.74,340.86,208,340.86,208S269,98.17,193,106.77Z"/></clipPath><linearGradient id="linear-gradient" x1="526.08" y1="19.57" x2="172.66" y2="61.89" gradientUnits="userSpaceOnUse"><stop offset="0.2" stop-color="#0c2c5b"/><stop offset="0.42" stop-color="#02bec4"/><stop offset="0.71" stop-color="#cafffc"/></linearGradient><linearGradient id="linear-gradient-2" x1="39.75" y1="287.03" x2="-451.5" y2="248.85" gradientTransform="matrix(1.15, -0.04, 0.04, 1.13, 605.89, -127.47)" gradientUnits="userSpaceOnUse"><stop offset="0" stop-color="#023859"/><stop offset="0.19" stop-color="#025373"/><stop offset="0.62" stop-color="#60bfbf"/><stop offset="0.9" stop-color="#bad9d9"/></linearGradient><linearGradient id="linear-gradient-3" x1="668.72" y1="123.64" x2="157.06" y2="83.88" gradientTransform="matrix(1, 0.01, -0.01, 1, 14.29, 32.59)" xlink:href="#linear-gradient-2"/><linearGradient id="linear-gradient-4" x1="808.29" y1="295.53" x2="296.63" y2="255.77" gradientTransform="matrix(1, 0.01, -0.01, 1, 14.29, 32.59)" xlink:href="#linear-gradient-2"/><linearGradient id="linear-gradient-5" x1="608.5" y1="108.01" x2="137.5" y2="71.41" gradientTransform="matrix(1, 0.01, -0.01, 1, 14.29, 32.59)" xlink:href="#linear-gradient-2"/><linearGradient id="linear-gradient-6" x1="669.56" y1="112.76" x2="157.91" y2="73" gradientTransform="matrix(1, 0.01, -0.01, 1, 14.29, 32.59)" xlink:href="#linear-gradient-2"/><linearGradient id="linear-gradient-7" x1="-154.54" y1="247.42" x2="-758.15" y2="200.51" gradientTransform="matrix(1.23, -0.04, 0.04, 1, 904.2, -166.68)" gradientUnits="userSpaceOnUse"><stop offset="0.25" stop-color="#254b8e"/><stop offset="0.56" stop-color="#02bec4"/><stop offset="0.76" stop-color="#cafffc"/></linearGradient><linearGradient id="linear-gradient-8" x1="738.25" y1="159.72" x2="105.75" y2="110.56" gradientTransform="matrix(1, 0.01, -0.01, 1, 14.29, 32.59)" xlink:href="#linear-gradient-2"/><linearGradient id="linear-gradient-9" x1="556.81" y1="155.11" x2="74.42" y2="117.62" gradientTransform="matrix(1, 0.01, -0.01, 1, 14.29, 32.59)" xlink:href="#linear-gradient-2"/><linearGradient id="linear-gradient-10" x1="734.08" y1="168.88" x2="106.23" y2="120.09" gradientTransform="matrix(1, 0.01, -0.01, 1, 14.29, 32.59)" xlink:href="#linear-gradient-2"/><linearGradient id="linear-gradient-11" x1="775.77" y1="172.12" x2="147.93" y2="123.33" gradientTransform="matrix(1, 0.01, -0.01, 1, 14.29, 32.59)" xlink:href="#linear-gradient-2"/><linearGradient id="linear-gradient-12" x1="-164.08" y1="318.6" x2="-845.13" y2="265.68" gradientTransform="matrix(1.21, -0.04, 0.04, 1, 939.22, -167.96)" gradientUnits="userSpaceOnUse"><stop offset="0.12" stop-color="#254b8e"/><stop offset="0.5" stop-color="#02bec4"/><stop offset="0.84" stop-color="#a9e8dc"/></linearGradient><linearGradient id="linear-gradient-13" x1="-147.04" y1="376.88" x2="-828.09" y2="323.95" gradientTransform="matrix(1.25, -0.05, 0.04, 1, 1040.06, -171.66)" gradientUnits="userSpaceOnUse"><stop offset="0.39" stop-color="#254b8e"/><stop offset="0.58" stop-color="#02bec4"/><stop offset="0.76" stop-color="#cafffc"/></linearGradient><linearGradient id="linear-gradient-14" x1="750.31" y1="251.01" x2="279.31" y2="214.4" gradientTransform="matrix(1, 0.01, -0.01, 1, 14.29, 32.59)" xlink:href="#linear-gradient-2"/><linearGradient id="linear-gradient-15" x1="873.13" y1="260.55" x2="361.47" y2="220.79" gradientTransform="matrix(1, 0.01, -0.01, 1, 14.29, 32.59)" xlink:href="#linear-gradient-2"/><linearGradient id="linear-gradient-16" x1="624.97" y1="27.8" x2="26.97" y2="167.4" gradientTransform="matrix(1, 0.01, -0.01, 1, 14.29, 32.59)" gradientUnits="userSpaceOnUse"><stop offset="0.16" stop-color="#0c2c5b"/><stop offset="0.37" stop-color="#02bec4"/><stop offset="0.71" stop-color="#cafffc"/></linearGradient><linearGradient id="linear-gradient-17" x1="558.61" y1="159.18" x2="72.68" y2="121.42" gradientTransform="matrix(1, 0.01, -0.01, 1, 14.29, 32.59)" xlink:href="#linear-gradient-2"/><linearGradient id="linear-gradient-18" x1="737.19" y1="173.06" x2="104.72" y2="123.91" gradientTransform="matrix(1, 0.01, -0.01, 1, 14.29, 32.59)" xlink:href="#linear-gradient-2"/><linearGradient id="linear-gradient-19" x1="779.19" y1="176.32" x2="146.72" y2="127.17" gradientTransform="matrix(1, 0.01, -0.01, 1, 14.29, 32.59)" xlink:href="#linear-gradient-2"/><linearGradient id="linear-gradient-20" x1="813.52" y1="178.99" x2="181.04" y2="129.84" gradientTransform="matrix(1, 0.01, -0.01, 1, 14.29, 32.59)" xlink:href="#linear-gradient-2"/><linearGradient id="linear-gradient-21" x1="564.97" y1="157.24" x2="68.78" y2="118.68" gradientTransform="matrix(1, 0.01, -0.01, 1, 14.29, 32.59)" xlink:href="#linear-gradient-2"/><linearGradient id="linear-gradient-22" x1="670.24" y1="165.42" x2="75.73" y2="119.22" gradientTransform="matrix(1, 0.01, -0.01, 1, 14.29, 32.59)" xlink:href="#linear-gradient-2"/></defs><title>equadraturesLockupVerticalMain</title><g id="Layer_2" data-name="Layer 2"><g id="Layer_1-2" data-name="Layer 1"><path class="cls-2" d="M9.87,307.9c0,14.38,6.86,22.63,19.88,22.63,7.82,0,12.34-2.26,17.69-7.45l6.72,5.72c-6.86,6.66-13.3,10.12-24.68,10.12-18,0-29.48-10.39-29.48-33.55,0-21.3,10.56-33.55,27.7-33.55,17.55,0,27.69,12.12,27.69,31.82v4.26Zm33.6-18.11a17,17,0,0,0-15.77-9.85,16.94,16.94,0,0,0-15.77,9.85c-1.65,3.47-1.78,5.59-2.06,10.92H45.66C45.25,295.38,45.11,293.26,43.47,289.79Z" transform="translate(0 14.08)"/><path class="cls-2" d="M116.55,367.4v-37c-5.62,6.79-11.52,8.52-19.06,8.52-7,0-12.89-2.27-16.45-5.73-6.72-6.65-8.23-17.3-8.23-27.82s1.51-21.3,8.23-27.82c3.56-3.46,9.46-5.73,16.45-5.73,7.68,0,13.57,1.73,19.2,8.52v-7.72h9.73V367.4ZM99.68,280.34c-14.8,0-17,12.25-17,25s2.2,25,17,25,16.87-12.25,16.87-25S114.36,280.34,99.68,280.34Z" transform="translate(0 14.08)"/><path class="cls-2" d="M193.74,338.12V330.8a25,25,0,0,1-19.05,8.12c-7.27,0-13.3-2.13-17.42-6.13-4.8-4.52-6.85-10.78-6.85-18.37v-41.8h9.87V313c0,11.58,6.31,17.44,16.45,17.44s16.87-6,16.87-17.44V272.62h9.87v65.5Z" transform="translate(0 14.08)"/><path class="cls-2" d="M266.42,338.12v-6.26c-5.35,5.19-10.42,7.06-19.47,7.06-9.33,0-14.4-1.6-19.06-6-3.43-3.2-5.07-8.12-5.07-13.32,0-11.58,8.36-18.9,23.44-18.9h20.16v-6.26c0-9.45-4.8-14.37-17.28-14.37-8.5,0-12.89,2.13-17,7.58l-6.72-6c5.9-7.58,12.75-9.85,23.86-9.85,18.23,0,27,7.72,27,21.83v44.47Zm0-30.22H247.63q-15.21,0-15.22,11.58c0,7.59,4.8,11.18,15.63,11.18,5.63,0,10.56-.53,15-4.39,2.33-2.13,3.43-5.86,3.43-11.32Z" transform="translate(0 14.08)"/><path class="cls-2" d="M340.59,338.12v-7.86c-5.62,6.93-11.51,8.66-19.19,8.66-7,0-12.89-2.27-16.45-5.73-6.72-6.65-8.23-17.3-8.23-27.82s1.51-21.3,8.23-27.82c3.56-3.46,9.46-5.73,16.45-5.73,7.54,0,13.44,1.6,19.06,8.39V243.33h9.87v94.79Zm-17-57.78c-14.81,0-17,12.25-17,25s2.19,25,17,25,16.87-12.25,16.87-25S338.26,280.34,323.59,280.34Z" transform="translate(0 14.08)"/><path class="cls-2" d="M412.72,285.13c-3.7-3.59-6.45-4.79-11.66-4.79-9.87,0-16.18,7.59-16.18,17.57v40.21H375v-65.5h9.87v8c3.71-5.46,11.11-8.79,18.93-8.79,6.44,0,11.38,1.47,16.18,6.13Z" transform="translate(0 14.08)"/><path class="cls-2" d="M469.62,338.12v-6.26c-5.35,5.19-10.42,7.06-19.47,7.06-9.32,0-14.4-1.6-19.06-6-3.43-3.2-5.07-8.12-5.07-13.32,0-11.58,8.36-18.9,23.45-18.9h20.15v-6.26c0-9.45-4.8-14.37-17.28-14.37-8.5,0-12.88,2.13-17,7.58l-6.72-6c5.9-7.58,12.76-9.85,23.86-9.85,18.24,0,27,7.72,27,21.83v44.47Zm0-30.22H450.84q-15.22,0-15.22,11.58c0,7.59,4.8,11.18,15.63,11.18,5.62,0,10.56-.53,14.94-4.39,2.33-2.13,3.43-5.86,3.43-11.32Z" transform="translate(0 14.08)"/><path class="cls-2" d="M522.41,338.12c-11.52,0-17.28-7.86-17.28-17.57V279.94h-8.5v-7.32h8.5v-20.1H515v20.1H529.4v7.32H515v40.34c0,6,2.88,9.58,9.18,9.58h5.21v8.26Z" transform="translate(0 14.08)"/><path class="cls-2" d="M591.65,338.12V330.8a25.09,25.09,0,0,1-19.06,8.12c-7.26,0-13.3-2.13-17.41-6.13-4.8-4.52-6.86-10.78-6.86-18.37v-41.8h9.88V313c0,11.58,6.3,17.44,16.45,17.44s16.86-6,16.86-17.44V272.62h9.88v65.5Z" transform="translate(0 14.08)"/><path class="cls-2" d="M663.77,285.13c-3.7-3.59-6.44-4.79-11.65-4.79-9.87,0-16.18,7.59-16.18,17.57v40.21h-9.87v-65.5h9.87v8c3.7-5.46,11.11-8.79,18.92-8.79,6.45,0,11.38,1.47,16.18,6.13Z" transform="translate(0 14.08)"/><path class="cls-2" d="M685.85,307.9c0,14.38,6.86,22.63,19.88,22.63,7.82,0,12.34-2.26,17.69-7.45l6.72,5.72c-6.86,6.66-13.3,10.12-24.68,10.12-18,0-29.48-10.39-29.48-33.55,0-21.3,10.56-33.55,27.69-33.55,17.56,0,27.7,12.12,27.7,31.82v4.26Zm33.59-18.11a17.54,17.54,0,0,0-31.53,0c-1.65,3.47-1.79,5.59-2.06,10.92h35.79C721.23,295.38,721.09,293.26,719.44,289.79Z" transform="translate(0 14.08)"/><path class="cls-2" d="M773.6,338.92c-11.51,0-20.42-2.53-27.69-9.46l6.58-6.38c5.21,5.32,12.61,7.58,21,7.58,11.24,0,18-3.86,18-11.58,0-5.86-3.29-8.92-11.24-9.58l-11.11-.94c-13.16-1.06-20.15-6.65-20.15-17.57,0-12,10.28-19.17,24.81-19.17,9.74,0,18.1,2.27,24.27,7.06l-6.44,6.25c-4.8-3.59-11-5.19-18-5.19-9.87,0-15.08,4-15.08,10.79,0,5.85,3.7,8.78,12.07,9.58l10.56.93C792.94,302.31,801,306.57,801,319,801,331.59,790.06,338.92,773.6,338.92Z" transform="translate(0 14.08)"/><g class="cls-3"><path class="cls-4" d="M443.23,45.83C501,39.72,515.85-7.66,515.85-7.66s1.63,0,4.59,0A517.76,517.76,0,0,0,444-14.07S384.76,17.52,336.3,16.38C170.64,12.49,161,96.31,165.2,100.81A122.82,122.82,0,0,1,201,102C225.21,76.23,334.15,57.37,443.23,45.83Z" transform="translate(0 14.08)"/><path class="cls-5" d="M403.44,182.05c59.47-6.14,132.89-36.35,132.89-36.35s8,0,21.16.5a284.42,284.42,0,0,0-54.1-17.32c-7.46-1.64-15-3-22.3-4.15-2.81,0-4.35,0-4.35,0,1,.43,5.9,48.28-87.5,24.39-100.71-25.76-188.08,52.55-211.08,76.08,16.93,2.82,33.36,8.8,48.65,16.38C256.36,218.2,309.6,191.74,403.44,182.05Z" transform="translate(0 14.08)"/><path class="cls-6" d="M267.42,131.92c-12.24-9.59-25.64-17.84-39.71-23-11.66,13.52-15.17,24.1-15.17,24.1,15.75-1.37,31.22,2,45.91,8.33A117.8,117.8,0,0,1,267.42,131.92Z" transform="translate(0 14.08)"/><path class="cls-7" d="M514.46,311.78s0-.2.1-.57l-1.13-1Z" transform="translate(0 14.08)"/><path class="cls-8" d="M271.51,128.22c-9.42-10.36-20.73-21.18-33.28-30a121.65,121.65,0,0,0-10.52,10.72c14.07,5.16,27.47,13.41,39.71,23C268.71,130.7,270.08,129.46,271.51,128.22Z" transform="translate(0 14.08)"/><path class="cls-9" d="M271.51,128.22c-9.42-10.36-20.73-21.18-33.28-30a121.65,121.65,0,0,0-10.52,10.72c14.07,5.16,27.47,13.41,39.71,23C268.71,130.7,270.08,129.46,271.51,128.22Z" transform="translate(0 14.08)"/><path class="cls-10" d="M557.45,41.31s16.06-.08,40.55,1.41c-21.29-14.8-43-29.8-71.73-42.64C477.13-1,370.6-5.4,426.37-4.75c0,0,45.38,61-78.58,30.63-112-27.44-189.47,63.25-225.57,92.18,22.54,11.35,43.09,25.58,60.29,39.32,36.7-28.27,101.25-59.49,212.56-71.09C467.75,78.72,557.45,41.31,557.45,41.31Z" transform="translate(0 14.08)"/><path class="cls-11" d="M278.86,171.28c-1.27-1.53-2.95-3.5-5-5.82a304.11,304.11,0,0,0-33.08-24.31,132,132,0,0,0-11.13,9.39,228.22,228.22,0,0,1,46.25,22.77C276.86,172.64,277.84,172,278.86,171.28Z" transform="translate(0 14.08)"/><path class="cls-12" d="M273.86,165.46c2.05,2.32,3.73,4.29,5,5.82l1-.67Q276.94,168,273.86,165.46Z" transform="translate(0 14.08)"/><path class="cls-13" d="M273.86,165.46c2.05,2.32,3.73,4.29,5,5.82l1-.67Q276.94,168,273.86,165.46Z" transform="translate(0 14.08)"/><path class="cls-14" d="M273.86,165.46c2.05,2.32,3.73,4.29,5,5.82l1-.67Q276.94,168,273.86,165.46Z" transform="translate(0 14.08)"/><path class="cls-15" d="M356.34,54.85c-132.23-32.63-151.68,43.29-157.9,61.33,32.93-19,40.67,200.8,129.32,192.61,62.81-5.8,231-96.89,231-96.89S654.22,79.74,706.49,86.16c16.17-6.5-55.87-33.71-52.33-35.49-7.1-3.92-14-7.91-21.09-11.91-5.26-1.11-10.69-2.17-16.33-3.18-34.63-6.17-58-45.88-83.12-47,4.81,2.74-24,6.07-19.15,8.76C598.3,40.66,481.48,85.72,356.34,54.85Z" transform="translate(0 14.08)"/><path class="cls-16" d="M462.05,109.28C325.71,76.81,305.56,152.75,299.13,170.8c34-19,41.71,200.77,133.15,192.47,64.8-5.87,238.32-97.16,238.32-97.16S769.26,133.84,823.16,140.2c16.68-6.53-57.59-33.65-53.93-35.43-7.32-3.91-14.49-7.9-21.74-11.89q-8.13-1.66-16.84-3.16C694.94,83.59,670.86,43.91,645,42.84c5,2.73-24.77,6.1-19.75,8.78C711.63,94.82,591.08,140,462.05,109.28Z" transform="translate(0 14.08)"/><path class="cls-17" d="M480.8,273.41s.28-1.66,1-4.5c-2.89-2.47-5.85-4.9-8.88-7.24C478,268.86,480.8,273.41,480.8,273.41Z" transform="translate(0 14.08)"/><path class="cls-18" d="M480.8,273.41s.28-1.66,1-4.5c-2.89-2.47-5.85-4.9-8.88-7.24C478,268.86,480.8,273.41,480.8,273.41Z" transform="translate(0 14.08)"/><path class="cls-19" d="M441.43,121.09c150.93,31.75,157.79-36.91,197-52.55-17.24-7-19.63,10.18-27.34-12.59-1.62-4.77,79.82-73.87-.51-55.95,88.89,54.67-43.44,158.6-256.66,67.78-104.18-44.37-155,24.65-161.23,42.78C174,160.33,228.77,156.22,232.83,148c18.09,11,1.49,81.44,118.5,78.83C296.09,128.57,323.35,96.25,441.43,121.09Z" transform="translate(0 14.08)"/><path class="cls-20" d="M282.23,172.71l-2.37-2.1-1,.67c1.87,2.25,2.85,3.53,2.85,3.53S281.87,174.06,282.23,172.71Z" transform="translate(0 14.08)"/><path class="cls-21" d="M282.23,172.71l-2.37-2.1-1,.67c1.87,2.25,2.85,3.53,2.85,3.53S281.87,174.06,282.23,172.71Z" transform="translate(0 14.08)"/><path class="cls-22" d="M282.23,172.71l-2.37-2.1-1,.67c1.87,2.25,2.85,3.53,2.85,3.53S281.87,174.06,282.23,172.71Z" transform="translate(0 14.08)"/><path class="cls-23" d="M282.23,172.71l-2.37-2.1-1,.67c1.87,2.25,2.85,3.53,2.85,3.53S281.87,174.06,282.23,172.71Z" transform="translate(0 14.08)"/><path class="cls-24" d="M282.23,172.71c.3-1.12.75-2.65,1.36-4.49q-1.92,1.18-3.73,2.39Z" transform="translate(0 14.08)"/><path class="cls-25" d="M282.23,172.71c.3-1.12.75-2.65,1.36-4.49q-1.92,1.18-3.73,2.39Z" transform="translate(0 14.08)"/></g></g></g></svg>