<svg xmlns="http://www.w3.org/2000/svg" xmlns:xlink="http://www.w3.org/1999/xlink" viewBox="0 0 823.59 431.24"><defs><style>.cls-1{fill:none;}.cls-2{clip-path:url(#clip-path);}.cls-3{fill:url(#linear-gradient);}.cls-4{fill:url(#linear-gradient-2);}.cls-5{fill:url(#linear-gradient-3);}.cls-6{fill:url(#linear-gradient-4);}.cls-7{fill:url(#linear-gradient-5);}.cls-8{fill:url(#linear-gradient-6);}.cls-9{fill:url(#linear-gradient-7);}.cls-10{fill:url(#linear-gradient-8);}.cls-11{fill:url(#linear-gradient-9);}.cls-12{fill:url(#linear-gradient-10);}.cls-13{fill:url(#linear-gradient-11);}.cls-14{fill:url(#linear-gradient-12);}.cls-15{fill:url(#linear-gradient-13);}.cls-16{fill:url(#linear-gradient-14);}.cls-17{fill:url(#linear-gradient-15);}.cls-18{fill:url(#linear-gradient-16);}.cls-19{fill:url(#linear-gradient-17);}.cls-20{fill:url(#linear-gradient-18);}.cls-21{fill:url(#linear-gradient-19);}.cls-22{fill:url(#linear-gradient-20);}.cls-23{fill:url(#linear-gradient-21);}.cls-24{fill:url(#linear-gradient-22);}.cls-25{fill:#02bec4;}.cls-26{fill:#254b8e;}.cls-27{fill:url(#linear-gradient-23);}</style><clipPath id="clip-path" transform="translate(0 14.08)"><path class="cls-1" d="M191,106.77s20.32-67.08,139.81-78.64c39.07-3.78,94-27.75,94-27.75-3.34-.87,13.07-1.57,74.25,14C553.7,28.23,577.7,58.71,606,83.7c-8.62,6.11-74.62,55.09-178.61,43.49C351.51,118.74,338.84,208,338.84,208S267,98.17,191,106.77Z"/></clipPath><linearGradient id="linear-gradient" x1="524.06" y1="19.57" x2="170.65" y2="61.89" gradientUnits="userSpaceOnUse"><stop offset="0.2" stop-color="#0c2c5b"/><stop offset="0.42" stop-color="#02bec4"/><stop offset="0.71" stop-color="#cafffc"/></linearGradient><linearGradient id="linear-gradient-2" x1="-82.41" y1="147.86" x2="-573.66" y2="109.68" gradientTransform="matrix(1.15, -0.04, 0.04, 1.13, 749.76, 24.79)" gradientUnits="userSpaceOnUse"><stop offset="0" stop-color="#023859"/><stop offset="0.19" stop-color="#025373"/><stop offset="0.62" stop-color="#60bfbf"/><stop offset="0.9" stop-color="#bad9d9"/></linearGradient><linearGradient id="linear-gradient-3" x1="684.34" y1="115.75" x2="172.68" y2="75.99" gradientTransform="matrix(1, 0.01, -0.01, 1, -3.46, 40.28)" xlink:href="#linear-gradient-2"/><linearGradient id="linear-gradient-4" x1="823.91" y1="287.64" x2="312.26" y2="247.88" gradientTransform="matrix(1, 0.01, -0.01, 1, -3.46, 40.28)" xlink:href="#linear-gradient-2"/><linearGradient id="linear-gradient-5" x1="624.12" y1="100.12" x2="153.12" y2="63.52" gradientTransform="matrix(1, 0.01, -0.01, 1, -3.46, 40.28)" xlink:href="#linear-gradient-2"/><linearGradient id="linear-gradient-6" x1="685.18" y1="104.87" x2="173.53" y2="65.11" gradientTransform="matrix(1, 0.01, -0.01, 1, -3.46, 40.28)" xlink:href="#linear-gradient-2"/><linearGradient id="linear-gradient-7" x1="-307.01" y1="268.3" x2="-910.62" y2="221.39" gradientTransform="matrix(1.23, -0.04, 0.04, 1, 1088.22, -194.39)" gradientUnits="userSpaceOnUse"><stop offset="0.25" stop-color="#254b8e"/><stop offset="0.56" stop-color="#02bec4"/><stop offset="0.76" stop-color="#cafffc"/></linearGradient><linearGradient id="linear-gradient-8" x1="753.87" y1="151.83" x2="121.37" y2="102.67" gradientTransform="matrix(1, 0.01, -0.01, 1, -3.46, 40.28)" xlink:href="#linear-gradient-2"/><linearGradient id="linear-gradient-9" x1="572.43" y1="147.22" x2="90.04" y2="109.73" gradientTransform="matrix(1, 0.01, -0.01, 1, -3.46, 40.28)" xlink:href="#linear-gradient-2"/><linearGradient id="linear-gradient-10" x1="749.7" y1="161" x2="121.85" y2="112.2" gradientTransform="matrix(1, 0.01, -0.01, 1, -3.46, 40.28)" xlink:href="#linear-gradient-2"/><linearGradient id="linear-gradient-11" x1="791.4" y1="164.24" x2="163.55" y2="115.44" gradientTransform="matrix(1, 0.01, -0.01, 1, -3.46, 40.28)" xlink:href="#linear-gradient-2"/><linearGradient id="linear-gradient-12" x1="-311.3" y1="339.48" x2="-992.35" y2="286.56" gradientTransform="matrix(1.21, -0.04, 0.04, 1, 1114.69, -195.36)" gradientUnits="userSpaceOnUse"><stop offset="0.12" stop-color="#254b8e"/><stop offset="0.5" stop-color="#02bec4"/><stop offset="0.84" stop-color="#a9e8dc"/></linearGradient><linearGradient id="linear-gradient-13" x1="-307.96" y1="397.75" x2="-989.01" y2="344.83" gradientTransform="matrix(1.25, -0.05, 0.04, 1, 1238.26, -199.89)" gradientUnits="userSpaceOnUse"><stop offset="0.39" stop-color="#254b8e"/><stop offset="0.58" stop-color="#02bec4"/><stop offset="0.76" stop-color="#cafffc"/></linearGradient><linearGradient id="linear-gradient-14" x1="765.94" y1="243.12" x2="294.93" y2="206.51" gradientTransform="matrix(1, 0.01, -0.01, 1, -3.46, 40.28)" xlink:href="#linear-gradient-2"/><linearGradient id="linear-gradient-15" x1="888.75" y1="252.66" x2="377.09" y2="212.9" gradientTransform="matrix(1, 0.01, -0.01, 1, -3.46, 40.28)" xlink:href="#linear-gradient-2"/><linearGradient id="linear-gradient-16" x1="640.59" y1="19.91" x2="42.59" y2="159.52" gradientTransform="matrix(1, 0.01, -0.01, 1, -3.46, 40.28)" gradientUnits="userSpaceOnUse"><stop offset="0.16" stop-color="#0c2c5b"/><stop offset="0.37" stop-color="#02bec4"/><stop offset="0.71" stop-color="#cafffc"/></linearGradient><linearGradient id="linear-gradient-17" x1="574.24" y1="151.29" x2="88.3" y2="113.53" gradientTransform="matrix(1, 0.01, -0.01, 1, -3.46, 40.28)" xlink:href="#linear-gradient-2"/><linearGradient id="linear-gradient-18" x1="752.81" y1="165.17" x2="120.34" y2="116.02" gradientTransform="matrix(1, 0.01, -0.01, 1, -3.46, 40.28)" xlink:href="#linear-gradient-2"/><linearGradient id="linear-gradient-19" x1="794.82" y1="168.44" x2="162.34" y2="119.28" gradientTransform="matrix(1, 0.01, -0.01, 1, -3.46, 40.28)" xlink:href="#linear-gradient-2"/><linearGradient id="linear-gradient-20" x1="829.14" y1="171.1" x2="196.66" y2="121.95" gradientTransform="matrix(1, 0.01, -0.01, 1, -3.46, 40.28)" xlink:href="#linear-gradient-2"/><linearGradient id="linear-gradient-21" x1="580.6" y1="149.35" x2="84.4" y2="110.79" gradientTransform="matrix(1, 0.01, -0.01, 1, -3.46, 40.28)" xlink:href="#linear-gradient-2"/><linearGradient id="linear-gradient-22" x1="685.86" y1="157.53" x2="91.35" y2="111.33" gradientTransform="matrix(1, 0.01, -0.01, 1, -3.46, 40.28)" xlink:href="#linear-gradient-2"/><linearGradient id="linear-gradient-23" x1="739.54" y1="395.47" x2="805.33" y2="395.47" gradientUnits="userSpaceOnUse"><stop offset="0" stop-color="#e65863"/><stop offset="1" stop-color="#e30613"/></linearGradient></defs><title>equadraturesLockupVerticalWithLove</title><g id="Layer_2" data-name="Layer 2"><g id="Layer_1-2" data-name="Layer 1"><g class="cls-2"><path class="cls-3" d="M441.21,45.83C499,39.72,513.84-7.66,513.84-7.66s1.62,0,4.58,0A517.76,517.76,0,0,0,442-14.07S382.74,17.52,334.28,16.38C168.63,12.49,159,96.31,163.18,100.81A122.82,122.82,0,0,1,199,102C223.19,76.23,332.13,57.37,441.21,45.83Z" transform="translate(0 14.08)"/><path class="cls-4" d="M401.42,182.05c59.48-6.14,132.9-36.35,132.9-36.35s8,0,21.16.5a284.65,284.65,0,0,0-54.1-17.32c-7.46-1.64-15-3-22.31-4.15-2.8,0-4.34,0-4.34,0,.95.43,5.89,48.28-87.5,24.39-100.71-25.76-188.09,52.55-211.09,76.08,16.93,2.82,33.36,8.8,48.66,16.38C254.35,218.2,307.58,191.74,401.42,182.05Z" transform="translate(0 14.08)"/><path class="cls-5" d="M265.4,131.92c-12.24-9.59-25.64-17.84-39.71-23C214,122.44,210.52,133,210.52,133c15.75-1.37,31.22,2,45.92,8.33A117.58,117.58,0,0,1,265.4,131.92Z" transform="translate(0 14.08)"/><path class="cls-6" d="M512.44,311.78s0-.2.1-.57l-1.13-1C512.09,311.21,512.44,311.78,512.44,311.78Z" transform="translate(0 14.08)"/><path class="cls-7" d="M269.49,128.22c-9.42-10.36-20.73-21.18-33.27-30a120.46,120.46,0,0,0-10.53,10.72c14.07,5.16,27.47,13.41,39.71,23C266.7,130.7,268.06,129.46,269.49,128.22Z" transform="translate(0 14.08)"/><path class="cls-8" d="M269.49,128.22c-9.42-10.36-20.73-21.18-33.27-30a120.46,120.46,0,0,0-10.53,10.72c14.07,5.16,27.47,13.41,39.71,23C266.7,130.7,268.06,129.46,269.49,128.22Z" transform="translate(0 14.08)"/><path class="cls-9" d="M555.44,41.31s16-.08,40.54,1.41c-21.29-14.8-43-29.8-71.73-42.64C475.11-1,368.58-5.4,424.35-4.75c0,0,45.39,61-78.58,30.63C233.79-1.56,156.3,89.13,120.2,118.06c22.55,11.35,43.09,25.58,60.29,39.32,36.71-28.27,101.25-59.49,212.56-71.09C465.73,78.72,555.44,41.31,555.44,41.31Z" transform="translate(0 14.08)"/><path class="cls-10" d="M276.84,171.28c-1.27-1.53-2.95-3.5-5-5.82a303.14,303.14,0,0,0-33.08-24.31,133.57,133.57,0,0,0-11.13,9.39,227.7,227.7,0,0,1,46.25,22.77C274.84,172.64,275.83,172,276.84,171.28Z" transform="translate(0 14.08)"/><path class="cls-11" d="M271.84,165.46c2.05,2.32,3.73,4.29,5,5.82l1-.67Q274.91,168,271.84,165.46Z" transform="translate(0 14.08)"/><path class="cls-12" d="M271.84,165.46c2.05,2.32,3.73,4.29,5,5.82l1-.67Q274.91,168,271.84,165.46Z" transform="translate(0 14.08)"/><path class="cls-13" d="M271.84,165.46c2.05,2.32,3.73,4.29,5,5.82l1-.67Q274.91,168,271.84,165.46Z" transform="translate(0 14.08)"/><path class="cls-14" d="M354.32,54.85c-132.23-32.63-151.68,43.29-157.9,61.33,32.93-19,40.67,200.8,129.32,192.61,62.81-5.8,231-96.89,231-96.89S652.21,79.74,704.48,86.16c16.16-6.5-55.88-33.71-52.34-35.49-7.09-3.92-14-7.91-21.09-11.91-5.26-1.11-10.69-2.17-16.33-3.18-34.62-6.17-58-45.88-83.12-47,4.81,2.74-24,6.07-19.14,8.76C596.28,40.66,479.46,85.72,354.32,54.85Z" transform="translate(0 14.08)"/><path class="cls-15" d="M460,109.28c-136.35-32.47-156.5,43.47-162.93,61.52,34-19,41.71,200.77,133.16,192.47,64.79-5.87,238.31-97.16,238.31-97.16S767.24,133.84,821.14,140.2c16.69-6.53-57.59-33.65-53.93-35.43-7.32-3.91-14.48-7.9-21.74-11.89q-8.13-1.66-16.84-3.16c-35.7-6.13-59.79-45.81-85.68-46.88,5,2.73-24.77,6.1-19.75,8.78C709.61,94.82,589.06,140,460,109.28Z" transform="translate(0 14.08)"/><path class="cls-16" d="M478.79,273.41s.28-1.66.95-4.5c-2.89-2.47-5.85-4.9-8.88-7.24C476,268.86,478.79,273.41,478.79,273.41Z" transform="translate(0 14.08)"/><path class="cls-17" d="M478.79,273.41s.28-1.66.95-4.5c-2.89-2.47-5.85-4.9-8.88-7.24C476,268.86,478.79,273.41,478.79,273.41Z" transform="translate(0 14.08)"/><path class="cls-18" d="M439.41,121.09c150.94,31.75,157.8-36.91,197-52.55-17.25-7-19.64,10.18-27.35-12.59-1.62-4.77,79.82-73.87-.51-55.95,88.9,54.67-43.44,158.6-256.66,67.78-104.18-44.37-155,24.65-161.23,42.78C172,160.33,226.75,156.22,230.81,148c18.09,11,1.49,81.44,118.5,78.83C294.07,128.57,321.33,96.25,439.41,121.09Z" transform="translate(0 14.08)"/><path class="cls-19" d="M280.21,172.71l-2.37-2.1-1,.67c1.87,2.25,2.86,3.53,2.86,3.53S279.85,174.06,280.21,172.71Z" transform="translate(0 14.08)"/><path class="cls-20" d="M280.21,172.71l-2.37-2.1-1,.67c1.87,2.25,2.86,3.53,2.86,3.53S279.85,174.06,280.21,172.71Z" transform="translate(0 14.08)"/><path class="cls-21" d="M280.21,172.71l-2.37-2.1-1,.67c1.87,2.25,2.86,3.53,2.86,3.53S279.85,174.06,280.21,172.71Z" transform="translate(0 14.08)"/><path class="cls-22" d="M280.21,172.71l-2.37-2.1-1,.67c1.87,2.25,2.86,3.53,2.86,3.53S279.85,174.06,280.21,172.71Z" transform="translate(0 14.08)"/><path class="cls-23" d="M280.21,172.71c.31-1.12.75-2.65,1.36-4.49q-1.92,1.18-3.73,2.39Z" transform="translate(0 14.08)"/><path class="cls-24" d="M280.21,172.71c.31-1.12.75-2.65,1.36-4.49q-1.92,1.18-3.73,2.39Z" transform="translate(0 14.08)"/></g><path class="cls-25" d="M9.76,305c0,14.21,6.77,22.36,19.64,22.36,7.73,0,12.2-2.23,17.48-7.36l6.64,5.65c-6.77,6.58-13.14,10-24.39,10C11.38,335.69,0,325.43,0,302.54c0-21.05,10.43-33.15,27.37-33.15,17.35,0,27.37,12,27.37,31.44V305ZM43,287.15a16.74,16.74,0,0,0-15.58-9.74,16.74,16.74,0,0,0-15.58,9.74c-1.63,3.42-1.76,5.52-2,10.78H45.12C44.72,292.67,44.58,290.57,43,287.15Z" transform="translate(0 14.08)"/><path class="cls-25" d="M115.18,363.85V327.27c-5.56,6.71-11.38,8.42-18.83,8.42-6.92,0-12.74-2.23-16.27-5.65-6.63-6.58-8.13-17.11-8.13-27.5s1.5-21.05,8.13-27.5c3.53-3.42,9.35-5.65,16.27-5.65,7.58,0,13.41,1.71,19,8.42v-7.63h9.62v93.67Zm-16.67-86c-14.63,0-16.8,12.1-16.8,24.73s2.17,24.73,16.8,24.73,16.67-12.1,16.67-24.73S113,277.81,98.51,277.81Z" transform="translate(0 14.08)"/><path class="cls-25" d="M191.47,334.9v-7.23a24.77,24.77,0,0,1-18.84,8c-7.18,0-13.14-2.1-17.2-6.05-4.75-4.47-6.78-10.66-6.78-18.15V270.18h9.76V310c0,11.44,6.23,17.23,16.26,17.23s16.66-5.92,16.66-17.23V270.18h9.76V334.9Z" transform="translate(0 14.08)"/><path class="cls-25" d="M263.29,334.9v-6.18c-5.29,5.13-10.3,7-19.24,7-9.22,0-14.23-1.58-18.84-5.92-3.39-3.15-5-8-5-13.15,0-11.45,8.26-18.69,23.17-18.69h19.92v-6.18c0-9.34-4.75-14.21-17.08-14.21-8.4,0-12.73,2.11-16.8,7.5l-6.64-5.92c5.83-7.5,12.6-9.73,23.58-9.73,18,0,26.69,7.63,26.69,21.57V334.9Zm0-29.86H244.72q-15,0-15,11.45c0,7.49,4.75,11.05,15.45,11.05,5.56,0,10.43-.53,14.77-4.35,2.3-2.1,3.39-5.78,3.39-11.18Z" transform="translate(0 14.08)"/><path class="cls-25" d="M336.59,334.9v-7.76c-5.55,6.84-11.38,8.55-19,8.55-6.91,0-12.73-2.23-16.26-5.65-6.64-6.58-8.13-17.11-8.13-27.5s1.49-21.05,8.13-27.5c3.53-3.42,9.35-5.65,16.26-5.65,7.46,0,13.28,1.58,18.84,8.28V241.23h9.76V334.9Zm-16.8-57.09c-14.63,0-16.8,12.1-16.8,24.73s2.17,24.73,16.8,24.73,16.67-12.1,16.67-24.73S334.29,277.81,319.79,277.81Z" transform="translate(0 14.08)"/><path class="cls-25" d="M407.87,282.54c-3.66-3.55-6.37-4.73-11.52-4.73-9.75,0-16,7.5-16,17.36V334.9h-9.75V270.18h9.75v7.89c3.66-5.39,11-8.68,18.7-8.68,6.37,0,11.25,1.44,16,6.05Z" transform="translate(0 14.08)"/><path class="cls-25" d="M464.1,334.9v-6.18c-5.28,5.13-10.29,7-19.24,7-9.21,0-14.22-1.58-18.83-5.92-3.39-3.15-5-8-5-13.15,0-11.45,8.26-18.69,23.17-18.69H464.1v-6.18c0-9.34-4.74-14.21-17.07-14.21-8.4,0-12.74,2.11-16.8,7.5l-6.64-5.92c5.83-7.5,12.6-9.73,23.58-9.73,18,0,26.69,7.63,26.69,21.57V334.9Zm0-29.86H445.54q-15,0-15,11.45c0,7.49,4.74,11.05,15.45,11.05,5.55,0,10.43-.53,14.77-4.35,2.3-2.1,3.38-5.78,3.38-11.18Z" transform="translate(0 14.08)"/><path class="cls-25" d="M516.27,334.9c-11.38,0-17.07-7.76-17.07-17.36V277.41h-8.4v-7.23h8.4V250.31H509v19.87h14.22v7.23H509v39.86c0,5.92,2.84,9.48,9.08,9.48h5.14v8.15Z" transform="translate(0 14.08)"/><path class="cls-25" d="M584.7,334.9v-7.23a24.76,24.76,0,0,1-18.83,8c-7.18,0-13.15-2.1-17.21-6.05-4.74-4.47-6.78-10.66-6.78-18.15V270.18h9.76V310c0,11.44,6.23,17.23,16.26,17.23s16.67-5.92,16.67-17.23V270.18h9.75V334.9Z" transform="translate(0 14.08)"/><path class="cls-25" d="M656,282.54c-3.66-3.55-6.37-4.73-11.52-4.73-9.76,0-16,7.5-16,17.36V334.9h-9.76V270.18h9.76v7.89c3.66-5.39,11-8.68,18.7-8.68,6.37,0,11.25,1.44,16,6.05Z" transform="translate(0 14.08)"/><path class="cls-25" d="M677.79,305c0,14.21,6.78,22.36,19.65,22.36,7.73,0,12.2-2.23,17.48-7.36l6.64,5.65c-6.77,6.58-13.14,10-24.39,10-17.75,0-29.13-10.26-29.13-33.15,0-21.05,10.43-33.15,27.37-33.15,17.34,0,27.37,12,27.37,31.44V305ZM711,287.15a17.33,17.33,0,0,0-31.16,0c-1.63,3.42-1.76,5.52-2,10.78h35.37C712.75,292.67,712.62,290.57,711,287.15Z" transform="translate(0 14.08)"/><path class="cls-25" d="M764.52,335.69c-11.38,0-20.19-2.5-27.37-9.34l6.5-6.31c5.15,5.26,12.47,7.5,20.73,7.5,11.11,0,17.75-3.82,17.75-11.45,0-5.79-3.25-8.81-11.11-9.47l-11-.92c-13-1.06-19.92-6.58-19.92-17.37,0-11.84,10.16-18.94,24.52-18.94,9.62,0,17.89,2.23,24,7l-6.37,6.18c-4.74-3.55-10.84-5.13-17.75-5.13-9.76,0-14.91,3.95-14.91,10.66,0,5.79,3.66,8.68,11.93,9.47l10.43.92c11.65,1.05,19.65,5.26,19.65,17.5C791.62,328.46,780.78,335.69,764.52,335.69Z" transform="translate(0 14.08)"/><path class="cls-26" d="M550.62,412.16V398.31c0-3.55-2-5.07-4.58-5.07a4.5,4.5,0,0,0-4.7,4.84v14.08h-4.58V398.31c0-3.55-2-5.07-4.57-5.07s-4.71,1.57-4.71,5.07v13.85h-4.57V389.43h4.49v2.29a8.21,8.21,0,0,1,6.05-2.56,7.25,7.25,0,0,1,6.45,3.32,8.65,8.65,0,0,1,7.13-3.32,8.24,8.24,0,0,1,5.74,2.06,8.45,8.45,0,0,1,2.42,6.41v14.53Z" transform="translate(0 14.08)"/><path class="cls-26" d="M574.47,412.16V410.1a7.51,7.51,0,0,1-6.05,2.33c-2.83,0-4.71-.68-6.1-2.07a6.93,6.93,0,0,1-1.79-4.88c0-3.81,2.64-6.55,7.89-6.55h6v-1.61c0-2.91-1.39-4.26-5-4.26a5.49,5.49,0,0,0-5,2.24l-3-2.82c2.11-2.51,4.3-3.32,8.11-3.32,6.28,0,9.37,2.69,9.37,7.8v15.2Zm-.09-10h-5.25c-2.78,0-4.17,1.16-4.17,3.27s1.3,3.23,4.31,3.23a5.46,5.46,0,0,0,4.12-1.3c.72-.68,1-1.75,1-3.37Z" transform="translate(0 14.08)"/><path class="cls-26" d="M599,412.16v-2.42a7,7,0,0,1-6,2.69,7.85,7.85,0,0,1-5.56-2c-2.2-2.24-2.55-5.87-2.55-9.64s.35-7.35,2.55-9.59a7.74,7.74,0,0,1,5.51-2,7,7,0,0,1,6,2.56V380.24h4.57v31.92Zm-4.8-18.92c-4.17,0-4.75,3.5-4.75,7.53s.58,7.58,4.75,7.58,4.71-3.54,4.71-7.58S598.36,393.24,594.24,393.24Z" transform="translate(0 14.08)"/><path class="cls-26" d="M614.14,402.12c0,3.94,2,6.36,5.79,6.36a6.79,6.79,0,0,0,5.51-2.33l2.91,2.73a10.63,10.63,0,0,1-8.51,3.55c-5.7,0-10.22-3-10.22-11.66,0-7.4,3.81-11.61,9.63-11.61,6.1,0,9.64,4.39,9.64,11v1.93Zm9.6-6.28a5,5,0,0,0-9,0,7.1,7.1,0,0,0-.59,3.09h10.23A7.7,7.7,0,0,0,623.74,395.84Z" transform="translate(0 14.08)"/><path class="cls-26" d="M667.94,412.16H664l-5.33-15.87-5.29,15.87h-3.95l-7-22.73h4.84l4.4,16,5.29-16h3.54l5.24,16,4.4-16H675Z" transform="translate(0 14.08)"/><path class="cls-26" d="M678.88,385v-4.84h4.84V385Zm.13,27.21V389.43h4.58v22.73Z" transform="translate(0 14.08)"/><path class="cls-26" d="M697.62,412.16c-4.26,0-6.23-3.05-6.23-6.32V392.93h-2.6v-3.5h2.6v-6.5H696v6.5h4.4v3.5H696v12.68c0,1.66.81,2.65,2.51,2.65h1.89v3.9Z" transform="translate(0 14.08)"/><path class="cls-26" d="M720,412.16V398.31c0-3.55-2-5.07-4.58-5.07s-4.7,1.57-4.7,5.07v13.85h-4.58V380.24h4.58v11.48a7.77,7.77,0,0,1,6-2.56,7.87,7.87,0,0,1,5.6,2.06c1.75,1.71,2.29,3.86,2.29,6.41v14.53Z" transform="translate(0 14.08)"/><path class="cls-27" d="M789.18,379.25a13.86,13.86,0,0,0-16.62-4.31,16.74,16.74,0,0,0-6.68,5.42,16.45,16.45,0,0,0-6.68-5.42,13.86,13.86,0,0,0-16.62,4.31,15.33,15.33,0,0,0-3,9.42c0,5.11,3.05,10.73,9.07,16.69a88,88,0,0,0,13.71,10.76,6.6,6.6,0,0,0,7.12,0,88,88,0,0,0,13.72-10.76c6-6,9.06-11.58,9.06-16.69A15.33,15.33,0,0,0,789.18,379.25Z" transform="translate(0 14.08)"/></g></g></svg>