<svg xmlns="http://www.w3.org/2000/svg" xmlns:xlink="http://www.w3.org/1999/xlink" viewBox="0 0 2135.42 615.67"><defs><style>.cls-1{fill:url(#linear-gradient);}.cls-2,.cls-6,.cls-7{fill:none;}.cls-3{fill:url(#linear-gradient-2);}.cls-4{clip-path:url(#clip-path);}.cls-5{mask:url(#mask);}.cls-6,.cls-7{stroke:#e94e1b;stroke-linecap:round;stroke-width:5px;}.cls-10,.cls-6,.cls-7,.cls-8{stroke-miterlimit:10;}.cls-7{stroke-dasharray:0 12.07;}.cls-11,.cls-8{fill:#fff;}.cls-8{stroke:#fff;}.cls-10,.cls-9{fill:#02bec4;}.cls-10{stroke:#02bec4;}.cls-12{fill:#dc4c1a;}</style><linearGradient id="linear-gradient" x1="358.91" y1="4.93" x2="358.91" y2="516.21" gradientUnits="userSpaceOnUse"><stop offset="0"/><stop offset="0.08" stop-color="#565656"/><stop offset="0.15" stop-color="#a0a0a0"/><stop offset="0.18" stop-color="#bdbdbd"/><stop offset="0.37" stop-color="#e2e2e2"/><stop offset="0.54" stop-color="#fff"/><stop offset="0.7" stop-color="#d7d7d7"/><stop offset="0.83" stop-color="#bababa"/><stop offset="0.9" stop-color="#676767"/><stop offset="0.97" stop-color="#1d1d1d"/><stop offset="1"/></linearGradient><linearGradient id="linear-gradient-2" x1="124.9" y1="224.62" x2="699.91" y2="688.15" gradientUnits="userSpaceOnUse"><stop offset="0" stop-color="#254b8e"/><stop offset="1" stop-color="#02bec4"/></linearGradient><clipPath id="clip-path" transform="translate(708.84)"><path class="cls-2" d="M62.84,249.3S89.87,115.86,268.68,85C327.15,74.88,398.81,25.5,398.81,25.5s61.88-.68,121.82,20.93c81.63,29.43,120.34,82,164.1,129.29-12.62,12.61-109.19,113.52-265.92,97.75-114.35-11.5-128.76,165-128.76,165S176.44,227.22,62.84,249.3Z"/></clipPath><mask id="mask" x="0" y="-9.39" width="2135.42" height="542.96" maskUnits="userSpaceOnUse"><g transform="translate(708.84)"><rect class="cls-1" x="27.56" y="-9.39" width="662.7" height="542.96"/></g></mask></defs><title>Equadratures Graph 03</title><g id="Layer_2" data-name="Layer 2"><g id="Layer_1-2" data-name="Layer 1"><path class="cls-3" d="M5.83,367.37C48.53,256.64,313,273.79,421,280.79c113.07,7.33,299.23,19.41,316.27,93.65,15.4,67.1-114.19,155.19-204.95,194.35C380.2,634.44,148.05,644.18,46.47,512.25,37.64,500.79-17.84,428.74,5.83,367.37Z" transform="translate(708.84)"/><g class="cls-4"><g class="cls-5"><line class="cls-6" x1="658.96" y1="88.96" x2="658.96" y2="88.96"/><path class="cls-7" d="M-33.77,87.16c37.48-8,80-29.7,118.7-21.6,31.83,6.66,57.9,31.89,90.83,34.39,42,3.19,84.4-30.84,122.47-45.16,37.57-14.13,55.33-2.47,81.85,24.29,22.36,22.57,40.11,29,71.61,23.48,28-4.92,55.49-10,83.56-14.17,34.32-5.14,61.93-30.21,95.72-37.06,39.62-8,74.65,26.26,110.91,36.57" transform="translate(708.84)"/><line class="cls-6" x1="1458.28" y1="88.9" x2="1458.28" y2="88.9"/><line class="cls-6" x1="654.37" y1="91.15" x2="654.37" y2="91.15"/><path class="cls-7" d="M-38.13,89.33c37.54-7.76,79-28.67,117.75-21.43,33.85,6.32,61.74,34.14,96.85,35.36,41.68,1.45,83.69-32.47,121.31-46.1C335.1,43.64,352.52,56,379.37,81.55c22.76,21.63,40.14,28.59,71.5,23.78,27.63-4.24,55.25-10.14,82.84-14.69,35.89-5.92,66.3-29,102-35.51C674,48.13,710.82,80,746.53,89.86" transform="translate(708.84)"/><line class="cls-6" x1="1463.01" y1="91.01" x2="1463.01" y2="91.01"/><line class="cls-6" x1="649.95" y1="92.88" x2="649.95" y2="92.88"/><path class="cls-7" d="M-42.41,91.1C-5.27,83.73,35.48,64,73.82,70.33c34.51,5.74,62.67,33.25,98,35.89,40.28,3,82-29.77,118-44.06,39.9-15.86,58.14-5.36,88,21.69,24.49,22.2,43,28.33,76,23.11,27.48-4.33,55.6-9.45,82.82-14.89C572,85,604.18,65.52,640,60.26c37.81-5.55,75.3,22.34,111.06,31.28" transform="translate(708.84)"/><line class="cls-6" x1="1467.64" y1="92.69" x2="1467.64" y2="92.69"/><line class="cls-6" x1="645.65" y1="94.25" x2="645.65" y2="94.25"/><path class="cls-7" d="M-46.66,92.56c36.73-6.87,76.39-24.87,114.27-19.7,37,5.07,67.07,35.8,105,36.6,40.6.87,78.95-30.44,115.47-44.93,38.67-15.35,57.92-3.08,87.3,21.6,24.66,20.71,43.57,27.44,76,22.93,27.28-3.8,54.68-9.59,81.77-14.6C570.52,87.54,606.06,70.6,644,66.58c37.48-4,75.5,18.82,111.5,26.42" transform="translate(708.84)"/><line class="cls-6" x1="1472.23" y1="94.06" x2="1472.23" y2="94.06"/><line class="cls-6" x1="641.39" y1="95.37" x2="641.39" y2="95.37"/><path class="cls-7" d="M-50.92,93.83c36.6-6.4,75.83-23.28,113.42-18.12,38,5.22,69.21,36.57,108.14,37.29,40.07.73,77.43-30.44,113.32-45,38.32-15.55,58.34-3,88.46,20.41,25.35,19.7,44.82,26.43,77.16,22.41,27.49-3.41,54.95-9.57,82.18-14.72,38-7.18,75.82-18.93,114.55-22,38-3,76.62,14.21,113.7,20.25" transform="translate(708.84)"/><line class="cls-6" x1="1476.82" y1="95.2" x2="1476.82" y2="95.2"/><line class="cls-6" x1="637.12" y1="96.35" x2="637.12" y2="96.35"/><path class="cls-7" d="M-55.24,95c37.17-6,79.11-23.57,117.07-15.7,36.11,7.48,66.65,34.62,103.9,37.34,40.09,2.93,79.75-31.12,115.17-45.35,36.89-14.81,58-2.05,88.09,19.53,25.49,18.29,45.91,25.12,77.45,21.87,29-3,57.79-10.11,86.43-15.47C569.4,90.35,606.55,85,643.67,82.63c40.4-2.54,80.83,8.62,120.85,13" transform="translate(708.84)"/><line class="cls-6" x1="1481.46" y1="96.21" x2="1481.46" y2="96.21"/><line class="cls-6" x1="632.77" y1="97.28" x2="632.77" y2="97.28"/><path class="cls-7" d="M-59.65,96.1C-23.09,90.81,17.61,74.93,54.77,82c38.32,7.25,72,38.23,111.77,38.9,39.36.67,75.88-32.1,110.85-46.23,35.4-14.32,58.17-.39,87.85,18.75,25.85,16.66,47,23.62,77.9,21,28.81-2.46,56.78-9.81,85.17-14.94,79.5-14.36,160.83-6.62,240.81-2.56" transform="translate(708.84)"/><line class="cls-6" x1="1486.2" y1="97.2" x2="1486.2" y2="97.2"/><line class="cls-6" x1="628.27" y1="98.29" x2="628.27" y2="98.29"/><path class="cls-7" d="M-64.2,97.29c36.41-4.68,76.51-19.2,113.36-12.23,39.42,7.45,74.44,39.07,115.29,39.73,38.51.63,73.46-31.61,107.5-45.62,34.86-14.35,59.12-.39,89.39,17,26.6,15.31,48.77,22,79.61,19.82,29.1-2,56.85-9.86,85.45-14.83,40.5-7,82.37-1.89,123.17-1.29,41.46.6,82.85-1.43,124.29-1.69" transform="translate(708.84)"/><line class="cls-6" x1="1491.09" y1="98.27" x2="1491.09" y2="98.27"/><line class="cls-6" x1="623.57" y1="99.47" x2="623.57" y2="99.47"/><path class="cls-7" d="M-68.95,98.65c35.89-4,74.59-16.93,110.81-10.71,40.83,7,75.79,38,117.52,40.64C196.63,131,230,100.4,262.12,86c36.23-16.23,62.18-3.52,95.3,13.36C386,114,410.1,119.68,442.18,117.67c29.33-1.84,56.69-11,85.55-15,41.84-5.75,84.17,4.52,125.95,6.27s83.43-6.67,125.12-9.18" transform="translate(708.84)"/><line class="cls-6" x1="1496.17" y1="99.51" x2="1496.17" y2="99.51"/><line class="cls-6" x1="618.59" y1="100.93" x2="618.59" y2="100.93"/><path class="cls-7" d="M-73.91,100.26C-38.62,96.82-1,85.45,34.55,90.93c43.3,6.68,81,41.31,125.38,41.53,36.15.19,66.28-27.63,97.93-41.52,35.2-15.46,62.82-2.42,95.79,12,29.13,12.76,54.17,18.28,86,16.86,29.08-1.3,55.46-10.12,83.92-14.77,44.78-7.32,90,10.51,134.51,12.91,42.37,2.29,84-11.89,125.91-16.43" transform="translate(708.84)"/><line class="cls-6" x1="1501.49" y1="101.02" x2="1501.49" y2="101.02"/><line class="cls-6" x1="613.28" y1="102.77" x2="613.28" y2="102.77"/><path class="cls-7" d="M-79.15,102.22C-42.3,99.11-2.79,87.94,34,95.47c41.41,8.47,77.94,37.83,120.54,40.9,37.06,2.67,66.48-27,98.85-40.11,34.47-14,63.74-1.51,96.74,10.78,29.71,11.06,55.8,15.87,87.46,15.15,30.86-.71,58.26-11.31,88.42-15.21,43.56-5.63,87.35,14.14,130.11,19.21,45.07,5.34,89.3-16,133.3-22.57" transform="translate(708.84)"/><line class="cls-6" x1="1507.11" y1="102.9" x2="1507.11" y2="102.9"/><line class="cls-6" x1="607.57" y1="105.11" x2="607.57" y2="105.11"/><path class="cls-7" d="M-84.7,104.62C-48.24,101.92-9.41,92,27,98.62c43.81,8,82.86,40.84,128,42.15,35.21,1,62.86-26.19,93.93-38.27,33.42-13,65.58-.72,98.17,9.2,30.28,9.23,57.76,13.4,89.37,13.23,30.86-.16,57.23-9.71,87.2-14.66,46.2-7.64,92.6,18.4,137.72,24.21,45.46,5.86,89.94-20.46,133.86-28.36" transform="translate(708.84)"/><line class="cls-6" x1="1513.06" y1="105.26" x2="1513.06" y2="105.26"/><line class="cls-6" x1="601.4" y1="108.05" x2="601.4" y2="108.05"/><path class="cls-7" d="M-90.61,107.56C-54.33,105.11-16,96.2,20.18,101.91c44.89,7.07,83.49,39.17,129.19,42.56,36.31,2.7,62.85-24,95.1-35.19,32.86-11.44,67.76-.15,100.19,7.73,32,7.78,62.62,10.93,95.54,11.13,31.24.19,57.71-11.63,87.95-15.28,47.67-5.76,92.67,23.48,139.07,29.25,46.06,5.73,90.16-24.25,134.27-33" transform="translate(708.84)"/><line class="cls-6" x1="1519.41" y1="108.18" x2="1519.41" y2="108.18"/><line class="cls-6" x1="594.72" y1="111.7" x2="594.72" y2="111.7"/><path class="cls-7" d="M-97,111.16c38.05-2.48,79.76-12.62,117.55-4.63,43.72,9.24,83.13,40,128.47,41.7,33.51,1.28,58.06-20.62,88-31.45,34.84-12.59,72.45-1,107.13,6.87A402.37,402.37,0,0,0,441.9,134.1c30.9-.5,56.31-11.93,86.05-17.54C577,107.3,625.39,143,673.18,148.24c46.41,5.08,90.59-26.31,134.91-35.45" transform="translate(708.84)"/><line class="cls-6" x1="1526.17" y1="111.85" x2="1526.17" y2="111.85"/><line class="cls-6" x1="587.93" y1="116.11" x2="587.93" y2="116.11"/><path class="cls-7" d="M-103.53,115.55c38.36-2.37,80.36-12.12,118.48-4.68,44.84,8.76,85.87,41.62,132.47,41.55,32.63,0,59.07-21.8,88.75-32,36.13-12.38,73.76,1.22,109.06,10.76,33.26,9,64.86,15.55,99.42,12.08,31.67-3.17,59.66-19.4,90.52-23.67,49.21-6.81,96,28.61,144,33,46.27,4.18,91.5-26.12,135.87-35.21" transform="translate(708.84)"/><line class="cls-6" x1="1533.35" y1="116.33" x2="1533.35" y2="116.33"/><line class="cls-6" x1="581.15" y1="121.17" x2="581.15" y2="121.17"/><path class="cls-7" d="M-110,120.63C-71.7,118.47-30.16,109.5,8,115.74,52,123,90.34,153.16,135.23,156.1c35.17,2.3,64.38-19.65,96.29-30.47,38.73-13.13,76.41,1.4,113.83,12.84,34.89,10.67,67.52,19.13,104,12.73,31.34-5.5,60.53-24.38,91.61-28.13,48.18-5.81,92.95,27.23,139.93,32.38,48.31,5.31,95.05-23.92,141.61-33" transform="translate(708.84)"/><line class="cls-6" x1="1540.96" y1="121.42" x2="1540.96" y2="121.42"/><line class="cls-6" x1="574.32" y1="126.78" x2="574.32" y2="126.78"/><path class="cls-7" d="M-116.43,126.29c38.89-1.94,80.6-10.25,119.32-4.64,44.19,6.4,82.49,37.15,127.64,38.6,35.49,1.14,66.72-19.9,99.62-30.06,39.67-12.25,76.91,2.62,114.65,15.29C380,157.31,413.24,167,450.38,158.87c32.45-7.13,62-27,94.42-32.75,48.48-8.54,96.24,28.2,143.59,32.5,48,4.37,95.31-22.31,142-30.58" transform="translate(708.84)"/><line class="cls-6" x1="1548.96" y1="127.02" x2="1548.96" y2="127.02"/><line class="cls-6" x1="567.38" y1="132.85" x2="567.38" y2="132.85"/><path class="cls-7" d="M-122.93,132.42c41.27-1.76,86.21-10.19,127.13-3.15,41.4,7.11,78,35.66,120.9,35.59,36.32-.06,69.45-20.61,103.74-29.84,40.63-10.94,76.78,3.64,115,17.27,35.83,12.8,69.05,23.17,106.93,13.7,35.25-8.81,68.47-32.94,104.37-37.52,45.59-5.81,90.51,25.76,134.77,32.26C739.15,168,790.5,141.44,838.57,134" transform="translate(708.84)"/><line class="cls-6" x1="1557.34" y1="133.06" x2="1557.34" y2="133.06"/><line class="cls-6" x1="560.29" y1="139.27" x2="560.29" y2="139.27"/><path class="cls-7" d="M-129.56,138.92c41.86-1.47,87.17-9.14,128.76-2.85,39.33,6,73.4,32,113.79,33.14,39.56,1.12,77-19.73,114.71-28.86,41.09-9.95,76.65,4.14,114.92,18.66,36.21,13.74,69.61,24.16,108,13.89,37.6-10.06,72-34.63,110.25-41.25,46.09-8,92.65,25.9,137.58,31.69,49.17,6.33,100.4-16.86,148.68-23.15" transform="translate(708.84)"/><line class="cls-6" x1="1566.05" y1="139.44" x2="1566.05" y2="139.44"/><line class="cls-6" x1="552.98" y1="145.96" x2="552.98" y2="145.96"/><path class="cls-7" d="M-136.39,145.68c43.69-1.21,91.68-9.24,135-1.94,36.23,6.11,67.37,28.94,104.79,29.93,40.87,1.08,80.24-18,119.47-26.87,43.37-9.83,78.48,2.93,118.65,18.88,38.37,15.24,72.19,24.75,112.83,12.64,38.44-11.45,75.52-38.8,115.3-44.4,47.59-6.71,92.86,27.62,139.5,32.07,48.7,4.64,98.78-14.38,146.93-19.36" transform="translate(708.84)"/><line class="cls-6" x1="1575.07" y1="146.06" x2="1575.07" y2="146.06"/><line class="cls-6" x1="545.39" y1="152.8" x2="545.39" y2="152.8"/><path class="cls-7" d="M-143.47,152.61c44.52-.93,92.69-8,136.88-1.6,35.78,5.21,66,27.31,102.94,27.59,42.68.33,84.53-17.76,125.94-26,44-8.7,77.79,3.09,118.34,19.74,38.66,15.88,72.45,25.18,113.59,12.53,42.16-13,82.86-43.37,126.89-48.8,46.65-5.75,91.15,28.63,137.18,32.31,48.72,3.9,98.52-11.47,146.93-15.2" transform="translate(708.84)"/><line class="cls-6" x1="1584.38" y1="152.83" x2="1584.38" y2="152.83"/><line class="cls-6" x1="537.48" y1="159.7" x2="537.48" y2="159.7"/><path class="cls-7" d="M-150.89,159.58c45.38-.65,93.91-7,139-1.2,33.37,4.31,61.68,24.3,95.92,25.1,46.7,1.09,92.9-16.95,138.46-24.89,44-7.67,77.8,3.39,117.84,20.61,41.16,17.7,76.52,25.16,120,10.38C503,175.07,547.06,142,592.59,138.49c43.9-3.41,85.54,26.81,128.62,31.75,50.47,5.79,103-7.73,153.43-10.35" transform="translate(708.84)"/><line class="cls-6" x1="1593.93" y1="159.67" x2="1593.93" y2="159.67"/><line class="cls-6" x1="529.17" y1="166.56" x2="529.17" y2="166.56"/><path class="cls-7" d="M-158.71,166.51c47.23-.43,97.87-6.45,144.77-.27,30.94,4.07,57,21.63,88.89,22.21,50.46.94,100.36-16.59,149.92-23.93,43.62-6.45,76.33,4.23,115.88,21.66,41,18.08,75.45,25.49,118.92,10.7,45.06-15.32,89.51-49.33,137.14-55.17,44-5.39,86.38,25.2,129.21,31.13,51.57,7.15,106.53-4.73,158.26-6.29" transform="translate(708.84)"/><line class="cls-6" x1="1603.71" y1="166.49" x2="1603.71" y2="166.49"/><line class="cls-6" x1="520.42" y1="173.28" x2="520.42" y2="173.28"/><path class="cls-7" d="M-167,173.27c48.23-.22,99-5.32,147,0,31,3.48,57,20.29,89,20.43,50.72.22,101.13-14.95,151.09-22,46.64-6.59,80,2.22,122.17,21.68,40.94,18.87,75.34,25.73,119,10.61,47.95-16.62,95.34-54.32,146.46-59.66,43.32-4.53,85.41,26.69,127.79,32,51.77,6.51,106.62-2.54,158.63-3.22" transform="translate(708.84)"/><line class="cls-6" x1="1613.68" y1="173.19" x2="1613.68" y2="173.19"/><line class="cls-6" x1="511.17" y1="179.76" x2="511.17" y2="179.76"/><path class="cls-7" d="M-175.82,179.78c50-.08,103.34-5.78,152.94.63,27.45,3.55,51,17.65,79.14,18.68,56.09,2.06,112.6-14.52,168-21.28,46.83-5.73,78.73,3,120.7,23.14,43,20.68,78,26.69,123.7,9.11,47.14-18.12,96-57.8,147.18-62.33,44.66-3.94,86.53,28.48,130.61,33,51.76,5.25,105.7-1,157.65-1.09" transform="translate(708.84)"/><line class="cls-6" x1="1623.82" y1="179.68" x2="1623.82" y2="179.68"/><line class="cls-6" x1="501.36" y1="185.91" x2="501.36" y2="185.91"/><path class="cls-7" d="M-185.24,185.92c50.61,0,103.74-4.62,154.1.7,30,3.18,55.52,17.84,86.41,18,56,.38,111.81-13.56,167.2-19.92,23-2.64,46.69-5.71,69.5-.23,20.29,4.88,38.66,15.07,57.17,24.37,42.05,21.13,76.55,28.27,121.66,10.27,28.13-11.22,54.51-26.37,81.38-40.22C573.83,167.77,598.24,153,623,151.1c45.84-3.52,88.58,30.81,134.08,34.59,51.69,4.3,105.19.06,157,.13" transform="translate(708.84)"/><line class="cls-6" x1="1634.1" y1="185.87" x2="1634.1" y2="185.87"/><line class="cls-6" x1="491.01" y1="191.68" x2="491.01" y2="191.68"/><path class="cls-7" d="M-195.2,191.59c51.23,0,104.81-4,155.77,1.13,30.05,3,56.82,16.87,87.44,17.54,59.34,1.31,119.34-13.37,178.14-19.75,23.4-2.53,47.25-5.59,70.36.3,20.19,5.14,38.62,15.35,57.17,24.5C372,224.31,391,234,411.43,237c24.43,3.57,47.72-4.47,69.93-14,28-12,54.42-27.24,81.44-41.16,21-10.85,45-25.32,69.26-26,43.69-1.15,84.88,28.64,127.94,34.21,53,6.85,110.85,2.18,164.34,2" transform="translate(708.84)"/><line class="cls-6" x1="1644.5" y1="191.97" x2="1644.5" y2="191.97"/><line class="cls-6" x1="480.27" y1="197.56" x2="480.27" y2="197.56"/><path class="cls-7" d="M-205.5,197.45c52.72.45,107.83-2.36,160.25,2.91,30.73,3.1,59.39,14.62,90.55,15.19,61.86,1.12,124.58-13.31,186-19.53,23.74-2.41,46.5-5.05,69.83,1,19.64,5.1,38,14.2,56.45,22.41,18.26,8.12,36.95,16.79,56.79,20.19,23.72,4.07,46.59-3.47,68.58-12,27.39-10.62,53.53-24.21,80-36.94,21.51-10.35,46.93-25.3,71.18-26.91,43.73-2.91,88.38,23.07,131,30,26.65,4.3,55.22,1.58,82.22,2.79,29.19,1.31,58.27,3,87.5,3.08" transform="translate(708.84)"/><line class="cls-6" x1="1655.23" y1="199.37" x2="1655.23" y2="199.37"/><line class="cls-6" x1="469.13" y1="203.69" x2="469.13" y2="203.69"/><path class="cls-7" d="M-216.25,203.71c54.58,1.23,110.75.64,165.09,5.33,31.67,2.73,62.55,11.48,94.49,11.81,61.85.64,124.74-12.15,186.18-18.07,26.13-2.52,50.56-5.63,76.27.82,19.18,4.8,37.5,12.53,55.9,19.62,18.23,7,36.71,14.43,56,17.95,23.14,4.21,45-2.07,67-9.4,28.86-9.63,56.59-22.36,84.58-34.2,23.45-9.91,49.07-23.13,75-23.58,44.43-.77,88.78,17.55,132.58,23.37,24.81,3.29,50.45,1.34,75.48,3.6,31.22,2.81,62.12,6.6,93.49,7.28" transform="translate(708.84)"/><line class="cls-6" x1="1666.34" y1="208.07" x2="1666.34" y2="208.07"/><line class="cls-6" x1="457.55" y1="210.09" x2="457.55" y2="210.09"/><path class="cls-7" d="M-227.46,210.36c55,2.28,110.13,5.31,165.11,8,35.11,1.72,70,7.65,105.21,7.6,61.5-.08,123.72-10.53,184.93-15.93,26.36-2.32,51.68-5.89,77.73-.42,20.47,4.3,40.31,11,60.23,17.26,18.25,5.74,36.63,11.82,55.52,15.09,24.62,4.27,47.58-1.57,71.42-8.3,49.38-13.93,100.69-43.8,152-47.53,47.53-3.46,96.92,9.65,144.08,14.07C814,202.55,839,202,864.14,205.74c31,4.65,61.54,10.46,92.94,12.09" transform="translate(708.84)"/><line class="cls-6" x1="1677.88" y1="217.86" x2="1677.88" y2="217.86"/><line class="cls-6" x1="445.5" y1="216.76" x2="445.5" y2="216.76"/><path class="cls-7" d="M-239.14,217.38c93.95,6,187.37,15.32,281.76,13.94,63.37-.92,127-9.28,190.23-14,26-1.93,50.7-4.64,76.46-.06,20.26,3.6,40.24,8.57,60.25,13.31,18.36,4.34,36.75,8.79,55.4,11.77,25.63,4.1,50.34-.72,75.54-6.22C551.24,225.07,602.06,203,654,199.69c48.9-3.13,98.4.43,147.24,2.73,57.33,2.69,110.76,20.7,167.6,25.8" transform="translate(708.84)"/><line class="cls-6" x1="1689.89" y1="228.54" x2="1689.89" y2="228.54"/><line class="cls-6" x1="432.95" y1="223.72" x2="432.95" y2="223.72"/><path class="cls-7" d="M-251.34,224.75c57.18,5,112.53,15.83,170.17,14.94,43.28-.67,86.77-1.27,130-3,62.75-2.48,125.5-7.44,188.19-11.16,47.14-2.8,89.38,2,135.84,9.08,44.44,6.81,84.5,11.47,129.41,5.45,50.65-6.79,100.54-20.1,151.35-25.22,49.21-5,98.87-10.87,148.38-10.79,63.14.09,117.53,27.07,179.16,35.16" transform="translate(708.84)"/><line class="cls-6" x1="1702.39" y1="239.93" x2="1702.39" y2="239.93"/><line class="cls-6" x1="419.85" y1="230.97" x2="419.85" y2="230.97"/><path class="cls-7" d="M-264.06,232.45c59.19,6.64,115.83,21.46,175.83,18.61,44.11-2.1,88-6.66,132.15-8.39q94.58-3.69,189.17-7.62c48.18-2,94.37.85,142.41,4.14,43.19,3,85.36,6.66,128.71,4.6,52.92-2.51,106.16-7,158.71-13.81,51-6.64,100.82-21.53,152.4-23.79,63.8-2.8,117.35,33.84,178.68,44.53" transform="translate(708.84)"/><line class="cls-6" x1="1715.42" y1="251.82" x2="1715.42" y2="251.82"/><line class="cls-6" x1="406.19" y1="238.55" x2="406.19" y2="238.55"/><path class="cls-7" d="M-277.32,240.46c58.58,7.95,114.84,26.64,174.56,22.65,50.23-3.36,99.89-11.82,150.22-14.21,109.86-5.23,219.84-2.83,329.71-4.41,94.72-1.37,193.63,15.95,287.64,1.84,56.19-8.43,108.71-34.22,165.82-38.1,63-4.27,117.07,41.46,176.76,54.28" transform="translate(708.84)"/><line class="cls-6" x1="1729.03" y1="264" x2="1729.03" y2="264"/><line class="cls-6" x1="391.93" y1="246.45" x2="391.93" y2="246.45"/><path class="cls-7" d="M-291.16,248.76c58.47,9.19,114.71,31.4,174.7,26.61,53.25-4.25,105.56-16.3,158.94-19.32,111.78-6.31,223.44,4.88,335.19-5.31,47.57-4.34,92.64-4.14,140.11,1.6,48.61,5.87,102.9,18.74,151.71,9.94,58.07-10.47,110-44.14,169-50.77,66-7.41,121.5,47.52,182.83,62.92" transform="translate(708.84)"/><line class="cls-6" x1="1743.24" y1="276.29" x2="1743.24" y2="276.29"/><line class="cls-6" x1="377.02" y1="254.68" x2="377.02" y2="254.68"/><path class="cls-7" d="M-305.58,257.34c62.93,11,120.78,36.2,185.76,29.3,55.31-5.87,109.54-20.09,165.19-23.09,60.79-3.28,121.38,4.36,182.09,5.75,50.79,1.16,99.27-3.23,149.33-11.13,48.48-7.66,93.13-10.61,141.69-1.35,49.94,9.52,107.7,31.77,158.8,20.59,59.54-13,110.59-52,171.09-62,67.71-11.16,125.9,53.7,187.58,70.95" transform="translate(708.84)"/><line class="cls-6" x1="1758.09" y1="288.49" x2="1758.09" y2="288.49"/><line class="cls-6" x1="361.45" y1="263.28" x2="361.45" y2="263.28"/><path class="cls-7" d="M-320.62,266.17c62.28,11.7,120.26,39.39,184.82,32.76,61.48-6.32,121.47-24.37,183.39-27,56.87-2.44,113,8.14,169.57,11.25,54.13,3,104.33-4.75,157.12-16.15,52-11.22,98-17.35,150.08-4.08,48.46,12.35,104.82,40.51,155.85,30,65.36-13.5,118-63.78,184.62-73.47,67.29-9.8,125.32,60.42,186.36,78.64" transform="translate(708.84)"/><line class="cls-6" x1="1773.61" y1="300.39" x2="1773.61" y2="300.39"/><line class="cls-6" x1="345.18" y1="272.23" x2="345.18" y2="272.23"/><path class="cls-7" d="M-336.3,275.24c62.51,12.19,120.56,41.53,185.61,35.46,64.17-6,126.49-25.77,191-29.08,53.34-2.73,104.83,10.38,157.47,16,60.32,6.43,114.07-5.05,172.18-20.18,55.9-14.55,105-24.4,161.4-7,48.68,15,102.92,46.63,155.3,36,67.22-13.6,119.11-69.12,187.07-80.27,71.54-11.74,129.07,63.54,193.43,83.22" transform="translate(708.84)"/><line class="cls-6" x1="1789.85" y1="311.79" x2="1789.85" y2="311.79"/><line class="cls-6" x1="328.17" y1="281.57" x2="328.17" y2="281.57"/><path class="cls-7" d="M-352.63,284.53c67.7,13.22,127.5,43.54,198.16,36.29,65.26-6.69,129-27,194.84-28.79,52.07-1.38,100.21,16.44,151.16,23.22,59.85,8,115-8.85,172-25.56S473.94,258.59,532,276.92c52.57,16.61,107.45,53.33,164.81,41.25,68-14.3,119.08-72,187.68-84.22,74.66-13.3,132.48,66.34,199.28,86.3" transform="translate(708.84)"/><line class="cls-6" x1="1806.84" y1="322.51" x2="1806.84" y2="322.51"/><line class="cls-6" x1="310.37" y1="291.39" x2="310.37" y2="291.39"/><path class="cls-7" d="M-369.73,294.37c67.4,12.76,128.28,42,198.38,37.2C-101.07,326.72-32.66,305.8,38,305.38c49-.29,93.41,15.55,141.35,21.88,62.14,8.21,120.61-10.08,179.69-27.11,59.74-17.23,117.14-33,178.25-13.6,53,16.8,106.93,52.45,164.85,42.11,72.14-12.88,126.27-75.66,199.3-85.34,73.57-9.75,133.11,66.94,199.82,86.44" transform="translate(708.84)"/><line class="cls-6" x1="1824.66" y1="332.09" x2="1824.66" y2="332.09"/><line class="cls-6" x1="291.81" y1="301.65" x2="291.81" y2="301.65"/><path class="cls-7" d="M-387.57,304.65c52.08,9.23,101.91,30,154.71,35.2,57.81,5.73,115.67-6.74,172.62-14.93,46.41-6.67,94.63-11.39,141.39-5.29,34.67,4.52,68.26,15,103.27,17.26,50,3.17,98.1-8,146-20.89,51.76-13.95,107.07-33.63,161.48-29.91C536,289.11,576,309.78,617,324.33c48,17.05,90.45,19.69,138.12-.4C811,300.39,872.43,248.3,936.32,256.16c67,8.25,118.89,64.21,183.25,82.1" transform="translate(708.84)"/><line class="cls-6" x1="1843.26" y1="340.69" x2="1843.26" y2="340.69"/><line class="cls-6" x1="272.37" y1="312.37" x2="272.37" y2="312.37"/><path class="cls-7" d="M-406.2,315.22c54.5,8.75,107.1,28.41,162.26,33,57.76,4.83,115-6.37,172-14.24,47.72-6.6,97.61-11.12,145.65-5.09,35.83,4.5,70.65,15.1,106.89,16.69,106.75,4.7,205.14-55.66,311-50.15,46.17,2.4,88.21,23.28,131.22,38.09,50.13,17.26,94.09,19.37,143.84-.23,55.62-21.92,116.64-69,179.18-62.57,69.16,7.07,126,59,192.8,75.65" transform="translate(708.84)"/><line class="cls-6" x1="1862.73" y1="348.74" x2="1862.73" y2="348.74"/><line class="cls-6" x1="251.95" y1="323.62" x2="251.95" y2="323.62"/><path class="cls-7" d="M-425.74,326.2c56.67,7.95,111.83,25.91,169.05,29.91s113.22-6.07,169.53-14c49.24-6.91,100.49-11.8,150.08-5.55,37.18,4.7,73.23,15.88,110.8,17.81,110.19,5.68,212.46-55.82,321.81-49.35,47.81,2.82,91.71,24.27,136.56,38.92,49.16,16,93.76,18,143,.76,57.6-20.18,118.24-62,181.51-57,70.94,5.62,132.93,52,202,66.7" transform="translate(708.84)"/><line class="cls-6" x1="1883.19" y1="356.52" x2="1883.19" y2="356.52"/><line class="cls-6" x1="230.4" y1="335.47" x2="230.4" y2="335.47"/><path class="cls-7" d="M-446.33,337.69c57.36,6.79,113.56,22.08,171.26,26,61.07,4.17,120.6-7,180.79-15.53C-45.53,341.28,5,336.72,54,343.79c37.69,5.43,74.26,17,112.38,19.76,114.14,8.15,220.59-56.31,334-48.46,48.11,3.34,92.68,24.14,138.08,38.48,51.11,16.14,97.2,18.21,148.67,2.16,57.77-18,116.7-53,179-49.72,73.75,3.83,141.16,44.3,213.5,56.59" transform="translate(708.84)"/><line class="cls-6" x1="1904.77" y1="364.3" x2="1904.77" y2="364.3"/><line class="cls-6" x1="207.6" y1="348" x2="207.6" y2="348"/><path class="cls-7" d="M-468.1,349.8c59.8,5.74,118.76,19.2,178.82,22.19,60.35,3,118.78-7.69,178.15-16.8,50.6-7.76,102.37-12.87,153.28-4.92,39.82,6.22,78.33,19.2,118.58,23,115.56,10.76,223.57-53.37,338.46-48,50.07,2.35,96.81,23.3,144.07,37.86,51.88,16,100.38,19.08,153.23,5.32,61.58-16,122.14-46.33,187.25-42.17,74.32,4.75,144.32,35.6,218,44.88" transform="translate(708.84)"/><line class="cls-6" x1="1927.59" y1="372.39" x2="1927.59" y2="372.39"/><line class="cls-6" x1="183.44" y1="361.28" x2="183.44" y2="361.28"/><path class="cls-7" d="M-491.18,362.64c62.38,4.62,124.19,16,186.75,18.1,61.82,2.08,121.21-9.4,181.92-19.26,50.58-8.22,101.62-13.36,152.48-4.63,42.33,7.27,83.18,21.62,126,26.48C274.22,396.8,385.63,330,503.39,336.42c52.15,2.86,100.79,24,150.35,38.44,51.34,14.95,100.36,17.74,152.84,6.89,63.3-13.1,123.78-37,189.43-34.63,77.38,2.79,152.25,26.72,229.3,33.16" transform="translate(708.84)"/><line class="cls-6" x1="1951.78" y1="381.06" x2="1951.78" y2="381.06"/><line class="cls-6" x1="157.77" y1="375.38" x2="157.77" y2="375.38"/><path class="cls-7" d="M-515.7,376.32c65.08,3.49,129.81,12.78,195,14.06,61.21,1.2,119.93-10.34,179.93-20.86,54.55-9.55,108.24-15.26,163-4.61,43.57,8.47,85.75,23.37,129.85,29.19C272.84,410,387.5,341.18,507.87,348.34c52.33,3.11,101.7,23.36,151.6,37.55,54.65,15.55,107.31,18.3,163.38,9,62.65-10.42,122.45-26.72,186.51-26.19,80.74.67,160.36,18,240.95,21.6" transform="translate(708.84)"/><line class="cls-6" x1="1977.48" y1="390.59" x2="1977.48" y2="390.59"/><line class="cls-6" x1="130.47" y1="390.39" x2="130.47" y2="390.39"/><path class="cls-7" d="M-541.8,390.93c65.79,2.36,131.38,9.17,197.22,10.1,65.22.92,127.15-11.64,191-23.28,55.2-10.06,108.3-15.61,163.73-4.54,48.32,9.64,95.07,26.5,144.05,32.94C273.64,421.85,388.13,356,507.4,361c56.4,2.39,109.76,23.92,163.68,38.44,54.35,14.64,107.74,17,163.54,10.44,63.68-7.49,125.2-18.81,189.59-19.07,84.39-.36,168.37,9.5,252.72,10.54" transform="translate(708.84)"/><line class="cls-6" x1="2004.8" y1="401.26" x2="2004.8" y2="401.26"/><line class="cls-6" x1="101.43" y1="406.38" x2="101.43" y2="406.38"/><path class="cls-7" d="M-569.6,406.59c70.4,1.48,140.71,6.6,211.15,6.64,64.5,0,126-13.16,189-25.08C-112,377.3-57.41,371.84.3,383.47c51.55,10.38,101.54,28,153.79,35,120.79,16.25,237-48.8,357.63-43.3,58.35,2.66,113.64,24.13,169.66,38.55C737.21,428.1,792.49,430,849.77,425.61c64.46-5,127.8-10.77,192.45-12.47,87.68-2.32,175.39,1.86,263.09.69" transform="translate(708.84)"/><line class="cls-6" x1="2033.88" y1="413.37" x2="2033.88" y2="413.37"/><line class="cls-6" x1="70.5" y1="423.42" x2="70.5" y2="423.42"/><path class="cls-7" d="M-599.24,423.4c70.86.69,141.7,3.77,212.57,3.7,68.75-.07,133.69-13.43,200.89-26.27,59.89-11.45,116.54-16.62,176.78-5,55.12,10.67,108.77,28.6,164.58,35.78C277.5,447.34,394.77,385,516.53,390.72,575,393.49,630.71,413.79,687,428c59.46,15,118,17,179.09,14.34,156.47-6.74,312.93-9.68,469.51-14.48" transform="translate(708.84)"/><line class="cls-6" x1="2064.84" y1="427.2" x2="2064.84" y2="427.2"/><line class="cls-6" x1="37.57" y1="441.59" x2="37.57" y2="441.59"/><path class="cls-7" d="M-630.85,441.47c75.23.2,150.46,1.8,225.7,1.47,68.37-.3,133.36-13.56,200.24-26.21,64.16-12.14,125-17.12,189.57-5.54,56.93,10.19,112.64,27.05,170.16,34,123.91,15,242.65-43,366.19-37.35,60.18,2.75,117.69,22.75,175.75,36.93,61.23,15,121.35,16.45,184.08,15.41,162.62-2.68,324.55-10.18,487.05-16.45" transform="translate(708.84)"/><line class="cls-6" x1="2097.81" y1="443.02" x2="2097.81" y2="443.02"/><line class="cls-6" x1="2.5" y1="460.96" x2="2.5" y2="460.96"/><path class="cls-7" d="M-664.57,460.91c77.54,0,155.09.28,232.63.17,72.83-.11,142-13.53,213.35-26.24C-153.84,423.3-91.33,419-26,428.61c62.57,9.24,124,25.74,187,31.67,123.56,11.6,242.06-39.36,365.14-33.7,63.78,2.94,124.9,23.7,186.65,38,63,14.6,125,14.52,189.33,14.39,68.13-.14,136.39.85,204.5-.41,98.76-1.83,197.07-13.34,295.75-16.93" transform="translate(708.84)"/><line class="cls-6" x1="2132.92" y1="461.13" x2="2132.92" y2="461.13"/></g></g><path class="cls-8" d="M619.86,429.93V414l-5.5,11.63h-2.68L606.05,414v15.95h-3.62V406.06h3.62l7,14.86,6.84-14.86h3.62v23.87Z" transform="translate(708.84)"/><path class="cls-8" d="M637.75,406.1h-3.81l-2.54,12.67H630l2.54-12.67H628.7l.25-1.25h9Z" transform="translate(708.84)"/><path class="cls-8" d="M653.37,429.93l-3.55-5.8-3.59,5.8h-4.12l5.83-8.68-5.6-8.31h4.12l3.36,5.53,3.31-5.53h4.13l-5.57,8.31,5.8,8.68Z" transform="translate(708.84)"/><path class="cls-9" d="M751.13,146.39V132.13c0-3.21-2-4.3-3.89-4.3A3.8,3.8,0,0,0,743.3,132v14.4h-5.88V132.13c0-3.21-2-4.3-3.9-4.3s-3.94,1.09-3.94,4.3v14.26H723.7V122.8h5.75V125a8.23,8.23,0,0,1,5.88-2.45,7.3,7.3,0,0,1,6.25,3,9,9,0,0,1,7.06-3,8.24,8.24,0,0,1,5.8,2.08,8.91,8.91,0,0,1,2.58,6.7v15.08Z" transform="translate(708.84)"/><path class="cls-9" d="M779.65,143.76a9.83,9.83,0,0,1-7.33,2.9,9.73,9.73,0,0,1-7.29-2.9c-2.13-2.26-2.67-4.93-2.67-9.19s.54-6.88,2.67-9.14a10.66,10.66,0,0,1,14.62,0c2.13,2.26,2.67,4.89,2.67,9.14S781.83,141.55,779.65,143.76Zm-4.57-14.89a4.13,4.13,0,0,0-5.48,0c-1.22,1.18-1.36,3.3-1.36,5.7s.14,4.58,1.36,5.75a4.1,4.1,0,0,0,5.48,0c1.22-1.17,1.36-3.3,1.36-5.75S776.3,130.05,775.08,128.87Z" transform="translate(708.84)"/><path class="cls-9" d="M801,146.39v-2.22a7.08,7.08,0,0,1-5.84,2.49,7.92,7.92,0,0,1-5.75-2.13c-2.27-2.3-2.45-6-2.45-10s.18-7.6,2.45-9.91a7.82,7.82,0,0,1,5.7-2.13,7.07,7.07,0,0,1,5.75,2.36V114.16h5.89v32.23Zm-4.17-18.56c-3.53,0-4,2.94-4,6.74s.45,6.8,4,6.8,4-3,4-6.8S800.34,127.83,796.81,127.83Z" transform="translate(708.84)"/><path class="cls-9" d="M818,136.43c0,3.08,1.81,5.25,5.16,5.25a6.65,6.65,0,0,0,5.34-2.22L832,143a11.1,11.1,0,0,1-9,3.71c-5.57,0-10.91-2.53-10.91-12.09,0-7.69,4.16-12,10.27-12,6.57,0,10.28,4.71,10.28,11.41v2.49Zm8.42-6.56a4.39,4.39,0,0,0-7.88,0,5.94,5.94,0,0,0-.54,2.53h9A5.8,5.8,0,0,0,826.37,129.87Z" transform="translate(708.84)"/><path class="cls-9" d="M844.8,146.39c-4.85,0-6.89-3.39-6.89-6.75V114.16h5.89v25.12c0,1.41.59,2.13,2.08,2.13h2.27v5Z" transform="translate(708.84)"/><path class="cls-10" d="M752.71,181.82c-.58,2.92-1.36,5.3-2.89,6.83a5.9,5.9,0,0,1-4.48,1.76,4.28,4.28,0,0,1-4.14-2.31l-1.94,9.54h-2.37l4.82-24.17h2.34l-.41,2a5.52,5.52,0,0,1,4.66-2.17c3.59,0,4.78,2.37,4.78,5.23A16.79,16.79,0,0,1,752.71,181.82Zm-5-6.45c-3.39,0-4.61,3-5.26,6.45a17,17,0,0,0-.37,3c0,1.84.68,3.47,3,3.47,3.4,0,4.58-3,5.23-6.49a17,17,0,0,0,.37-3C750.67,177,750,175.37,747.68,175.37Z" transform="translate(708.84)"/><path class="cls-10" d="M769.48,193.4a12.71,12.71,0,0,1-2.44-2.92,7.07,7.07,0,0,1-.72-3.5V169.26a7,7,0,0,1,.72-3.5,13.12,13.12,0,0,1,2.44-2.92l1.73,1.74a7.48,7.48,0,0,0-1.86,2.2,5.5,5.5,0,0,0-.48,2.68v17.32a5.46,5.46,0,0,0,.48,2.68,8,8,0,0,0,1.86,2.21Z" transform="translate(708.84)"/><path class="cls-10" d="M795,190.21V171.84l-6.63,14.57h-2.2l-6.72-14.57v18.37h-2.58V166h2.58l7.87,17.14L795,166h2.58v24.17Z" transform="translate(708.84)"/><path class="cls-10" d="M812.35,166.08h-3.86l-2.58,12.82h-1.42l2.57-12.82h-3.88l.26-1.27h9.16Z" transform="translate(708.84)"/><path class="cls-10" d="M832,190.21l-4-6.49-4.07,6.49h-3l5.67-8.52-5.43-8.19h3l3.84,6.18,3.77-6.18h2.95l-5.43,8.19,5.67,8.52Z" transform="translate(708.84)"/><path class="cls-10" d="M838.09,191.67a8.06,8.06,0,0,0,1.87-2.21,5.46,5.46,0,0,0,.48-2.68V169.46a5.62,5.62,0,0,0-.48-2.68,7.53,7.53,0,0,0-1.87-2.2l1.73-1.74a12.93,12.93,0,0,1,2.45,2.92,7,7,0,0,1,.71,3.5V187a7.06,7.06,0,0,1-.71,3.5,12.78,12.78,0,0,1-2.45,2.92Z" transform="translate(708.84)"/><path class="cls-11" d="M479.24,388.12c-3.67,0-6.93-.41-9.93-3.36l3.8-3.8a8.37,8.37,0,0,0,6.21,2.19c2,0,4.12-.67,4.12-2.41,0-1.16-.58-2-2.46-2.15l-3.76-.35c-4.11-.41-6.7-2.24-6.7-6.53,0-4.87,4.24-7.42,9-7.42,3.67,0,6.66.67,8.9,2.72l-3.58,3.63a8,8,0,0,0-5.41-1.57c-2.32,0-3.3,1.07-3.3,2.24s.67,1.83,2.41,2l3.67.36c4.6.44,6.92,2.86,6.92,6.84C489.11,385.66,484.73,388.12,479.24,388.12Z" transform="translate(708.84)"/><path class="cls-11" d="M507.4,387.85V385.7a8,8,0,0,1-5.81,2.42,7.53,7.53,0,0,1-5.5-2.06c-1.88-1.88-2.37-4.07-2.37-6.62V364.56h5.81v14.08c0,3.17,2,4.25,3.85,4.25s3.89-1.08,3.89-4.25V364.56h5.81v23.29Z" transform="translate(708.84)"/><path class="cls-11" d="M536.68,386a7.79,7.79,0,0,1-5.63,2.1,7,7,0,0,1-5.81-2.46v2.19H519.6V356h5.82v10.59a6.81,6.81,0,0,1,5.63-2.32,7.73,7.73,0,0,1,5.63,2.1c2.24,2.28,2.42,5.9,2.42,9.79S538.92,383.74,536.68,386Zm-7.33-16.5c-3.49,0-3.93,2.9-3.93,6.66s.44,6.71,3.93,6.71,3.93-2.95,3.93-6.71S532.84,369.52,529.35,369.52Z" transform="translate(708.84)"/><path class="cls-11" d="M552.29,388.12c-3.67,0-6.93-.41-9.93-3.36l3.8-3.8a8.37,8.37,0,0,0,6.21,2.19c2,0,4.12-.67,4.12-2.41,0-1.16-.58-2-2.46-2.15l-3.76-.35c-4.11-.41-6.7-2.24-6.7-6.53,0-4.87,4.25-7.42,9-7.42,3.67,0,6.67.67,8.9,2.72l-3.58,3.63a8,8,0,0,0-5.41-1.57c-2.32,0-3.3,1.07-3.3,2.24s.67,1.83,2.41,2l3.67.36c4.6.44,6.93,2.86,6.93,6.84C562.17,385.66,557.78,388.12,552.29,388.12Z" transform="translate(708.84)"/><path class="cls-11" d="M584.12,386a7.83,7.83,0,0,1-5.64,2.1,6.82,6.82,0,0,1-5.63-2.33v10.6H567V364.56h5.63v2.19a7,7,0,0,1,5.81-2.46,7.83,7.83,0,0,1,5.64,2.1c2.23,2.28,2.41,5.9,2.41,9.79S586.35,383.74,584.12,386Zm-7.34-16.5c-3.48,0-3.93,2.9-3.93,6.66s.45,6.71,3.93,6.71,3.94-2.95,3.94-6.71S580.27,369.52,576.78,369.52Z" transform="translate(708.84)"/><path class="cls-11" d="M604,387.85v-2a7.08,7.08,0,0,1-5.72,2.23,8.06,8.06,0,0,1-5.95-2.05,7.49,7.49,0,0,1-1.92-5.23c0-3.72,2.55-6.76,8.05-6.76h5.41v-1.16c0-2.55-1.26-3.66-4.34-3.66a5.15,5.15,0,0,0-4.47,2l-3.67-3.62c2.28-2.51,4.47-3.31,8.36-3.31,6.58,0,9.93,2.77,9.93,8.22v15.34Zm-.13-9.84h-4.43c-2.32,0-3.44.94-3.44,2.69s1.12,2.63,3.53,2.63a4.44,4.44,0,0,0,3.44-1.11c.67-.59.9-1.48.9-3Z" transform="translate(708.84)"/><path class="cls-11" d="M625.2,388.12c-4.65,0-10.42-2.51-10.42-11.94s5.77-11.89,10.42-11.89a9.91,9.91,0,0,1,7.69,3.13L629,371.35a4.7,4.7,0,0,0-3.76-1.83,4,4,0,0,0-3.31,1.52c-.89,1.12-1.29,2.68-1.29,5.14s.4,4.07,1.29,5.19a4.07,4.07,0,0,0,3.31,1.52,4.71,4.71,0,0,0,3.76-1.84l3.93,3.89A10,10,0,0,1,625.2,388.12Z" transform="translate(708.84)"/><path class="cls-11" d="M641.3,378c0,3,1.78,5.19,5.09,5.19a6.6,6.6,0,0,0,5.28-2.19l3.53,3.44a10.94,10.94,0,0,1-8.85,3.67c-5.5,0-10.78-2.51-10.78-11.94,0-7.6,4.12-11.89,10.15-11.89,6.48,0,10.15,4.65,10.15,11.26V378Zm8.31-6.48a4.34,4.34,0,0,0-7.78,0,5.69,5.69,0,0,0-.53,2.5h8.85A5.84,5.84,0,0,0,649.61,371.53Z" transform="translate(708.84)"/><path class="cls-12" d="M127.45,29.09v-2A6.71,6.71,0,0,1,122,29.34a7.56,7.56,0,0,1-5.38-1.92c-2.12-2.09-2.29-5.39-2.29-9s.17-6.87,2.29-8.95a7.45,7.45,0,0,1,5.33-1.92,6.73,6.73,0,0,1,5.38,2.12V0h5.51V29.09Zm-3.9-16.75c-3.3,0-3.72,2.66-3.72,6.09s.42,6.13,3.72,6.13,3.77-2.7,3.77-6.13S126.86,12.34,123.55,12.34Z" transform="translate(708.84)"/><path class="cls-12" d="M150.33,29.09V27.26a6.86,6.86,0,0,1-5.43,2,7.77,7.77,0,0,1-5.63-1.88,6.67,6.67,0,0,1-1.82-4.78c0-3.39,2.41-6.17,7.62-6.17h5.13V15.41c0-2.33-1.19-3.36-4.11-3.36a5,5,0,0,0-4.24,1.84l-3.47-3.31c2.16-2.28,4.24-3,7.92-3,6.23,0,9.4,2.53,9.4,7.52v14Zm-.13-9H146c-2.2,0-3.26.86-3.26,2.46S143.8,25,146.09,25a4.32,4.32,0,0,0,3.26-1c.64-.53.85-1.35.85-2.7Z" transform="translate(708.84)"/><path class="cls-12" d="M168.54,29.09c-4.49,0-6.4-3.06-6.4-6.08V12.46h-2.33v-4h2.33V2.12h5.51v6.3h3.9v4h-3.9V22.68a1.69,1.69,0,0,0,1.91,1.92h2v4.49Z" transform="translate(708.84)"/><path class="cls-12" d="M187.64,29.09V27.26a6.83,6.83,0,0,1-5.42,2,7.77,7.77,0,0,1-5.63-1.88,6.67,6.67,0,0,1-1.82-4.78c0-3.39,2.41-6.17,7.62-6.17h5.13V15.41c0-2.33-1.19-3.36-4.11-3.36a5,5,0,0,0-4.24,1.84l-3.47-3.31c2.16-2.28,4.24-3,7.92-3,6.23,0,9.4,2.53,9.4,7.52v14Zm-.12-9h-4.2c-2.2,0-3.26.86-3.26,2.46S181.12,25,183.41,25a4.32,4.32,0,0,0,3.26-1c.64-.53.85-1.35.85-2.7Z" transform="translate(708.84)"/><path class="cls-12" d="M162.28,46.26h-1.15a2.36,2.36,0,0,0-2.48,2.15l-.57,2.79h3.24L161,52.82h-3.24L154.94,66.3h-2.23l2.8-13.48h-1.87L154,51.2h1.88l.6-2.91A4.33,4.33,0,0,1,161,44.43h1.69Z" transform="translate(708.84)"/><path class="cls-12" d="M174.38,69.18a11.5,11.5,0,0,1-2.29-2.63,6.18,6.18,0,0,1-.66-3.16v-16a6.11,6.11,0,0,1,.66-3.16,11.61,11.61,0,0,1,2.29-2.63L176,43.17a7.16,7.16,0,0,0-1.75,2,4.88,4.88,0,0,0-.44,2.42V63.21a4.84,4.84,0,0,0,.44,2.42,7.89,7.89,0,0,0,1.75,2Z" transform="translate(708.84)"/><path class="cls-12" d="M189.34,66.3l-3.74-5.85-3.82,5.85H179l5.3-7.69-5.08-7.38H182l3.59,5.57,3.52-5.57h2.77l-5.09,7.38,5.31,7.69Z" transform="translate(708.84)"/><path class="cls-12" d="M195.1,67.62a7.63,7.63,0,0,0,1.74-2,4.84,4.84,0,0,0,.45-2.42V47.58a4.87,4.87,0,0,0-.45-2.42,7.11,7.11,0,0,0-1.74-2l1.62-1.56A11.54,11.54,0,0,1,199,44.24a6.12,6.12,0,0,1,.67,3.16v16a6.19,6.19,0,0,1-.67,3.16,11.42,11.42,0,0,1-2.28,2.63Z" transform="translate(708.84)"/></g></g></svg>