<svg xmlns="http://www.w3.org/2000/svg" xmlns:xlink="http://www.w3.org/1999/xlink" viewBox="0 0 972.8 972.73"><defs><style>.cls-1{fill:none;}.cls-2{isolation:isolate;}.cls-3{fill:url(#linear-gradient);}.cls-4{fill:url(#linear-gradient-2);}.cls-5{fill:url(#linear-gradient-3);}.cls-6{fill:url(#linear-gradient-4);}.cls-7{fill:url(#linear-gradient-5);}.cls-8{fill:url(#linear-gradient-6);}.cls-9{fill:url(#linear-gradient-7);}.cls-10{fill:url(#linear-gradient-8);}.cls-11{opacity:0.28;mix-blend-mode:screen;}.cls-12,.cls-13{fill:#e6e6e6;}.cls-12{mix-blend-mode:multiply;}.cls-14{fill:#0284a8;}.cls-15{fill:#0ba0a0;}.cls-16{fill:#a9e8dc;}.cls-17{fill:#02bec4;}.cls-18{clip-path:url(#clip-path);}.cls-19{fill:url(#linear-gradient-9);}.cls-20{fill:url(#linear-gradient-10);}.cls-21{fill:url(#linear-gradient-11);}.cls-22{fill:url(#linear-gradient-12);}.cls-23{fill:url(#linear-gradient-13);}.cls-24{fill:url(#linear-gradient-14);}.cls-25{fill:url(#linear-gradient-15);}.cls-26{fill:url(#linear-gradient-16);}.cls-27{fill:url(#linear-gradient-17);}.cls-28{fill:url(#linear-gradient-18);}.cls-29{fill:url(#linear-gradient-19);}.cls-30{fill:url(#linear-gradient-20);}.cls-31{fill:url(#linear-gradient-21);}.cls-32{fill:url(#linear-gradient-22);}.cls-33{fill:url(#linear-gradient-23);}.cls-34{fill:url(#linear-gradient-24);}.cls-35{fill:url(#linear-gradient-25);}.cls-36{fill:url(#linear-gradient-26);}.cls-37{fill:url(#linear-gradient-27);}.cls-38{fill:url(#linear-gradient-28);}.cls-39{fill:url(#linear-gradient-29);}.cls-40{fill:url(#linear-gradient-30);}.cls-41{fill:url(#linear-gradient-31);}.cls-42{fill:url(#linear-gradient-32);}.cls-43{fill:url(#linear-gradient-33);}.cls-44{fill:url(#linear-gradient-34);}.cls-45{fill:url(#linear-gradient-35);}.cls-46{fill:url(#linear-gradient-36);}.cls-47{fill:url(#linear-gradient-37);}.cls-48{fill:url(#linear-gradient-38);}.cls-49{fill:url(#linear-gradient-39);}.cls-50{fill:url(#linear-gradient-40);}</style><linearGradient id="linear-gradient" x1="408.83" y1="1074.49" x2="83.07" y2="64.44" gradientUnits="userSpaceOnUse"><stop offset="0.03" stop-color="#02bec4"/><stop offset="0.36" stop-color="#a9e8dc"/></linearGradient><linearGradient id="linear-gradient-2" x1="714.96" y1="963.49" x2="128.51" y2="329.36" gradientUnits="userSpaceOnUse"><stop offset="0" stop-color="#254b8e"/><stop offset="0.35" stop-color="#02bec4"/></linearGradient><linearGradient id="linear-gradient-3" x1="961.7" y1="767.3" x2="241.13" y2="-11.85" gradientUnits="userSpaceOnUse"><stop offset="0.53" stop-color="#254b8e"/><stop offset="0.85" stop-color="#02bec4"/></linearGradient><linearGradient id="linear-gradient-4" x1="644.43" y1="693.17" x2="1196.89" y2="544.5" gradientUnits="userSpaceOnUse"><stop offset="0" stop-color="#02bec4"/><stop offset="0.49" stop-color="#a9e8dc"/></linearGradient><linearGradient id="linear-gradient-5" x1="1072.4" y1="632.93" x2="351.82" y2="-146.23" gradientUnits="userSpaceOnUse"><stop offset="0.21" stop-color="#88e0d7"/><stop offset="0.6" stop-color="#f0f7fc"/></linearGradient><linearGradient id="linear-gradient-6" x1="571.37" y1="547.26" x2="762.31" y2="-496.7" gradientUnits="userSpaceOnUse"><stop offset="0.13" stop-color="#02bec4"/><stop offset="0.58" stop-color="#a9e8dc"/></linearGradient><linearGradient id="linear-gradient-7" x1="695.42" y1="981.56" x2="-25.15" y2="202.4" gradientUnits="userSpaceOnUse"><stop offset="0.03" stop-color="#02bec4"/><stop offset="1" stop-color="#a9e8dc"/></linearGradient><linearGradient id="linear-gradient-8" x1="588.17" y1="1080.75" x2="-132.4" y2="301.59" gradientUnits="userSpaceOnUse"><stop offset="0.21" stop-color="#88e0d7"/><stop offset="0.89" stop-color="#f0f7fc"/></linearGradient><clipPath id="clip-path"><path class="cls-1" d="M387.3,434.62s9.8-32.36,67.45-37.94c18.85-1.83,45.36-13.39,45.36-13.39-1.61-.42,6.31-.76,35.82,6.74,26.35,6.7,37.93,21.4,51.57,33.46-4.15,2.95-36,26.58-86.16,21-36.61-4.08-42.72,39-42.72,39S423.94,430.47,387.3,434.62Z"/></clipPath><linearGradient id="linear-gradient-9" x1="547.98" y1="392.55" x2="377.48" y2="412.97" gradientUnits="userSpaceOnUse"><stop offset="0.2" stop-color="#0c2c5b"/><stop offset="0.42" stop-color="#02bec4"/><stop offset="0.71" stop-color="#cafffc"/></linearGradient><linearGradient id="linear-gradient-10" x1="1199.95" y1="249.29" x2="479.59" y2="193.31" gradientTransform="matrix(1, 0.01, -0.01, 1, -16.79, 100.11)" gradientUnits="userSpaceOnUse"><stop offset="0" stop-color="#023859"/><stop offset="0.19" stop-color="#025373"/><stop offset="0.62" stop-color="#60bfbf"/><stop offset="0.9" stop-color="#bad9d9"/></linearGradient><linearGradient id="linear-gradient-11" x1="-757.2" y1="427.79" x2="-994.2" y2="409.38" gradientTransform="matrix(1.15, -0.04, 0.04, 1.13, 1464.98, -38.23)" xlink:href="#linear-gradient-10"/><linearGradient id="linear-gradient-12" x1="394.41" y1="330.08" x2="167.18" y2="312.42" xlink:href="#linear-gradient-10"/><linearGradient id="linear-gradient-13" x1="644.35" y1="354.2" x2="397.51" y2="335.01" xlink:href="#linear-gradient-10"/><linearGradient id="linear-gradient-14" x1="711.69" y1="437.12" x2="464.84" y2="417.94" xlink:href="#linear-gradient-10"/><linearGradient id="linear-gradient-15" x1="615.3" y1="346.66" x2="388.07" y2="329" xlink:href="#linear-gradient-10"/><linearGradient id="linear-gradient-16" x1="644.76" y1="348.95" x2="397.91" y2="329.76" xlink:href="#linear-gradient-10"/><linearGradient id="linear-gradient-17" x1="188.36" y1="924.94" x2="-95.32" y2="902.9" gradientTransform="matrix(1, -0.04, 0.04, 1, 115.8, -326.16)" xlink:href="#linear-gradient-10"/><linearGradient id="linear-gradient-18" x1="-1258.68" y1="770.3" x2="-1549.88" y2="747.67" gradientTransform="matrix(1.23, -0.04, 0.04, 1, 2157.32, -400.96)" gradientUnits="userSpaceOnUse"><stop offset="0.25" stop-color="#254b8e"/><stop offset="0.56" stop-color="#02bec4"/><stop offset="0.76" stop-color="#cafffc"/></linearGradient><linearGradient id="linear-gradient-19" x1="383.18" y1="295.55" x2="136.33" y2="276.36" xlink:href="#linear-gradient-10"/><linearGradient id="linear-gradient-20" x1="666.92" y1="514.76" x2="420.07" y2="495.57" xlink:href="#linear-gradient-10"/><linearGradient id="linear-gradient-21" x1="677.89" y1="371.6" x2="372.75" y2="347.89" xlink:href="#linear-gradient-10"/><linearGradient id="linear-gradient-22" x1="590.36" y1="369.38" x2="357.64" y2="351.29" xlink:href="#linear-gradient-10"/><linearGradient id="linear-gradient-23" x1="675.88" y1="376.02" x2="372.98" y2="352.48" xlink:href="#linear-gradient-10"/><linearGradient id="linear-gradient-24" x1="696" y1="377.59" x2="393.1" y2="354.05" xlink:href="#linear-gradient-10"/><linearGradient id="linear-gradient-25" x1="-1230.98" y1="804.64" x2="-1559.55" y2="779.11" gradientTransform="matrix(1.21, -0.04, 0.04, 1, 2118.17, -399.53)" gradientUnits="userSpaceOnUse"><stop offset="0.12" stop-color="#254b8e"/><stop offset="0.5" stop-color="#02bec4"/><stop offset="0.84" stop-color="#a9e8dc"/></linearGradient><linearGradient id="linear-gradient-26" x1="-1387.39" y1="832.76" x2="-1715.96" y2="807.22" gradientTransform="matrix(1.25, -0.05, 0.04, 1, 2416.26, -410.45)" gradientUnits="userSpaceOnUse"><stop offset="0.39" stop-color="#254b8e"/><stop offset="0.58" stop-color="#02bec4"/><stop offset="0.76" stop-color="#cafffc"/></linearGradient><linearGradient id="linear-gradient-27" x1="254.06" y1="948.86" x2="-54.53" y2="924.88" gradientTransform="matrix(1, -0.04, 0.04, 1, 115.8, -326.16)" xlink:href="#linear-gradient-10"/><linearGradient id="linear-gradient-28" x1="396.19" y1="1068.65" x2="112.08" y2="1046.57" gradientTransform="matrix(1, -0.04, 0.04, 1, 115.8, -326.16)" xlink:href="#linear-gradient-10"/><linearGradient id="linear-gradient-29" x1="669.56" y1="688.05" x2="360.92" y2="664.07" gradientTransform="matrix(1, -0.04, 0.04, 1, 115.8, -326.16)" xlink:href="#linear-gradient-10"/><linearGradient id="linear-gradient-30" x1="607.79" y1="-555.42" x2="360.94" y2="-574.6" gradientTransform="translate(-336.99 925.43) rotate(6.43)" gradientUnits="userSpaceOnUse"><stop offset="0" stop-color="#025373"/><stop offset="0.32" stop-color="#60bfbf"/><stop offset="0.69" stop-color="#dff2f2"/><stop offset="1" stop-color="#fff"/></linearGradient><linearGradient id="linear-gradient-31" x1="683.72" y1="415.64" x2="456.48" y2="397.98" xlink:href="#linear-gradient-10"/><linearGradient id="linear-gradient-32" x1="742.97" y1="420.25" x2="496.12" y2="401.06" xlink:href="#linear-gradient-10"/><linearGradient id="linear-gradient-33" x1="623.24" y1="307.96" x2="334.74" y2="375.31" gradientTransform="matrix(1, 0.01, -0.01, 1, -16.79, 100.11)" gradientUnits="userSpaceOnUse"><stop offset="0.16" stop-color="#0c2c5b"/><stop offset="0.37" stop-color="#02bec4"/><stop offset="0.71" stop-color="#cafffc"/></linearGradient><linearGradient id="linear-gradient-34" x1="608.1" y1="-481.66" x2="361.25" y2="-500.84" gradientTransform="translate(-309.89 843.66) rotate(5.78)" gradientUnits="userSpaceOnUse"><stop offset="0" stop-color="#025373"/><stop offset="0.82" stop-color="#0aa6a6"/></linearGradient><linearGradient id="linear-gradient-35" x1="591.23" y1="371.34" x2="356.79" y2="353.12" xlink:href="#linear-gradient-10"/><linearGradient id="linear-gradient-36" x1="677.38" y1="378.04" x2="372.25" y2="354.33" xlink:href="#linear-gradient-10"/><linearGradient id="linear-gradient-37" x1="697.65" y1="379.61" x2="392.52" y2="355.9" xlink:href="#linear-gradient-10"/><linearGradient id="linear-gradient-38" x1="714.21" y1="380.9" x2="409.07" y2="357.19" xlink:href="#linear-gradient-10"/><linearGradient id="linear-gradient-39" x1="594.3" y1="370.41" x2="354.91" y2="351.8" xlink:href="#linear-gradient-10"/><linearGradient id="linear-gradient-40" x1="645.09" y1="374.35" x2="358.27" y2="352.06" xlink:href="#linear-gradient-10"/></defs><title>Equadratures Graph 01</title><g class="cls-2"><g id="Layer_2" data-name="Layer 2"><g id="Layer_1-2" data-name="Layer 1"><path class="cls-3" d="M334.13,652.32,149.31,837.14A484.83,484.83,0,0,0,474.67,972.73V711.31A224.41,224.41,0,0,1,334.13,652.32Z"/><path class="cls-4" d="M498.13,711.31V972.73A484.81,484.81,0,0,0,823.49,837.14L638.67,652.32A224.41,224.41,0,0,1,498.13,711.31Z"/><path class="cls-5" d="M474.67,261.42V0A484.69,484.69,0,0,0,152.28,132.76L337.2,317.68A224.27,224.27,0,0,1,474.67,261.42Z"/><path class="cls-6" d="M711.43,495.2a224.29,224.29,0,0,1-56.34,140.36L840,820.48A484.7,484.7,0,0,0,972.8,495.2Z"/><path class="cls-7" d="M711.12,471.73H972.68a484.77,484.77,0,0,0-135.5-322.45L652.36,334.1A224.3,224.3,0,0,1,711.12,471.73Z"/><path class="cls-8" d="M635.6,317.68,820.52,132.76A484.69,484.69,0,0,0,498.13,0V261.42A224.25,224.25,0,0,1,635.6,317.68Z"/><path class="cls-9" d="M320.44,334.1,135.62,149.28A484.71,484.71,0,0,0,.13,471.73H261.68A224.27,224.27,0,0,1,320.44,334.1Z"/><path class="cls-10" d="M261.38,495.2H0A484.75,484.75,0,0,0,132.79,820.49L317.72,635.56A224.18,224.18,0,0,1,261.38,495.2Z"/><g class="cls-11"><path class="cls-12" d="M334.13,651.58l-33.26,33.27a271.27,271.27,0,0,0,173.8,72.76v-47A224.35,224.35,0,0,1,334.13,651.58Z"/><path class="cls-12" d="M498.13,710.57v47a271.27,271.27,0,0,0,173.8-72.76l-33.26-33.27A224.35,224.35,0,0,1,498.13,710.57Z"/><path class="cls-12" d="M474.67,260.68v-47a271.12,271.12,0,0,0-170.78,70l33.31,33.32A224.33,224.33,0,0,1,474.67,260.68Z"/><path class="cls-13" d="M655.09,634.83l33.31,33.31a271.15,271.15,0,0,0,70.09-173.68H711.43A224.34,224.34,0,0,1,655.09,634.83Z"/><path class="cls-12" d="M711.12,471h47.14a271.19,271.19,0,0,0-72.64-170.9l-33.26,33.26A224.33,224.33,0,0,1,711.12,471Z"/><path class="cls-13" d="M635.6,316.94l33.32-33.31a271.13,271.13,0,0,0-170.79-70v47A224.3,224.3,0,0,1,635.6,316.94Z"/><path class="cls-12" d="M320.44,333.36,287.18,300.1A271.25,271.25,0,0,0,214.54,471h47.14A224.33,224.33,0,0,1,320.44,333.36Z"/><path class="cls-12" d="M261.38,494.46H214.31A271.15,271.15,0,0,0,284.4,668.14l33.32-33.31A224.23,224.23,0,0,1,261.38,494.46Z"/></g><path class="cls-14" d="M268.5,820.29V809.84c0-2.35-1.5-3.15-2.85-3.15a2.81,2.81,0,0,0-2.89,3.15v10.45h-4.31V803h4.21v1.59a5.93,5.93,0,0,1,4.31-1.79,5.61,5.61,0,0,1,4.08,1.53,6.42,6.42,0,0,1,1.76,4.91v11Z"/><path class="cls-14" d="M287.4,820.29V818.7a5.93,5.93,0,0,1-4.31,1.79A5.61,5.61,0,0,1,279,819a6.42,6.42,0,0,1-1.76-4.91V803h4.31v10.45c0,2.35,1.49,3.15,2.85,3.15a2.81,2.81,0,0,0,2.89-3.15V803h4.31v17.28Z"/><path class="cls-14" d="M316.54,820.29V809.84c0-2.35-1.49-3.15-2.85-3.15a2.79,2.79,0,0,0-2.89,3v10.55h-4.31V809.84c0-2.35-1.49-3.15-2.85-3.15a2.8,2.8,0,0,0-2.88,3.15v10.45h-4.31V803h4.21v1.59a6.05,6.05,0,0,1,4.31-1.79,5.35,5.35,0,0,1,4.57,2.19,6.62,6.62,0,0,1,5.18-2.19,6,6,0,0,1,4.24,1.53,6.52,6.52,0,0,1,1.89,4.91v11Z"/><path class="cls-14" d="M328.87,813a3.54,3.54,0,0,0,3.78,3.85,4.88,4.88,0,0,0,3.92-1.63l2.62,2.56a8.13,8.13,0,0,1-6.57,2.72c-4.08,0-8-1.86-8-8.86,0-5.63,3.05-8.82,7.53-8.82,4.8,0,7.52,3.45,7.52,8.36V813Zm6.17-4.81a3.22,3.22,0,0,0-5.77,0,4.34,4.34,0,0,0-.4,1.86h6.57A4.19,4.19,0,0,0,335,808.18Z"/><path class="cls-14" d="M353,807.72a2.88,2.88,0,0,0-5.07,2.16v10.41h-4.31V803h4.21v1.66a5.84,5.84,0,0,1,4.35-1.86,5.17,5.17,0,0,1,4.07,1.63Z"/><path class="cls-14" d="M358.68,800.06v-3.51h4.41v3.51Zm.07,20.23V803.51h4.31v16.78Z"/><path class="cls-14" d="M374.73,820.49c-3.45,0-7.73-1.86-7.73-8.86s4.28-8.82,7.73-8.82a7.34,7.34,0,0,1,5.7,2.32l-2.92,2.92a3.47,3.47,0,0,0-2.78-1.36,3,3,0,0,0-2.45,1.13,5.81,5.81,0,0,0-1,3.81,5.92,5.92,0,0,0,1,3.85,3,3,0,0,0,2.45,1.13,3.47,3.47,0,0,0,2.78-1.36l2.92,2.88A7.37,7.37,0,0,1,374.73,820.49Z"/><path class="cls-14" d="M392.47,820.29V818.8a5.26,5.26,0,0,1-4.25,1.65,6,6,0,0,1-4.41-1.52,5.58,5.58,0,0,1-1.42-3.88c0-2.75,1.89-5,6-5h4v-.86c0-1.89-.93-2.72-3.22-2.72a3.8,3.8,0,0,0-3.31,1.49l-2.72-2.68c1.69-1.86,3.31-2.46,6.2-2.46,4.87,0,7.36,2.06,7.36,6.1v11.38Zm-.1-7.3h-3.28c-1.73,0-2.56.7-2.56,2s.83,2,2.62,2a3.29,3.29,0,0,0,2.56-.83,2.71,2.71,0,0,0,.66-2.19Z"/><path class="cls-14" d="M406.2,820.29a4.69,4.69,0,0,1-5-4.94V796.68h4.31v18.4c0,1,.43,1.56,1.52,1.56h1.66v3.65Z"/><path class="cls-14" d="M417.77,820.49c-2.72,0-5.14-.3-7.36-2.49l2.81-2.82a6.24,6.24,0,0,0,4.61,1.63c1.49,0,3.05-.5,3.05-1.8,0-.86-.43-1.45-1.82-1.59l-2.79-.26c-3-.3-5-1.66-5-4.84,0-3.62,3.15-5.51,6.66-5.51,2.72,0,5,.5,6.6,2l-2.65,2.68a6,6,0,0,0-4-1.16c-1.73,0-2.45.8-2.45,1.66s.49,1.36,1.79,1.49l2.71.27c3.42.33,5.14,2.12,5.14,5.07C425.09,818.66,421.84,820.49,417.77,820.49Z"/><path class="cls-14" d="M258.38,830.42v-3.51h4.41v3.51Zm.07,20.23V833.87h4.31v16.78Z"/><path class="cls-14" d="M277.62,850.65V840.2c0-2.35-1.5-3.15-2.86-3.15a2.8,2.8,0,0,0-2.88,3.15v10.45h-4.31V833.37h4.21V835a5.93,5.93,0,0,1,4.31-1.79,5.63,5.63,0,0,1,4.08,1.53,6.39,6.39,0,0,1,1.76,4.9v11Z"/><path class="cls-14" d="M292,850.65a4.69,4.69,0,0,1-5-4.94v-8.56h-1.82v-3.28H287v-5.11h4.32v5.11h3.05v3.28h-3.05v8.29c0,1,.46,1.56,1.49,1.56h1.56v3.65Z"/><path class="cls-14" d="M301.46,843.35a3.53,3.53,0,0,0,3.77,3.85,4.91,4.91,0,0,0,3.92-1.63l2.62,2.56a8.13,8.13,0,0,1-6.57,2.71c-4.08,0-8-1.85-8-8.85,0-5.64,3.05-8.82,7.53-8.82,4.8,0,7.52,3.45,7.52,8.36v1.82Zm6.16-4.81a3.22,3.22,0,0,0-5.77,0,4.19,4.19,0,0,0-.39,1.86H308A4.19,4.19,0,0,0,307.62,838.54Z"/><path class="cls-14" d="M322.21,857.18a8.07,8.07,0,0,1-6.27-2.26l2.69-2.72a4.39,4.39,0,0,0,3.38,1.33,3.26,3.26,0,0,0,3.48-3.58v-1.76a5.05,5.05,0,0,1-4.11,1.73,5.75,5.75,0,0,1-4.11-1.53c-1.63-1.62-1.76-3.84-1.76-6.86s.13-5.21,1.76-6.83a5.83,5.83,0,0,1,4.14-1.53,5,5,0,0,1,4.21,1.83v-1.63h4.18V850C329.8,854.16,326.85,857.18,322.21,857.18Zm.43-20.13c-2.55,0-2.82,2.19-2.82,4.48s.27,4.51,2.82,4.51,2.85-2.22,2.85-4.51S325.19,837.05,322.64,837.05Z"/><path class="cls-14" d="M344,838.08a2.88,2.88,0,0,0-5.08,2.15v10.42h-4.31V833.37h4.21V835a5.84,5.84,0,0,1,4.35-1.86,5.21,5.21,0,0,1,4.08,1.63Z"/><path class="cls-14" d="M358.25,850.65v-1.5a5.24,5.24,0,0,1-4.24,1.66,6,6,0,0,1-4.41-1.52,5.56,5.56,0,0,1-1.43-3.88c0-2.76,1.89-5,6-5h4v-.86c0-1.89-.93-2.72-3.21-2.72a3.83,3.83,0,0,0-3.32,1.49l-2.72-2.68c1.69-1.86,3.32-2.46,6.2-2.46,4.88,0,7.36,2.06,7.36,6.1v11.38Zm-.1-7.3h-3.28c-1.73,0-2.55.7-2.55,2s.82,2,2.62,2a3.3,3.3,0,0,0,2.55-.83,2.67,2.67,0,0,0,.66-2.19Z"/><path class="cls-14" d="M372.51,850.65a4.69,4.69,0,0,1-5-4.94v-8.56h-1.82v-3.28h1.82v-5.11h4.31v5.11h3.05v3.28h-3.05v8.29A1.36,1.36,0,0,0,373.3,847h1.56v3.65Z"/><path class="cls-14" d="M378.71,830.42v-3.51h4.41v3.51Zm.06,20.23V833.87h4.31v16.78Z"/><path class="cls-14" d="M399.83,848.72a7.22,7.22,0,0,1-5.37,2.12,7.11,7.11,0,0,1-5.34-2.12c-1.56-1.66-2-3.61-2-6.73s.4-5,2-6.7a7.82,7.82,0,0,1,10.71,0c1.56,1.66,2,3.59,2,6.7S401.42,847.1,399.83,848.72Zm-3.35-10.91a2.75,2.75,0,0,0-2-.76,2.71,2.71,0,0,0-2,.76c-.9.87-1,2.42-1,4.18s.1,3.35,1,4.21a2.68,2.68,0,0,0,2,.76,2.71,2.71,0,0,0,2-.76c.89-.86,1-2.42,1-4.21S397.37,838.68,396.48,837.81Z"/><path class="cls-14" d="M415.94,850.65V840.2c0-2.35-1.49-3.15-2.85-3.15a2.8,2.8,0,0,0-2.88,3.15v10.45H405.9V833.37h4.21V835a5.92,5.92,0,0,1,4.31-1.79,5.64,5.64,0,0,1,4.08,1.53,6.39,6.39,0,0,1,1.75,4.9v11Z"/><path class="cls-15" d="M65.12,619a5.82,5.82,0,0,1-4.18,1.56,5.08,5.08,0,0,1-4.18-1.73v7.86H52.45V603.06h4.18v1.63a5.2,5.2,0,0,1,4.31-1.83,5.82,5.82,0,0,1,4.18,1.56c1.66,1.69,1.79,4.38,1.79,7.26S66.78,617.29,65.12,619Zm-5.44-12.24c-2.59,0-2.92,2.16-2.92,4.94s.33,5,2.92,5,2.92-2.19,2.92-5S62.27,606.74,59.68,606.74Z"/><path class="cls-15" d="M83,618.41a7.23,7.23,0,0,1-5.38,2.13,7.11,7.11,0,0,1-5.33-2.13c-1.56-1.66-2-3.61-2-6.73s.4-5,2-6.7A7.82,7.82,0,0,1,83,605c1.55,1.66,2,3.59,2,6.7S84.55,616.79,83,618.41ZM79.61,607.5a2.76,2.76,0,0,0-2-.76,2.71,2.71,0,0,0-2,.76c-.9.87-1,2.42-1,4.18s.1,3.35,1,4.21a2.67,2.67,0,0,0,2,.77,2.73,2.73,0,0,0,2-.77c.89-.86,1-2.42,1-4.21S80.5,608.37,79.61,607.5Z"/><path class="cls-15" d="M93.9,620.34a4.69,4.69,0,0,1-5-4.94V596.73h4.31v18.4c0,1,.43,1.56,1.52,1.56h1.66v3.65Z"/><path class="cls-15" d="M105.24,623.12a6.09,6.09,0,0,1-1.3,2.22,5,5,0,0,1-3.71,1.33H98.54v-3.88h1a1.86,1.86,0,0,0,2.15-1.56l.73-2.12-5.9-16.05h4.54l3.58,10.68,3.45-10.68h4.54Z"/><path class="cls-15" d="M125.23,620.34V609.89c0-2.35-1.49-3.15-2.85-3.15a2.81,2.81,0,0,0-2.89,3.15v10.45h-4.31V603.06h4.22v1.59a5.9,5.9,0,0,1,4.31-1.79,5.6,5.6,0,0,1,4.07,1.53,6.37,6.37,0,0,1,1.76,4.91v11Z"/><path class="cls-15" d="M146.12,618.41a7.2,7.2,0,0,1-5.37,2.13,7.13,7.13,0,0,1-5.34-2.13c-1.56-1.66-2-3.61-2-6.73s.4-5,2-6.7a7.16,7.16,0,0,1,5.34-2.12,7.09,7.09,0,0,1,5.37,2.12c1.56,1.66,2,3.59,2,6.7S147.71,616.79,146.12,618.41Zm-3.35-10.91a3,3,0,0,0-4,0c-.9.87-1,2.42-1,4.18s.1,3.35,1,4.21a3,3,0,0,0,4,0c.9-.86,1-2.42,1-4.21S143.67,608.37,142.77,607.5Z"/><path class="cls-15" d="M172.28,620.34V609.89c0-2.35-1.49-3.15-2.85-3.15a2.79,2.79,0,0,0-2.89,3v10.55h-4.31V609.89c0-2.35-1.49-3.15-2.85-3.15a2.8,2.8,0,0,0-2.88,3.15v10.45h-4.31V603.06h4.21v1.59a6.05,6.05,0,0,1,4.31-1.79,5.35,5.35,0,0,1,4.57,2.19,6.62,6.62,0,0,1,5.18-2.19,6,6,0,0,1,4.24,1.53,6.51,6.51,0,0,1,1.89,4.91v11Z"/><path class="cls-15" d="M181.17,600.11V596.6h4.41v3.51Zm.06,20.23V603.56h4.31v16.78Z"/><path class="cls-15" d="M199.2,620.34v-1.5A5.24,5.24,0,0,1,195,620.5a6,6,0,0,1-4.41-1.52,5.56,5.56,0,0,1-1.43-3.88c0-2.76,1.89-5,6-5h4v-.86c0-1.89-.93-2.72-3.21-2.72a3.83,3.83,0,0,0-3.32,1.49l-2.72-2.68c1.69-1.86,3.32-2.46,6.2-2.46,4.88,0,7.36,2.06,7.36,6.1v11.38Zm-.1-7.3h-3.28c-1.72,0-2.55.7-2.55,2s.83,2,2.62,2a3.3,3.3,0,0,0,2.55-.83,2.67,2.67,0,0,0,.66-2.19Z"/><path class="cls-15" d="M212.93,620.34a4.69,4.69,0,0,1-5-4.94V596.73h4.31v18.4c0,1,.43,1.56,1.53,1.56h1.65v3.65Z"/><path class="cls-15" d="M59.32,650.89c-3.45,0-7.73-1.85-7.73-8.85s4.28-8.82,7.73-8.82a7.37,7.37,0,0,1,5.7,2.32l-2.92,2.92a3.49,3.49,0,0,0-2.78-1.36,3,3,0,0,0-2.46,1.13,5.87,5.87,0,0,0-1,3.81,6,6,0,0,0,1,3.85A3,3,0,0,0,59.32,647a3.46,3.46,0,0,0,2.78-1.36L65,648.54A7.4,7.4,0,0,1,59.32,650.89Z"/><path class="cls-15" d="M78.41,650.69V640.25c0-2.35-1.49-3.15-2.85-3.15a2.8,2.8,0,0,0-2.88,3.15v10.44H68.37v-23.6h4.31V635a6,6,0,0,1,8.29-.26,6.39,6.39,0,0,1,1.75,4.9v11Z"/><path class="cls-15" d="M96.22,650.69V649.2A5.26,5.26,0,0,1,92,650.86a6,6,0,0,1-4.41-1.52,5.59,5.59,0,0,1-1.42-3.88c0-2.76,1.89-5,6-5h4v-.86c0-1.89-.93-2.72-3.22-2.72a3.81,3.81,0,0,0-3.31,1.49l-2.72-2.69c1.69-1.85,3.31-2.45,6.2-2.45,4.87,0,7.36,2.06,7.36,6.1v11.37Zm-.1-7.29H92.84c-1.73,0-2.56.7-2.56,2s.83,2,2.62,2a3.32,3.32,0,0,0,2.56-.83,2.71,2.71,0,0,0,.66-2.19Z"/><path class="cls-15" d="M117,648.77a7.22,7.22,0,0,1-5.37,2.12,7.11,7.11,0,0,1-5.34-2.12c-1.56-1.66-2-3.61-2-6.73s.4-5,2-6.7a7.82,7.82,0,0,1,10.71,0c1.56,1.66,1.95,3.58,1.95,6.7S118.6,647.15,117,648.77Zm-3.35-10.91a2.75,2.75,0,0,0-2-.76,2.71,2.71,0,0,0-2,.76c-.9.86-1,2.42-1,4.18s.1,3.35,1,4.21a2.68,2.68,0,0,0,2,.76,2.71,2.71,0,0,0,2-.76c.89-.86,1-2.42,1-4.21S114.55,638.72,113.66,637.86Z"/><path class="cls-15" d="M128.75,650.89c-2.72,0-5.14-.3-7.37-2.48l2.82-2.82a6.27,6.27,0,0,0,4.61,1.62c1.49,0,3.05-.49,3.05-1.79,0-.86-.43-1.46-1.82-1.59l-2.79-.26c-3-.3-5-1.66-5-4.85,0-3.61,3.15-5.5,6.66-5.5,2.72,0,4.94.5,6.6,2l-2.65,2.69a5.92,5.92,0,0,0-4-1.16c-1.73,0-2.46.79-2.46,1.66s.5,1.36,1.79,1.49l2.72.26c3.42.33,5.14,2.13,5.14,5.08C136.07,649.07,132.82,650.89,128.75,650.89Z"/><path class="cls-16" d="M556.94,820.49c-2.72,0-5.14-.3-7.36-2.49l2.82-2.82a6.21,6.21,0,0,0,4.61,1.63c1.49,0,3-.5,3-1.79,0-.87-.43-1.46-1.82-1.6l-2.79-.26c-3.05-.3-5-1.66-5-4.84,0-3.62,3.15-5.51,6.66-5.51,2.72,0,4.94.5,6.6,2l-2.65,2.68a6,6,0,0,0-4-1.16c-1.73,0-2.46.8-2.46,1.66s.5,1.36,1.79,1.49l2.72.27c3.42.33,5.14,2.12,5.14,5.07C564.27,818.66,561,820.49,556.94,820.49Z"/><path class="cls-16" d="M571.27,813a3.53,3.53,0,0,0,3.78,3.85,4.86,4.86,0,0,0,3.91-1.63l2.62,2.56a8.13,8.13,0,0,1-6.57,2.72c-4.08,0-8-1.86-8-8.86,0-5.63,3.05-8.82,7.53-8.82,4.81,0,7.53,3.45,7.53,8.36V813Zm6.16-4.8a3.22,3.22,0,0,0-5.77,0,4.29,4.29,0,0,0-.39,1.85h6.56A4.15,4.15,0,0,0,577.43,808.19Z"/><path class="cls-16" d="M596.1,820.29V809.84c0-2.35-1.49-3.15-2.85-3.15a2.81,2.81,0,0,0-2.89,3.15v10.45h-4.31V803h4.21v1.59a5.94,5.94,0,0,1,4.32-1.79,5.6,5.6,0,0,1,4.07,1.53,6.38,6.38,0,0,1,1.76,4.91v11Z"/><path class="cls-16" d="M610.72,820.49c-2.72,0-5.14-.3-7.36-2.49l2.82-2.82a6.21,6.21,0,0,0,4.61,1.63c1.49,0,3.05-.5,3.05-1.79,0-.87-.43-1.46-1.82-1.6l-2.79-.26c-3.05-.3-5-1.66-5-4.84,0-3.62,3.15-5.51,6.66-5.51,2.72,0,4.94.5,6.6,2l-2.65,2.68a6,6,0,0,0-4-1.16c-1.72,0-2.45.8-2.45,1.66s.5,1.36,1.79,1.49l2.72.27c3.42.33,5.14,2.12,5.14,5.07C618.05,818.66,614.8,820.49,610.72,820.49Z"/><path class="cls-16" d="M621.6,800.06v-3.51H626v3.51Zm.06,20.23V803.51H626v16.78Z"/><path class="cls-16" d="M636.19,820.29a4.69,4.69,0,0,1-5-4.94v-8.56h-1.82v-3.28h1.82V798.4h4.31v5.11h3v3.28h-3v8.29c0,1,.46,1.56,1.49,1.56h1.56v3.65Z"/><path class="cls-16" d="M642.39,800.06v-3.51h4.4v3.51Zm.06,20.23V803.51h4.31v16.78Z"/><path class="cls-16" d="M659,820.29h-3.38L649.28,803h4.54l3.52,10.68L660.82,803h4.54Z"/><path class="cls-16" d="M667.85,800.06v-3.51h4.41v3.51Zm.07,20.23V803.51h4.31v16.78Z"/><path class="cls-16" d="M682.44,820.29a4.69,4.69,0,0,1-5-4.94v-8.56h-1.82v-3.28h1.82V798.4h4.31v5.11h3v3.28h-3v8.29c0,1,.47,1.56,1.49,1.56h1.56v3.65Z"/><path class="cls-16" d="M695.14,823.07a6.28,6.28,0,0,1-1.3,2.23,5,5,0,0,1-3.71,1.32h-1.69v-3.88h1a1.87,1.87,0,0,0,2.16-1.56l.73-2.12-5.9-16H691l3.58,10.68L698,803h4.54Z"/><path class="cls-16" d="M560.13,850.65v-1.5a5.26,5.26,0,0,1-4.25,1.66,6,6,0,0,1-4.41-1.52,5.53,5.53,0,0,1-1.42-3.88c0-2.75,1.89-5,6-5h4v-.86c0-1.89-.93-2.72-3.22-2.72a3.83,3.83,0,0,0-3.32,1.49l-2.71-2.68c1.69-1.86,3.31-2.46,6.2-2.46,4.87,0,7.36,2.06,7.36,6.1v11.38Zm-.1-7.3h-3.29c-1.72,0-2.55.7-2.55,2s.83,2,2.62,2a3.26,3.26,0,0,0,2.55-.83,2.67,2.67,0,0,0,.67-2.19Z"/><path class="cls-16" d="M579,850.65V840.2c0-2.35-1.49-3.15-2.85-3.15a2.8,2.8,0,0,0-2.88,3.15v10.45H569V833.37h4.21V835a5.93,5.93,0,0,1,4.31-1.79,5.63,5.63,0,0,1,4.08,1.53,6.39,6.39,0,0,1,1.75,4.91v11Z"/><path class="cls-16" d="M596.83,850.65v-1.5a5.24,5.24,0,0,1-4.24,1.66,6,6,0,0,1-4.41-1.52,5.54,5.54,0,0,1-1.43-3.88c0-2.75,1.89-5,6-5h4v-.86c0-1.89-.93-2.72-3.22-2.72a3.82,3.82,0,0,0-3.31,1.49l-2.72-2.68c1.69-1.86,3.32-2.46,6.2-2.46,4.87,0,7.36,2.06,7.36,6.1v11.38Zm-.1-7.3h-3.28c-1.73,0-2.56.7-2.56,2s.83,2,2.62,2a3.27,3.27,0,0,0,2.56-.83,2.71,2.71,0,0,0,.66-2.19Z"/><path class="cls-16" d="M610.56,850.65a4.69,4.69,0,0,1-5-4.94V827h4.31v18.4c0,1,.43,1.56,1.52,1.56H613v3.65Z"/><path class="cls-16" d="M621.9,853.43a6.23,6.23,0,0,1-1.3,2.22,5,5,0,0,1-3.71,1.33H615.2V853.1h1a1.87,1.87,0,0,0,2.16-1.56l.73-2.12-5.9-16h4.54l3.58,10.68,3.45-10.68h4.54Z"/><path class="cls-16" d="M637.35,850.85c-2.72,0-5.14-.3-7.36-2.49l2.81-2.82a6.24,6.24,0,0,0,4.61,1.63c1.5,0,3.05-.5,3.05-1.8,0-.86-.43-1.45-1.82-1.59l-2.78-.26c-3.06-.3-5-1.66-5-4.84,0-3.62,3.15-5.51,6.67-5.51,2.71,0,4.94.5,6.59,2l-2.65,2.68a6,6,0,0,0-4-1.16c-1.72,0-2.45.8-2.45,1.66s.49,1.36,1.79,1.49l2.72.27c3.41.33,5.13,2.12,5.13,5.07C644.67,849,641.43,850.85,637.35,850.85Z"/><path class="cls-16" d="M648.22,830.42v-3.51h4.41v3.51Zm.07,20.23V833.87h4.31v16.78Z"/><path class="cls-16" d="M663.08,850.85c-2.72,0-5.14-.3-7.37-2.49l2.82-2.82a6.24,6.24,0,0,0,4.61,1.63c1.49,0,3.05-.5,3.05-1.8,0-.86-.43-1.45-1.82-1.59l-2.79-.26c-3.05-.3-5-1.66-5-4.84,0-3.62,3.15-5.51,6.66-5.51,2.72,0,4.94.5,6.6,2l-2.65,2.68a6,6,0,0,0-4-1.16c-1.73,0-2.46.8-2.46,1.66s.5,1.36,1.79,1.49l2.72.27c3.42.33,5.14,2.12,5.14,5.07C670.4,849,667.15,850.85,663.08,850.85Z"/><path class="cls-14" d="M770.12,620.34v-1.5a5.26,5.26,0,0,1-4.25,1.66,6,6,0,0,1-4.41-1.52A5.55,5.55,0,0,1,760,615.1c0-2.76,1.89-5,6-5h4v-.86c0-1.89-.93-2.72-3.22-2.72a3.83,3.83,0,0,0-3.32,1.49l-2.71-2.68c1.69-1.86,3.31-2.46,6.2-2.46,4.87,0,7.36,2.06,7.36,6.1v11.38ZM770,613h-3.29c-1.72,0-2.55.7-2.55,2s.83,2,2.62,2a3.3,3.3,0,0,0,2.55-.83A2.67,2.67,0,0,0,770,614Z"/><path class="cls-14" d="M785.83,620.54c-3.45,0-7.72-1.86-7.72-8.86s4.27-8.82,7.72-8.82a7.38,7.38,0,0,1,5.71,2.32l-2.92,2.92a3.5,3.5,0,0,0-2.79-1.36,3,3,0,0,0-2.45,1.13,5.81,5.81,0,0,0-1,3.81,5.92,5.92,0,0,0,1,3.85,3,3,0,0,0,2.45,1.13,3.5,3.5,0,0,0,2.79-1.36l2.92,2.88A7.41,7.41,0,0,1,785.83,620.54Z"/><path class="cls-14" d="M800.29,620.34a4.69,4.69,0,0,1-5-4.94v-8.56h-1.82v-3.28h1.82v-5.11h4.31v5.11h3v3.28h-3v8.29c0,1,.47,1.56,1.49,1.56h1.56v3.65Z"/><path class="cls-14" d="M806.49,600.11V596.6h4.41v3.51Zm.06,20.23V603.56h4.31v16.78Z"/><path class="cls-14" d="M823.13,620.34h-3.38l-6.37-17.28h4.55l3.51,10.68,3.48-10.68h4.55Z"/><path class="cls-14" d="M835.07,613a3.54,3.54,0,0,0,3.78,3.85,4.88,4.88,0,0,0,3.91-1.63l2.62,2.56a8.13,8.13,0,0,1-6.56,2.72c-4.08,0-8-1.86-8-8.86,0-5.63,3-8.82,7.52-8.82,4.81,0,7.53,3.45,7.53,8.36V613Zm6.17-4.81a3.22,3.22,0,0,0-5.77,0,4.19,4.19,0,0,0-.4,1.86h6.56A4.19,4.19,0,0,0,841.24,608.23Z"/><path class="cls-14" d="M766.93,650.89c-2.72,0-5.14-.3-7.36-2.48l2.82-2.82a6.24,6.24,0,0,0,4.61,1.62c1.49,0,3-.49,3-1.79,0-.86-.43-1.46-1.82-1.59l-2.79-.26c-3.05-.3-5-1.66-5-4.85,0-3.61,3.15-5.5,6.66-5.5,2.72,0,4.94.5,6.6,2l-2.65,2.69a5.93,5.93,0,0,0-4-1.16c-1.73,0-2.46.79-2.46,1.66s.5,1.36,1.79,1.49l2.72.26c3.42.33,5.14,2.13,5.14,5.08C774.26,649.07,771,650.89,766.93,650.89Z"/><path class="cls-14" d="M787.82,650.69V649.1a5.89,5.89,0,0,1-4.31,1.79,5.62,5.62,0,0,1-4.08-1.52,6.41,6.41,0,0,1-1.75-4.91v-11H782v10.44c0,2.36,1.49,3.15,2.85,3.15s2.88-.79,2.88-3.15V633.42H792v17.27Z"/><path class="cls-14" d="M809.54,649.34a5.81,5.81,0,0,1-4.18,1.55,5.19,5.19,0,0,1-4.31-1.82v1.62h-4.18v-23.6h4.31v7.85a5.07,5.07,0,0,1,4.18-1.72,5.72,5.72,0,0,1,4.18,1.56c1.66,1.69,1.79,4.38,1.79,7.26S811.2,647.64,809.54,649.34ZM804.1,637.1c-2.59,0-2.92,2.15-2.92,4.94s.33,5,2.92,5,2.92-2.18,2.92-5S806.69,637.1,804.1,637.1Z"/><path class="cls-14" d="M821.11,650.89c-2.72,0-5.14-.3-7.36-2.48l2.82-2.82a6.24,6.24,0,0,0,4.61,1.62c1.49,0,3.05-.49,3.05-1.79,0-.86-.43-1.46-1.83-1.59l-2.78-.26c-3-.3-5-1.66-5-4.85,0-3.61,3.14-5.5,6.66-5.5,2.72,0,4.94.5,6.6,2l-2.65,2.69a6,6,0,0,0-4-1.16c-1.72,0-2.45.79-2.45,1.66s.5,1.36,1.79,1.49l2.72.26c3.41.33,5.14,2.13,5.14,5.08C828.44,649.07,825.19,650.89,821.11,650.89Z"/><path class="cls-14" d="M844.72,649.34a5.81,5.81,0,0,1-4.18,1.55,5.07,5.07,0,0,1-4.18-1.72V657h-4.31V633.42h4.18V635a5.22,5.22,0,0,1,4.31-1.82,5.77,5.77,0,0,1,4.18,1.56c1.65,1.69,1.79,4.38,1.79,7.26S846.37,647.64,844.72,649.34Zm-5.44-12.24c-2.59,0-2.92,2.15-2.92,4.94s.33,5,2.92,5,2.92-2.18,2.92-5S841.87,637.1,839.28,637.1Z"/><path class="cls-14" d="M859.47,650.69V649.2a5.24,5.24,0,0,1-4.24,1.66,6,6,0,0,1-4.41-1.52,5.56,5.56,0,0,1-1.43-3.88c0-2.76,1.89-5,6-5h4v-.86c0-1.89-.93-2.72-3.21-2.72a3.83,3.83,0,0,0-3.32,1.49l-2.72-2.69c1.69-1.85,3.32-2.45,6.2-2.45,4.88,0,7.36,2.06,7.36,6.1v11.37Zm-.1-7.29h-3.28c-1.72,0-2.55.7-2.55,2s.83,2,2.62,2a3.3,3.3,0,0,0,2.55-.83,2.67,2.67,0,0,0,.66-2.19Z"/><path class="cls-14" d="M875.19,650.89c-3.45,0-7.73-1.85-7.73-8.85s4.28-8.82,7.73-8.82a7.34,7.34,0,0,1,5.7,2.32L878,638.46a3.47,3.47,0,0,0-2.78-1.36,3,3,0,0,0-2.46,1.13,5.87,5.87,0,0,0-1,3.81,6,6,0,0,0,1,3.85,3,3,0,0,0,2.46,1.12,3.44,3.44,0,0,0,2.78-1.36l2.92,2.89A7.37,7.37,0,0,1,875.19,650.89Z"/><path class="cls-14" d="M887.12,643.4a3.54,3.54,0,0,0,3.78,3.85,4.91,4.91,0,0,0,3.92-1.63l2.62,2.55a8.13,8.13,0,0,1-6.57,2.72c-4.08,0-8-1.85-8-8.85,0-5.64,3-8.82,7.53-8.82,4.8,0,7.52,3.45,7.52,8.36v1.82Zm6.17-4.81a3.22,3.22,0,0,0-5.77,0,4.34,4.34,0,0,0-.4,1.86h6.57A4.19,4.19,0,0,0,893.29,638.59Z"/><path class="cls-14" d="M51.78,331a2.87,2.87,0,0,0-5.05,2.15v10.36H42.44V326.27h4.19v1.65A5.84,5.84,0,0,1,51,326.07,5.19,5.19,0,0,1,55,327.69Z"/><path class="cls-14" d="M57.39,323.33v-3.5h4.39v3.5Zm.07,20.13v-16.7h4.29v16.7Z"/><path class="cls-14" d="M76,343.46v-1.62a5.15,5.15,0,0,1-4.26,1.82,5.77,5.77,0,0,1-4.19-1.55c-1.65-1.68-1.79-4.36-1.79-7.26s.14-5.55,1.79-7.23a5.69,5.69,0,0,1,4.16-1.55,5.18,5.18,0,0,1,4.19,1.71V320h4.29v23.5Zm-3-13.53c-2.58,0-2.91,2.15-2.91,4.92s.33,4.95,2.91,4.95,2.94-2.18,2.94-4.95S75.57,329.93,73,329.93Z"/><path class="cls-14" d="M91,350a8,8,0,0,1-6.23-2.24L87.42,345a4.36,4.36,0,0,0,3.37,1.32,3.25,3.25,0,0,0,3.46-3.56V341a5,5,0,0,1-4.09,1.72,5.72,5.72,0,0,1-4.09-1.52c-1.62-1.62-1.75-3.83-1.75-6.83s.13-5.19,1.75-6.8a5.77,5.77,0,0,1,4.12-1.52,5,5,0,0,1,4.19,1.81v-1.61h4.16v16.57C98.54,347,95.6,350,91,350Zm.43-20c-2.54,0-2.8,2.18-2.8,4.46s.26,4.48,2.8,4.48,2.84-2.21,2.84-4.48S94,329.93,91.41,329.93Z"/><path class="cls-14" d="M106.72,336.2a3.52,3.52,0,0,0,3.77,3.83,4.84,4.84,0,0,0,3.89-1.62L117,341a8.07,8.07,0,0,1-6.54,2.71c-4.06,0-8-1.85-8-8.81,0-5.61,3-8.78,7.49-8.78,4.79,0,7.49,3.43,7.49,8.32v1.81Zm6.14-4.78a3.2,3.2,0,0,0-5.74,0,4.21,4.21,0,0,0-.4,1.84h6.54A4.08,4.08,0,0,0,112.86,331.42Z"/><path class="cls-14" d="M51.25,373.82v-1.48A5.23,5.23,0,0,1,47,374a5.94,5.94,0,0,1-4.39-1.52,5.5,5.5,0,0,1-1.42-3.86c0-2.74,1.88-5,5.94-5h4v-.86c0-1.88-.92-2.7-3.2-2.7a3.82,3.82,0,0,0-3.3,1.48L42,358.87c1.68-1.85,3.3-2.44,6.17-2.44,4.85,0,7.32,2,7.32,6.07v11.32Zm-.1-7.26H47.89c-1.72,0-2.55.69-2.55,2s.83,1.95,2.61,1.95a3.27,3.27,0,0,0,2.54-.83,2.65,2.65,0,0,0,.66-2.18Z"/><path class="cls-14" d="M72.67,372.47A5.76,5.76,0,0,1,68.51,374a5,5,0,0,1-4.16-1.72v7.82H60.06V356.63h4.16v1.61a5.18,5.18,0,0,1,4.29-1.81A5.76,5.76,0,0,1,72.67,358c1.65,1.68,1.78,4.36,1.78,7.23S74.32,370.78,72.67,372.47Zm-5.41-12.18c-2.58,0-2.91,2.14-2.91,4.92s.33,5,2.91,5,2.9-2.18,2.9-5S69.83,360.29,67.26,360.29Z"/><path class="cls-14" d="M91.15,372.47A5.78,5.78,0,0,1,87,374a5,5,0,0,1-4.16-1.72v7.82H78.54V356.63H82.7v1.61A5.18,5.18,0,0,1,87,356.43,5.78,5.78,0,0,1,91.15,358c1.65,1.68,1.78,4.36,1.78,7.23S92.8,370.78,91.15,372.47Zm-5.41-12.18c-2.58,0-2.91,2.14-2.91,4.92s.33,5,2.91,5,2.9-2.18,2.9-5S88.31,360.29,85.74,360.29Z"/><path class="cls-14" d="M106.36,361.31a2.87,2.87,0,0,0-5,2.15v10.36H97V356.63h4.19v1.65a5.84,5.84,0,0,1,4.33-1.85A5.22,5.22,0,0,1,109.6,358Z"/><path class="cls-14" d="M122.93,371.91a7.2,7.2,0,0,1-5.35,2.11,7.1,7.1,0,0,1-5.31-2.11c-1.55-1.65-2-3.6-2-6.7s.4-5,2-6.67a7.79,7.79,0,0,1,10.66,0c1.55,1.65,1.95,3.56,1.95,6.67S124.51,370.29,122.93,371.91Zm-3.33-10.86a2.71,2.71,0,0,0-2-.76,2.68,2.68,0,0,0-2,.76c-.89.86-1,2.41-1,4.16s.1,3.33,1,4.19a2.72,2.72,0,0,0,2,.76,2.75,2.75,0,0,0,2-.76c.89-.86,1-2.41,1-4.19S120.49,361.91,119.6,361.05Z"/><path class="cls-14" d="M137.75,373.82l-3.17-5.15-3.14,5.15h-5.15l5.94-8.78-5.71-8.41h5.15l2.91,4.91,2.93-4.91h5.15L137,365l5.94,8.78Z"/><path class="cls-14" d="M145.63,353.69v-3.5H150v3.5Zm.07,20.13v-16.7H150v16.7Z"/><path class="cls-14" d="M174.77,373.82v-10.4c0-2.34-1.48-3.13-2.84-3.13a2.77,2.77,0,0,0-2.87,3v10.49h-4.29v-10.4c0-2.34-1.48-3.13-2.84-3.13a2.78,2.78,0,0,0-2.87,3.13v10.4h-4.29V356.63H159v1.58a6,6,0,0,1,4.29-1.78,5.32,5.32,0,0,1,4.56,2.18,6.55,6.55,0,0,1,5.15-2.18,6,6,0,0,1,4.22,1.52,6.45,6.45,0,0,1,1.88,4.88v11Z"/><path class="cls-14" d="M192.49,373.82v-1.48a5.23,5.23,0,0,1-4.22,1.65,5.94,5.94,0,0,1-4.39-1.52,5.5,5.5,0,0,1-1.42-3.86c0-2.74,1.88-5,5.94-5h4v-.86c0-1.88-.92-2.7-3.2-2.7a3.82,3.82,0,0,0-3.3,1.48l-2.71-2.67c1.69-1.85,3.31-2.44,6.18-2.44,4.85,0,7.32,2,7.32,6.07v11.32Zm-.1-7.26h-3.26c-1.72,0-2.55.69-2.55,2s.83,1.95,2.61,1.95a3.27,3.27,0,0,0,2.54-.83,2.65,2.65,0,0,0,.66-2.18Z"/><path class="cls-14" d="M206.68,373.82a4.66,4.66,0,0,1-5-4.92v-8.51h-1.82v-3.27h1.82V352H206v5.08h3v3.27h-3v8.25c0,1,.46,1.55,1.48,1.55H209v3.63Z"/><path class="cls-14" d="M212.85,353.69v-3.5h4.39v3.5Zm.07,20.13v-16.7h4.29v16.7Z"/><path class="cls-14" d="M233.87,371.91a7.79,7.79,0,0,1-10.66,0c-1.55-1.65-1.94-3.6-1.94-6.7s.39-5,1.94-6.67a7.13,7.13,0,0,1,5.32-2.11,7,7,0,0,1,5.34,2.11c1.56,1.65,1.95,3.56,1.95,6.67S235.46,370.29,233.87,371.91Zm-3.33-10.86a3,3,0,0,0-4,0c-.89.86-1,2.41-1,4.16s.1,3.33,1,4.19a3,3,0,0,0,4,0c.89-.86,1-2.41,1-4.19S231.43,361.91,230.54,361.05Z"/><path class="cls-14" d="M249.91,373.82v-10.4c0-2.34-1.48-3.13-2.84-3.13a2.78,2.78,0,0,0-2.87,3.13v10.4h-4.29V356.63h4.19v1.58a5.88,5.88,0,0,1,4.29-1.78,5.56,5.56,0,0,1,4.06,1.52,6.34,6.34,0,0,1,1.75,4.88v11Z"/><path class="cls-16" d="M267.74,135.63a5.82,5.82,0,0,1-4.18,1.56,5.06,5.06,0,0,1-4.17-1.73v7.86h-4.31V119.71h4.17v1.63a5.22,5.22,0,0,1,4.31-1.83,5.82,5.82,0,0,1,4.18,1.56c1.66,1.69,1.79,4.38,1.79,7.26S269.4,133.94,267.74,135.63Zm-5.44-12.24c-2.58,0-2.91,2.16-2.91,4.94s.33,5,2.91,5,2.92-2.19,2.92-5S264.89,123.39,262.3,123.39Z"/><path class="cls-16" d="M285.58,135.06a7.2,7.2,0,0,1-5.37,2.13,7.13,7.13,0,0,1-5.34-2.13c-1.56-1.65-2-3.61-2-6.73s.4-5,2-6.69a7.13,7.13,0,0,1,5.34-2.13,7.06,7.06,0,0,1,5.37,2.13c1.56,1.65,2,3.58,2,6.69S287.17,133.44,285.58,135.06Zm-3.35-10.9a3,3,0,0,0-4,0c-.9.86-1,2.42-1,4.17s.1,3.35,1,4.21a3,3,0,0,0,4,0c.9-.86,1-2.42,1-4.21S283.13,125,282.23,124.16Z"/><path class="cls-16" d="M296.52,137a4.69,4.69,0,0,1-5-4.94V113.38h4.31v18.4c0,1,.43,1.56,1.53,1.56H299V137Z"/><path class="cls-16" d="M307.86,139.77a6.08,6.08,0,0,1-1.29,2.22,5,5,0,0,1-3.72,1.33h-1.69v-3.88h1a1.86,1.86,0,0,0,2.15-1.56l.73-2.12-5.9-16h4.54l3.58,10.68,3.45-10.68h4.54Z"/><path class="cls-16" d="M327.85,137V126.54c0-2.35-1.49-3.15-2.85-3.15a2.8,2.8,0,0,0-2.88,3.15V137h-4.31V119.71H322v1.59a5.93,5.93,0,0,1,4.31-1.79,5.63,5.63,0,0,1,4.08,1.53,6.41,6.41,0,0,1,1.75,4.91v11Z"/><path class="cls-16" d="M348.74,135.06a7.8,7.8,0,0,1-10.71,0c-1.56-1.65-1.95-3.61-1.95-6.73s.39-5,1.95-6.69a7.15,7.15,0,0,1,5.34-2.13,7.06,7.06,0,0,1,5.37,2.13c1.56,1.65,2,3.58,2,6.69S350.33,133.44,348.74,135.06Zm-3.35-10.9a3,3,0,0,0-4,0c-.89.86-1,2.42-1,4.17s.1,3.35,1,4.21a3,3,0,0,0,4,0c.9-.86,1-2.42,1-4.21S346.29,125,345.39,124.16Z"/><path class="cls-16" d="M374.9,137V126.54c0-2.35-1.49-3.15-2.85-3.15a2.79,2.79,0,0,0-2.88,3V137h-4.31V126.54c0-2.35-1.5-3.15-2.86-3.15a2.8,2.8,0,0,0-2.88,3.15V137h-4.31V119.71H359v1.59a6.05,6.05,0,0,1,4.31-1.79,5.38,5.38,0,0,1,4.58,2.19,6.6,6.6,0,0,1,5.17-2.19,6,6,0,0,1,4.24,1.53,6.49,6.49,0,0,1,1.89,4.91v11Z"/><path class="cls-16" d="M383.79,116.76v-3.51h4.41v3.51Zm.07,20.23V120.21h4.31V137Z"/><path class="cls-16" d="M401.83,137V135.5a5.26,5.26,0,0,1-4.25,1.65,6,6,0,0,1-4.41-1.52,5.53,5.53,0,0,1-1.42-3.88c0-2.75,1.89-5,6-5h4v-.86c0-1.89-.93-2.72-3.22-2.72a3.83,3.83,0,0,0-3.32,1.49L392.47,122c1.7-1.86,3.32-2.46,6.21-2.46,4.87,0,7.36,2.06,7.36,6.1V137Zm-.1-7.3h-3.29c-1.72,0-2.55.7-2.55,2s.83,2,2.62,2a3.26,3.26,0,0,0,2.55-.83,2.67,2.67,0,0,0,.67-2.19Z"/><path class="cls-16" d="M415.55,137a4.69,4.69,0,0,1-5-4.94V113.38h4.31v18.4c0,1,.43,1.56,1.53,1.56H418V137Z"/><path class="cls-16" d="M427.12,137.19c-2.72,0-5.14-.3-7.36-2.49l2.82-2.82a6.21,6.21,0,0,0,4.61,1.63c1.49,0,3.05-.5,3.05-1.8,0-.86-.43-1.45-1.82-1.59l-2.79-.26c-3.05-.3-5-1.66-5-4.84,0-3.62,3.15-5.51,6.66-5.51,2.72,0,4.94.5,6.6,2l-2.65,2.68a6,6,0,0,0-4-1.16c-1.73,0-2.46.8-2.46,1.66s.5,1.36,1.79,1.49l2.72.27c3.42.33,5.14,2.12,5.14,5.07C434.45,135.36,431.2,137.19,427.12,137.19Z"/><path class="cls-16" d="M267,165.42a7.8,7.8,0,0,1-10.71,0c-1.56-1.66-2-3.61-2-6.73s.39-5,2-6.7a7.18,7.18,0,0,1,5.34-2.12A7.09,7.09,0,0,1,267,152c1.56,1.66,2,3.59,2,6.7S268.6,163.8,267,165.42Zm-3.35-10.91a3,3,0,0,0-4,0c-.89.87-1,2.42-1,4.18s.1,3.35,1,4.21a3,3,0,0,0,4,0c.9-.86,1-2.42,1-4.21S264.56,155.38,263.66,154.51Z"/><path class="cls-16" d="M283.13,167.35V156.9c0-2.35-1.5-3.15-2.86-3.15a2.8,2.8,0,0,0-2.88,3.15v10.45h-4.31V150.07h4.21v1.59a5.93,5.93,0,0,1,4.31-1.79,5.61,5.61,0,0,1,4.08,1.53,6.39,6.39,0,0,1,1.76,4.9v11Z"/><path class="cls-16" d="M305.74,173.88a8.07,8.07,0,0,1-6.27-2.26l2.69-2.72a4.39,4.39,0,0,0,3.38,1.33,3.26,3.26,0,0,0,3.48-3.58v-1.76a5.07,5.07,0,0,1-4.11,1.73,5.75,5.75,0,0,1-4.11-1.53c-1.63-1.62-1.76-3.84-1.76-6.86s.13-5.21,1.76-6.83a5.83,5.83,0,0,1,4.14-1.53,5,5,0,0,1,4.21,1.83v-1.63h4.18v16.65C313.33,170.86,310.38,173.88,305.74,173.88Zm.43-20.13c-2.55,0-2.82,2.19-2.82,4.48s.27,4.51,2.82,4.51,2.85-2.22,2.85-4.51S308.72,153.75,306.17,153.75Z"/><path class="cls-16" d="M327.56,154.78a2.88,2.88,0,0,0-5.08,2.15v10.42h-4.31V150.07h4.21v1.66a5.84,5.84,0,0,1,4.35-1.86,5.21,5.21,0,0,1,4.08,1.63Z"/><path class="cls-16" d="M341.78,167.35v-1.5a5.26,5.26,0,0,1-4.24,1.66,6,6,0,0,1-4.42-1.52,5.59,5.59,0,0,1-1.42-3.88c0-2.76,1.89-5,6-5h4v-.86c0-1.89-.93-2.72-3.22-2.72a3.82,3.82,0,0,0-3.31,1.49l-2.72-2.68c1.69-1.86,3.32-2.46,6.2-2.46,4.87,0,7.36,2.06,7.36,6.1v11.38Zm-.1-7.3H338.4c-1.73,0-2.56.7-2.56,2s.83,2,2.62,2a3.32,3.32,0,0,0,2.56-.83,2.71,2.71,0,0,0,.66-2.19Z"/><path class="cls-16" d="M363.3,166a5.82,5.82,0,0,1-4.18,1.56,5.08,5.08,0,0,1-4.18-1.73v7.86h-4.31V150.07h4.18v1.63a5.2,5.2,0,0,1,4.31-1.83,5.82,5.82,0,0,1,4.18,1.56c1.66,1.69,1.79,4.38,1.79,7.26S365,164.3,363.3,166Zm-5.44-12.24c-2.59,0-2.92,2.16-2.92,4.94s.33,5,2.92,5,2.92-2.19,2.92-5S360.45,153.75,357.86,153.75Z"/><path class="cls-16" d="M379.25,167.35V156.9c0-2.35-1.5-3.15-2.86-3.15a2.8,2.8,0,0,0-2.88,3.15v10.45H369.2V143.74h4.31v7.92a5.54,5.54,0,0,1,4.21-1.79,5.61,5.61,0,0,1,4.08,1.53,6.39,6.39,0,0,1,1.76,4.9v11Z"/><path class="cls-16" d="M393.87,167.55c-2.72,0-5.14-.3-7.36-2.49l2.82-2.82a6.19,6.19,0,0,0,4.6,1.62c1.5,0,3.05-.49,3.05-1.79,0-.86-.43-1.45-1.82-1.59l-2.78-.26c-3.05-.3-5-1.66-5-4.84,0-3.62,3.15-5.51,6.67-5.51,2.72,0,4.94.5,6.6,2L398,154.58a5.9,5.9,0,0,0-4-1.16c-1.72,0-2.45.8-2.45,1.66s.49,1.36,1.79,1.49l2.72.27c3.41.33,5.14,2.12,5.14,5.07C401.2,165.72,398,167.55,393.87,167.55Z"/><path class="cls-15" d="M771.43,338.28h-9.88v-23.6H771c4.61,0,7.29,2.58,7.29,6.63a5.45,5.45,0,0,1-2.91,4.87,5.5,5.5,0,0,1,3.25,5.31C778.66,335.9,775.64,338.28,771.43,338.28Zm-.77-19.49h-4.5v5.44h4.5c2,0,3.05-1.1,3.05-2.72S772.62,318.79,770.66,318.79Zm.3,9.58h-4.8v5.8H771a2.91,2.91,0,1,0,0-5.8Z"/><path class="cls-15" d="M791.88,338.28v-1.49a5.24,5.24,0,0,1-4.24,1.66,5.94,5.94,0,0,1-4.41-1.53,5.51,5.51,0,0,1-1.43-3.87c0-2.76,1.89-5,6-5h4v-.86c0-1.89-.92-2.72-3.21-2.72a3.83,3.83,0,0,0-3.32,1.49l-2.72-2.69c1.69-1.85,3.32-2.45,6.2-2.45,4.88,0,7.36,2.06,7.36,6.1v11.37Zm-.1-7.29H788.5c-1.72,0-2.55.7-2.55,2s.83,2,2.62,2a3.3,3.3,0,0,0,2.55-.83,2.67,2.67,0,0,0,.66-2.19Z"/><path class="cls-15" d="M807,341.07a6.08,6.08,0,0,1-1.29,2.22,5,5,0,0,1-3.71,1.33h-1.69v-3.88h1a1.87,1.87,0,0,0,2.16-1.56l.72-2.12L798.28,321h4.55l3.58,10.68L809.85,321h4.55Z"/><path class="cls-15" d="M820,331a3.54,3.54,0,0,0,3.78,3.85,4.88,4.88,0,0,0,3.91-1.63l2.62,2.55a8.11,8.11,0,0,1-6.56,2.72c-4.08,0-8-1.85-8-8.85,0-5.64,3-8.82,7.52-8.82,4.81,0,7.53,3.45,7.53,8.36V331Zm6.17-4.81a3.22,3.22,0,0,0-5.77,0A4.19,4.19,0,0,0,820,328h6.57A4.34,4.34,0,0,0,826.17,326.18Z"/><path class="cls-15" d="M840.46,338.48c-2.72,0-5.14-.3-7.36-2.48l2.82-2.82a6.23,6.23,0,0,0,4.6,1.62c1.5,0,3.05-.49,3.05-1.79,0-.86-.43-1.46-1.82-1.59l-2.78-.26c-3.05-.3-5-1.66-5-4.85,0-3.61,3.15-5.5,6.67-5.5,2.71,0,4.94.5,6.59,2l-2.65,2.69a5.9,5.9,0,0,0-4-1.16c-1.72,0-2.45.79-2.45,1.66s.49,1.36,1.79,1.49l2.72.26c3.41.33,5.14,2.13,5.14,5.08C847.79,336.66,844.54,338.48,840.46,338.48Z"/><path class="cls-15" d="M851.33,318.06v-3.52h4.41v3.52Zm.07,20.22V321.51h4.31v16.77Z"/><path class="cls-15" d="M869.37,338.28v-1.49a5.24,5.24,0,0,1-4.24,1.66,5.94,5.94,0,0,1-4.41-1.53,5.51,5.51,0,0,1-1.43-3.87c0-2.76,1.89-5,6-5h4v-.86c0-1.89-.93-2.72-3.22-2.72a3.82,3.82,0,0,0-3.31,1.49L860,323.26c1.69-1.85,3.32-2.45,6.2-2.45,4.87,0,7.36,2.06,7.36,6.1v11.37Zm-.1-7.29H866c-1.73,0-2.56.7-2.56,2s.83,2,2.62,2a3.31,3.31,0,0,0,2.56-.83,2.71,2.71,0,0,0,.66-2.19Z"/><path class="cls-15" d="M888.27,338.28V327.84c0-2.35-1.49-3.15-2.85-3.15a2.81,2.81,0,0,0-2.89,3.15v10.44h-4.31V321h4.21v1.59a5.93,5.93,0,0,1,4.31-1.79,5.57,5.57,0,0,1,4.08,1.53,6.39,6.39,0,0,1,1.76,4.9v11Z"/><path class="cls-15" d="M773.88,367.28a5.77,5.77,0,0,1-4.18,1.56,5.08,5.08,0,0,1-4.18-1.72V375h-4.31V351.37h4.18V353a5.24,5.24,0,0,1,4.31-1.82,5.77,5.77,0,0,1,4.18,1.56c1.66,1.69,1.79,4.37,1.79,7.26S775.54,365.59,773.88,367.28Zm-5.44-12.23c-2.58,0-2.92,2.15-2.92,4.94s.34,5,2.92,5,2.92-2.19,2.92-5S771,355.05,768.44,355.05Z"/><path class="cls-15" d="M791.72,366.72a7.22,7.22,0,0,1-5.37,2.12,7.11,7.11,0,0,1-5.34-2.12c-1.56-1.66-2-3.61-2-6.73s.4-5,2-6.7a7.82,7.82,0,0,1,10.71,0c1.56,1.66,1.95,3.58,1.95,6.7S793.31,365.09,791.72,366.72Zm-3.35-10.91a2.71,2.71,0,0,0-2-.76,2.68,2.68,0,0,0-2,.76c-.9.86-1,2.42-1,4.18s.1,3.35,1,4.21a2.68,2.68,0,0,0,2,.76,2.71,2.71,0,0,0,2-.76c.89-.86,1-2.42,1-4.21S789.26,356.67,788.37,355.81Z"/><path class="cls-15" d="M802.66,368.64a4.69,4.69,0,0,1-5-4.94V345h4.31v18.41c0,1,.43,1.56,1.53,1.56h1.65v3.64Z"/><path class="cls-15" d="M814,371.43a6.22,6.22,0,0,1-1.29,2.22A5,5,0,0,1,809,375H807.3V371.1h1a1.86,1.86,0,0,0,2.15-1.56l.73-2.12-5.9-16.05h4.54L813.4,362l3.45-10.67h4.54Z"/><path class="cls-15" d="M834,368.64V358.2c0-2.36-1.49-3.15-2.85-3.15s-2.88.79-2.88,3.15v10.44H824V351.37h4.21V353a5.92,5.92,0,0,1,4.31-1.79,5.64,5.64,0,0,1,4.08,1.52,6.42,6.42,0,0,1,1.75,4.91v11Z"/><path class="cls-15" d="M854.88,366.72a7.82,7.82,0,0,1-10.71,0c-1.56-1.66-1.95-3.61-1.95-6.73s.39-5,1.95-6.7a7.82,7.82,0,0,1,10.71,0c1.56,1.66,2,3.58,2,6.7S856.47,365.09,854.88,366.72Zm-3.35-10.91a3,3,0,0,0-4,0c-.9.86-1,2.42-1,4.18s.09,3.35,1,4.21a3,3,0,0,0,4,0c.9-.86,1-2.42,1-4.21S852.43,356.67,851.53,355.81Z"/><path class="cls-15" d="M881,368.64V358.2c0-2.36-1.49-3.15-2.85-3.15a2.78,2.78,0,0,0-2.88,3.05v10.54H871V358.2c0-2.36-1.5-3.15-2.86-3.15s-2.88.79-2.88,3.15v10.44H861V351.37h4.21V353a6.05,6.05,0,0,1,4.31-1.79,5.38,5.38,0,0,1,4.58,2.19,6.55,6.55,0,0,1,5.17-2.19,6,6,0,0,1,4.24,1.52,6.5,6.5,0,0,1,1.89,4.91v11Z"/><path class="cls-15" d="M889.93,348.42V344.9h4.41v3.52Zm.06,20.22V351.87h4.31v16.77Z"/><path class="cls-15" d="M908,368.64v-1.49a5.24,5.24,0,0,1-4.24,1.66,5.94,5.94,0,0,1-4.41-1.53,5.52,5.52,0,0,1-1.43-3.88c0-2.75,1.89-5,6-5h4v-.86c0-1.9-.92-2.72-3.21-2.72a3.83,3.83,0,0,0-3.32,1.49l-2.72-2.69c1.69-1.85,3.32-2.45,6.2-2.45,4.88,0,7.36,2.05,7.36,6.1v11.37Zm-.1-7.29h-3.28c-1.72,0-2.55.69-2.55,2s.83,2,2.62,2a3.26,3.26,0,0,0,2.55-.83,2.65,2.65,0,0,0,.66-2.18Z"/><path class="cls-15" d="M921.69,368.64a4.69,4.69,0,0,1-5-4.94V345H921v18.41c0,1,.43,1.56,1.53,1.56h1.65v3.64Z"/><path class="cls-15" d="M770.6,386.43a2.89,2.89,0,0,0-5.08,2.16V399h-4.31V381.73h4.22v1.65a5.83,5.83,0,0,1,4.34-1.85,5.23,5.23,0,0,1,4.08,1.62Z"/><path class="cls-15" d="M778.69,391.71a3.53,3.53,0,0,0,3.78,3.84,4.87,4.87,0,0,0,3.91-1.62l2.62,2.55a8.13,8.13,0,0,1-6.57,2.72c-4.07,0-8-1.86-8-8.85,0-5.64,3-8.82,7.53-8.82,4.81,0,7.53,3.45,7.53,8.35v1.83Zm6.16-4.81a3.22,3.22,0,0,0-5.77,0,4.29,4.29,0,0,0-.39,1.85h6.56A4.15,4.15,0,0,0,784.85,386.9Z"/><path class="cls-15" d="M799.44,405.53a8.08,8.08,0,0,1-6.26-2.25l2.68-2.72a4.4,4.4,0,0,0,3.38,1.33,3.28,3.28,0,0,0,3.49-3.59v-1.75a5.07,5.07,0,0,1-4.12,1.72,5.75,5.75,0,0,1-4.11-1.52c-1.62-1.63-1.75-3.85-1.75-6.87s.13-5.2,1.75-6.83a5.85,5.85,0,0,1,4.15-1.52,5,5,0,0,1,4.21,1.82v-1.62H807v16.64C807,402.52,804.09,405.53,799.44,405.53Zm.43-20.12c-2.55,0-2.81,2.18-2.81,4.47s.26,4.51,2.81,4.51,2.86-2.22,2.86-4.51S802.43,385.41,799.87,385.41Z"/><path class="cls-15" d="M821.26,386.43a2.88,2.88,0,0,0-5.07,2.16V399h-4.31V381.73h4.21v1.65a5.85,5.85,0,0,1,4.34-1.85,5.22,5.22,0,0,1,4.08,1.62Z"/><path class="cls-15" d="M829.35,391.71a3.53,3.53,0,0,0,3.78,3.84,4.87,4.87,0,0,0,3.91-1.62l2.62,2.55a8.13,8.13,0,0,1-6.56,2.72c-4.08,0-8-1.86-8-8.85,0-5.64,3-8.82,7.52-8.82,4.81,0,7.53,3.45,7.53,8.35v1.83Zm6.17-4.81a3.22,3.22,0,0,0-5.77,0,4.15,4.15,0,0,0-.4,1.85h6.57A4.29,4.29,0,0,0,835.52,386.9Z"/><path class="cls-15" d="M849.81,399.2c-2.72,0-5.14-.3-7.36-2.49l2.81-2.82a6.24,6.24,0,0,0,4.61,1.63c1.5,0,3-.5,3-1.79,0-.86-.43-1.46-1.82-1.59l-2.78-.27c-3.06-.3-5-1.66-5-4.84,0-3.61,3.15-5.5,6.67-5.5,2.71,0,4.94.49,6.59,2L854,386.24a5.92,5.92,0,0,0-4-1.16c-1.72,0-2.45.79-2.45,1.65s.49,1.36,1.79,1.49l2.72.27c3.41.33,5.13,2.12,5.13,5.07C857.13,397.38,853.89,399.2,849.81,399.2Z"/><path class="cls-15" d="M866.25,399.2c-2.72,0-5.14-.3-7.36-2.49l2.82-2.82a6.21,6.21,0,0,0,4.61,1.63c1.49,0,3-.5,3-1.79,0-.86-.43-1.46-1.82-1.59l-2.79-.27c-3-.3-5-1.66-5-4.84,0-3.61,3.15-5.5,6.66-5.5,2.72,0,4.94.49,6.6,2l-2.65,2.69a6,6,0,0,0-4-1.16c-1.72,0-2.45.79-2.45,1.65s.5,1.36,1.79,1.49l2.72.27c3.42.33,5.14,2.12,5.14,5.07C873.58,397.38,870.33,399.2,866.25,399.2Z"/><path class="cls-15" d="M877.13,378.78v-3.52h4.41v3.52Zm.06,20.22V382.22h4.31V399Z"/><path class="cls-15" d="M898.25,397.08a7.22,7.22,0,0,1-5.37,2.12,7.11,7.11,0,0,1-5.34-2.12c-1.56-1.66-2-3.62-2-6.73s.4-5,2-6.7a7.82,7.82,0,0,1,10.71,0c1.56,1.66,2,3.58,2,6.7S899.84,395.45,898.25,397.08Zm-3.35-10.91a2.71,2.71,0,0,0-2-.76,2.68,2.68,0,0,0-2,.76c-.9.86-1,2.42-1,4.18s.1,3.35,1,4.21a2.68,2.68,0,0,0,2,.76,2.71,2.71,0,0,0,2-.76c.89-.86,1-2.42,1-4.21S895.79,387,894.9,386.17Z"/><path class="cls-15" d="M914.36,399V388.56c0-2.36-1.49-3.15-2.85-3.15s-2.88.79-2.88,3.15V399h-4.31V381.73h4.21v1.59a5.88,5.88,0,0,1,4.31-1.79,5.64,5.64,0,0,1,4.08,1.52,6.42,6.42,0,0,1,1.75,4.91v11Z"/><path class="cls-14" d="M547.84,137a4.69,4.69,0,0,1-5-4.94v-8.56H541v-3.28h1.82V115.1h4.31v5.11h3.05v3.28h-3.05v8.29c0,1,.46,1.56,1.49,1.56h1.56V137Z"/><path class="cls-14" d="M563.49,124.42a2.89,2.89,0,0,0-5.08,2.16V137H554.1V119.71h4.21v1.66a5.88,5.88,0,0,1,4.35-1.86,5.21,5.21,0,0,1,4.08,1.63Z"/><path class="cls-14" d="M579.14,137V135.4a5.93,5.93,0,0,1-4.31,1.79,5.61,5.61,0,0,1-4.08-1.53,6.38,6.38,0,0,1-1.76-4.91v-11h4.31v10.45c0,2.35,1.49,3.15,2.85,3.15a2.81,2.81,0,0,0,2.89-3.15V119.71h4.31V137Z"/><path class="cls-14" d="M593.86,137.19c-2.72,0-5.14-.3-7.36-2.49l2.81-2.82a6.24,6.24,0,0,0,4.61,1.63c1.49,0,3.05-.5,3.05-1.8,0-.86-.43-1.45-1.82-1.59l-2.79-.26c-3.05-.3-5-1.66-5-4.84,0-3.62,3.15-5.51,6.66-5.51,2.72,0,5,.5,6.6,2L598,124.22a6,6,0,0,0-4-1.16c-1.73,0-2.45.8-2.45,1.66s.49,1.36,1.79,1.49l2.71.27c3.42.33,5.14,2.12,5.14,5.07C601.18,135.36,597.93,137.19,593.86,137.19Z"/><path class="cls-14" d="M609.87,137a4.69,4.69,0,0,1-5-4.94v-8.56H603v-3.28h1.82V115.1h4.31v5.11h3.06v3.28h-3.06v8.29c0,1,.47,1.56,1.5,1.56h1.56V137Z"/><path class="cls-14" d="M615.67,129.53v-4h10.22v4Z"/><path class="cls-14" d="M639.64,124.42a2.88,2.88,0,0,0-5.07,2.16V137h-4.31V119.71h4.21v1.66a5.88,5.88,0,0,1,4.35-1.86,5.17,5.17,0,0,1,4.07,1.63Z"/><path class="cls-14" d="M647.73,129.69a3.54,3.54,0,0,0,3.78,3.85,4.88,4.88,0,0,0,3.92-1.63l2.62,2.56a8.13,8.13,0,0,1-6.57,2.72c-4.08,0-8-1.86-8-8.86,0-5.63,3-8.82,7.53-8.82,4.8,0,7.52,3.45,7.52,8.36v1.82Zm6.17-4.81a3.22,3.22,0,0,0-5.77,0,4.34,4.34,0,0,0-.4,1.86h6.57A4.19,4.19,0,0,0,653.9,124.88Z"/><path class="cls-14" d="M668.49,143.52a8.07,8.07,0,0,1-6.27-2.26l2.69-2.71a4.42,4.42,0,0,0,3.38,1.32,3.26,3.26,0,0,0,3.48-3.58v-1.76a5.05,5.05,0,0,1-4.11,1.73,5.75,5.75,0,0,1-4.11-1.53c-1.63-1.62-1.76-3.84-1.76-6.86s.13-5.21,1.76-6.83a5.83,5.83,0,0,1,4.14-1.53,5.07,5.07,0,0,1,4.22,1.83v-1.63h4.17v16.65C676.08,140.5,673.13,143.52,668.49,143.52Zm.43-20.13c-2.55,0-2.82,2.19-2.82,4.48s.27,4.51,2.82,4.51,2.85-2.22,2.85-4.51S671.47,123.39,668.92,123.39Z"/><path class="cls-14" d="M680.86,116.76v-3.51h4.41v3.51Zm.06,20.23V120.21h4.31V137Z"/><path class="cls-14" d="M702,135.06a7.22,7.22,0,0,1-5.37,2.13,7.11,7.11,0,0,1-5.34-2.13c-1.56-1.65-2-3.61-2-6.73s.4-5,2-6.69a7.8,7.8,0,0,1,10.71,0c1.56,1.65,1.95,3.58,1.95,6.69S703.57,133.44,702,135.06Zm-3.35-10.9a2.72,2.72,0,0,0-2-.77,2.68,2.68,0,0,0-2,.77c-.9.86-1,2.42-1,4.17s.1,3.35,1,4.21a2.68,2.68,0,0,0,2,.77,2.72,2.72,0,0,0,2-.77c.89-.86,1-2.42,1-4.21S699.52,125,698.63,124.16Z"/><path class="cls-14" d="M718.09,137V126.54c0-2.35-1.49-3.15-2.85-3.15a2.8,2.8,0,0,0-2.88,3.15V137h-4.31V119.71h4.21v1.59a5.92,5.92,0,0,1,4.31-1.79,5.64,5.64,0,0,1,4.08,1.53A6.41,6.41,0,0,1,722.4,126v11Z"/><path class="cls-14" d="M554.37,165.42a7.22,7.22,0,0,1-5.37,2.13,7.11,7.11,0,0,1-5.34-2.13c-1.56-1.66-2-3.61-2-6.73s.4-5,2-6.7a7.82,7.82,0,0,1,10.71,0c1.56,1.66,2,3.59,2,6.7S556,163.8,554.37,165.42ZM551,154.51a2.75,2.75,0,0,0-2-.76,2.71,2.71,0,0,0-2,.76c-.9.87-1,2.42-1,4.18s.1,3.35,1,4.21a2.68,2.68,0,0,0,2,.77,2.72,2.72,0,0,0,2-.77c.89-.86,1-2.42,1-4.21S551.91,155.38,551,154.51Z"/><path class="cls-14" d="M573.1,166a5.82,5.82,0,0,1-4.18,1.56,5.06,5.06,0,0,1-4.17-1.73v7.86h-4.31V150.07h4.17v1.63a5.22,5.22,0,0,1,4.31-1.83,5.82,5.82,0,0,1,4.18,1.56c1.66,1.69,1.79,4.38,1.79,7.26S574.76,164.3,573.1,166Zm-5.44-12.24c-2.58,0-2.91,2.16-2.91,4.94s.33,5,2.91,5,2.92-2.19,2.92-5S570.25,153.75,567.66,153.75Z"/><path class="cls-14" d="M584.41,167.35a4.69,4.69,0,0,1-5-4.94v-8.56h-1.82v-3.28h1.82v-5.11h4.31v5.11h3v3.28h-3v8.29c0,1,.46,1.56,1.49,1.56h1.56v3.65Z"/><path class="cls-14" d="M590.61,147.12v-3.51H595v3.51Zm.06,20.23V150.57H595v16.78Z"/><path class="cls-14" d="M619.88,167.35V156.9c0-2.35-1.49-3.15-2.85-3.15a2.79,2.79,0,0,0-2.88,3.05v10.55h-4.31V156.9c0-2.35-1.49-3.15-2.85-3.15a2.81,2.81,0,0,0-2.89,3.15v10.45h-4.31V150.07H604v1.59a6.05,6.05,0,0,1,4.31-1.79,5.36,5.36,0,0,1,4.58,2.19,6.61,6.61,0,0,1,5.17-2.19,6.05,6.05,0,0,1,4.25,1.53,6.5,6.5,0,0,1,1.89,4.9v11Z"/><path class="cls-14" d="M628.77,147.12v-3.51h4.41v3.51Zm.07,20.23V150.57h4.31v16.78Z"/><path class="cls-14" d="M643.62,167.55c-2.72,0-5.14-.3-7.36-2.49l2.82-2.82a6.2,6.2,0,0,0,4.61,1.62c1.49,0,3-.49,3-1.79,0-.86-.43-1.45-1.82-1.59l-2.79-.26c-3-.3-5-1.66-5-4.84,0-3.62,3.15-5.51,6.66-5.51,2.72,0,4.94.5,6.6,2l-2.65,2.69a5.93,5.93,0,0,0-4-1.16c-1.73,0-2.46.8-2.46,1.66s.5,1.36,1.79,1.49l2.72.27c3.42.33,5.14,2.12,5.14,5.07C651,165.72,647.7,167.55,643.62,167.55Z"/><path class="cls-14" d="M663.42,167.35v-1.5a5.26,5.26,0,0,1-4.25,1.66,6,6,0,0,1-4.41-1.52,5.59,5.59,0,0,1-1.42-3.88c0-2.76,1.89-5,6-5h4v-.86c0-1.89-.93-2.72-3.22-2.72a3.8,3.8,0,0,0-3.31,1.49l-2.72-2.68c1.69-1.86,3.31-2.46,6.2-2.46,4.87,0,7.36,2.06,7.36,6.1v11.38Zm-.1-7.3H660c-1.73,0-2.56.7-2.56,2s.83,2,2.62,2a3.32,3.32,0,0,0,2.56-.83,2.71,2.71,0,0,0,.66-2.19Z"/><path class="cls-14" d="M677.67,167.35a4.68,4.68,0,0,1-5-4.94v-8.56h-1.83v-3.28h1.83v-5.11H677v5.11h3v3.28h-3v8.29c0,1,.46,1.56,1.49,1.56H680v3.65Z"/><path class="cls-14" d="M683.87,147.12v-3.51h4.41v3.51Zm.07,20.23V150.57h4.31v16.78Z"/><path class="cls-14" d="M705,165.42a7.23,7.23,0,0,1-5.38,2.13,7.11,7.11,0,0,1-5.33-2.13c-1.56-1.66-2-3.61-2-6.73s.4-5,2-6.7A7.82,7.82,0,0,1,705,152c1.55,1.66,2,3.59,2,6.7S706.59,163.8,705,165.42Zm-3.35-10.91a2.76,2.76,0,0,0-2-.76,2.73,2.73,0,0,0-2,.76c-.89.87-1,2.42-1,4.18s.1,3.35,1,4.21a2.7,2.7,0,0,0,2,.77,2.73,2.73,0,0,0,2-.77c.89-.86,1-2.42,1-4.21S702.54,155.38,701.65,154.51Z"/><path class="cls-14" d="M721.11,167.35V156.9c0-2.35-1.49-3.15-2.85-3.15a2.81,2.81,0,0,0-2.89,3.15v10.45h-4.31V150.07h4.21v1.59a5.93,5.93,0,0,1,4.31-1.79,5.61,5.61,0,0,1,4.08,1.53,6.36,6.36,0,0,1,1.76,4.9v11Z"/><path class="cls-17" d="M298.94,531.65c0,6.94,3.3,10.92,9.59,10.92,3.77,0,6-1.09,8.53-3.6l3.24,2.77a15.19,15.19,0,0,1-11.9,4.88c-8.67,0-14.23-5-14.23-16.19,0-10.27,5.1-16.18,13.37-16.18,8.46,0,13.36,5.84,13.36,15.35v2Zm16.2-8.73a8.46,8.46,0,0,0-15.21,0c-.79,1.67-.86,2.7-1,5.26H316.2C316,525.62,315.94,524.59,315.14,522.92Z"/><path class="cls-17" d="M350.4,560.36V542.51c-2.71,3.27-5.55,4.11-9.19,4.11a11.46,11.46,0,0,1-7.94-2.76c-3.24-3.22-4-8.35-4-13.43s.73-10.27,4-13.42a11.41,11.41,0,0,1,7.94-2.76c3.7,0,6.55.83,9.26,4.11v-3.73h4.7v45.73Zm-8.13-42c-7.15,0-8.21,5.91-8.21,12.07s1.06,12.08,8.21,12.08,8.13-5.91,8.13-12.08S349.34,518.36,342.27,518.36Z"/><path class="cls-17" d="M387.65,546.23V542.7a12.11,12.11,0,0,1-9.2,3.92,11.76,11.76,0,0,1-8.4-3c-2.32-2.18-3.31-5.2-3.31-8.86V514.63h4.77v19.46c0,5.59,3,8.42,7.93,8.42s8.14-2.89,8.14-8.42V514.63h4.76v31.6Z"/><path class="cls-17" d="M422.71,546.23v-3c-2.58,2.51-5,3.41-9.4,3.41s-6.94-.77-9.19-2.89a8.67,8.67,0,0,1-2.45-6.43c0-5.58,4-9.12,11.31-9.12h9.73v-3c0-4.56-2.32-6.94-8.34-6.94-4.1,0-6.22,1-8.2,3.66L402.93,519c2.84-3.66,6.15-4.75,11.51-4.75,8.8,0,13,3.72,13,10.53v21.45Zm0-14.58h-9.07q-7.33,0-7.34,5.59c0,3.66,2.32,5.4,7.54,5.4,2.71,0,5.1-.26,7.21-2.12,1.13-1,1.66-2.83,1.66-5.46Z"/><path class="cls-17" d="M458.49,546.23v-3.79c-2.71,3.34-5.55,4.18-9.26,4.18a11.47,11.47,0,0,1-7.94-2.76c-3.24-3.22-4-8.35-4-13.43s.72-10.27,4-13.42a11.43,11.43,0,0,1,7.94-2.76c3.64,0,6.48.77,9.2,4V500.5h4.76v45.73Zm-8.2-27.87c-7.14,0-8.2,5.91-8.2,12.07s1.06,12.08,8.2,12.08,8.14-5.91,8.14-12.08S457.37,518.36,450.29,518.36Z"/><path class="cls-17" d="M493.29,520.67a6.92,6.92,0,0,0-5.62-2.31c-4.77,0-7.81,3.66-7.81,8.48v19.39H475.1v-31.6h4.76v3.86c1.79-2.64,5.36-4.24,9.13-4.24a10.16,10.16,0,0,1,7.8,3Z"/><path class="cls-17" d="M520.74,546.23v-3c-2.58,2.51-5,3.41-9.39,3.41s-7-.77-9.2-2.89a8.7,8.7,0,0,1-2.44-6.43c0-5.58,4-9.12,11.31-9.12h9.72v-3c0-4.56-2.31-6.94-8.33-6.94-4.1,0-6.22,1-8.21,3.66L501,519c2.85-3.66,6.15-4.75,11.51-4.75,8.8,0,13,3.72,13,10.53v21.45Zm0-14.58h-9.06q-7.35,0-7.34,5.59c0,3.66,2.31,5.4,7.54,5.4,2.71,0,5.09-.26,7.21-2.12,1.12-1,1.65-2.83,1.65-5.46Z"/><path class="cls-17" d="M546.21,546.23c-5.56,0-8.34-3.79-8.34-8.48V518.17h-4.1v-3.54h4.1v-9.69h4.77v9.69h6.94v3.54h-6.94v19.46c0,2.89,1.39,4.62,4.43,4.62h2.51v4Z"/><path class="cls-17" d="M579.61,546.23V542.7a12.07,12.07,0,0,1-9.19,3.92,11.74,11.74,0,0,1-8.4-3c-2.32-2.18-3.31-5.2-3.31-8.86V514.63h4.76v19.46c0,5.59,3,8.42,7.94,8.42s8.14-2.89,8.14-8.42V514.63h4.76v31.6Z"/><path class="cls-17" d="M614.41,520.67a6.92,6.92,0,0,0-5.62-2.31c-4.77,0-7.81,3.66-7.81,8.48v19.39h-4.76v-31.6H601v3.86c1.79-2.64,5.36-4.24,9.13-4.24a10.19,10.19,0,0,1,7.81,3Z"/><path class="cls-17" d="M625.06,531.65c0,6.94,3.31,10.92,9.59,10.92a10.8,10.8,0,0,0,8.53-3.6l3.25,2.77a15.23,15.23,0,0,1-11.91,4.88c-8.67,0-14.22-5-14.22-16.19,0-10.27,5.09-16.18,13.36-16.18,8.47,0,13.36,5.84,13.36,15.35v2Zm16.21-8.73a8.47,8.47,0,0,0-15.22,0c-.79,1.67-.86,2.7-1,5.26h17.26C642.13,525.62,642.06,524.59,641.27,522.92Z"/><path class="cls-17" d="M667.4,546.62c-5.56,0-9.86-1.22-13.37-4.56l3.18-3.09c2.51,2.57,6.09,3.67,10.12,3.67,5.42,0,8.67-1.87,8.67-5.59,0-2.83-1.59-4.31-5.43-4.63l-5.36-.45c-6.35-.51-9.72-3.21-9.72-8.47,0-5.78,5-9.25,12-9.25,4.7,0,8.73,1.09,11.71,3.4l-3.11,3a14.19,14.19,0,0,0-8.66-2.5c-4.77,0-7.28,1.92-7.28,5.2,0,2.82,1.79,4.24,5.82,4.62l5.09.45c5.69.52,9.6,2.57,9.6,8.54S675.33,546.62,667.4,546.62Z"/><g class="cls-18"><path class="cls-19" d="M508,405.22c27.86-3,35-25.81,35-25.81l2.21,0a250.24,250.24,0,0,0-36.88-3.11s-28.58,15.24-52,14.69c-79.92-1.88-84.58,38.56-82.55,40.73a59.44,59.44,0,0,1,17.27.57C402.83,419.89,455.38,410.79,508,405.22Z"/><path class="cls-20" d="M591.7,312.18c-15.91-9-33.11-16.39-51-20.36-16,15-20.76,26.74-20.76,26.74,19-1.28,37.75,1.4,55.76,6.74A167.8,167.8,0,0,1,591.7,312.18Z"/><path class="cls-21" d="M488.81,470.94c28.69-3,64.12-17.54,64.12-17.54s3.88,0,10.21.24A137.88,137.88,0,0,0,537,445.29c-3.59-.79-7.21-1.45-10.76-2h-2.09c.46.21,2.84,23.29-42.22,11.77-48.58-12.43-90.74,25.35-101.83,36.7a84.84,84.84,0,0,1,23.47,7.9C417.86,488.38,443.54,475.61,488.81,470.94Z"/><path class="cls-22" d="M246,422.76c20.15-1.42,45.44-12.82,45.44-12.82s2.71.14,7.12.64a83.41,83.41,0,0,0-17.92-8.46c-2.48-.85-5-1.58-7.44-2.21-.95-.08-1.47-.1-1.47-.1s-23.27,10.49-41.83,11.8c-35,2.47-52.43,15.44-60.6,25a52.36,52.36,0,0,1,16.1,7.95C195.79,435.21,214.21,425,246,422.76Z"/><path class="cls-23" d="M423.19,446.75A71.67,71.67,0,0,0,404,435.66c-5.62,6.52-7.32,11.62-7.32,11.62a45.85,45.85,0,0,1,22.15,4A59.29,59.29,0,0,1,423.19,446.75Z"/><path class="cls-24" d="M542.37,533.53s0-.1,0-.28l-.55-.51C542.2,533.25,542.37,533.53,542.37,533.53Z"/><path class="cls-25" d="M425.16,445a100.55,100.55,0,0,0-16.05-14.49,58.12,58.12,0,0,0-5.08,5.18,71.67,71.67,0,0,1,19.16,11.09C423.81,446.16,424.47,445.57,425.16,445Z"/><path class="cls-26" d="M425.16,445a100.55,100.55,0,0,0-16.05-14.49,58.12,58.12,0,0,0-5.08,5.18,71.67,71.67,0,0,1,19.16,11.09C423.81,446.16,424.47,445.57,425.16,445Z"/><path class="cls-27" d="M254.59,572.12s5.52,0,13.94.49c-7.32-5.09-14.78-10.25-24.67-14.67-5.51-.23-8.89-.22-8.89-.22s-30.86,12.87-55.86,15.47c-39.44,4.11-61.81,15.38-74.23,25.33A120.36,120.36,0,0,1,125.62,612c12.62-9.72,34.82-20.46,73.11-24.45C223.73,585,254.59,572.12,254.59,572.12Z"/><path class="cls-28" d="M563.12,403s7.74,0,19.55.68c-10.27-7.14-20.73-14.38-34.6-20.58-23.71-.52-75.1-2.64-48.2-2.32,0,0,21.9,29.43-37.91,14.77-54-13.23-91.41,30.52-108.82,44.47a169.74,169.74,0,0,1,29.09,19c17.7-13.64,48.84-28.7,102.54-34.3C519.84,421.09,563.12,403,563.12,403Z"/><path class="cls-29" d="M267.32,377.31s4.43.23,11.16,1.13c-5.65-5.42-11.42-10.93-19.16-15.8-4.4-.5-7.12-.64-7.12-.64s-25.29,11.39-45.44,12.82c-31.8,2.24-50.22,12.45-60.59,21.8a100.46,100.46,0,0,1,16.05,14.48c10.53-9.12,28.79-18.79,59.66-21C242,388.7,267.32,377.31,267.32,377.31Z"/><path class="cls-30" d="M625.09,629.91c1.77-1.1,3-1.93,3.6-2.35-5.24-4.88-10.23-9.93-15.82-14.84-1.19.8-3.23,2.15-6.08,3.8A114.48,114.48,0,0,1,625.09,629.91Z"/><path class="cls-31" d="M428.71,465.74c-.61-.73-1.42-1.69-2.41-2.81a148,148,0,0,0-16-11.73,63.73,63.73,0,0,0-5.37,4.54,109.59,109.59,0,0,1,22.31,11Z"/><path class="cls-32" d="M426.3,462.93c1,1.12,1.8,2.08,2.41,2.81l.48-.32C428.25,464.59,427.29,463.76,426.3,462.93Z"/><path class="cls-33" d="M426.3,462.93c1,1.12,1.8,2.08,2.41,2.81l.48-.32C428.25,464.59,427.29,463.76,426.3,462.93Z"/><path class="cls-34" d="M426.3,462.93c1,1.12,1.8,2.08,2.41,2.81l.48-.32C428.25,464.59,427.29,463.76,426.3,462.93Z"/><path class="cls-35" d="M466.09,409.57c-63.8-15.74-73.18,20.89-76.18,29.59C405.8,430,409.53,536,452.3,532.08c30.3-2.79,111.42-46.74,111.42-46.74s46.08-63.76,71.3-60.66c7.8-3.14-27-16.27-25.25-17.12-3.42-1.9-6.78-3.82-10.17-5.75-2.54-.54-5.16-1.05-7.88-1.53-16.71-3-28-22.14-40.1-22.67,2.32,1.32-11.59,2.93-9.24,4.23C582.82,402.72,526.46,424.46,466.09,409.57Z"/><path class="cls-36" d="M517.09,435.83c-65.78-15.66-75.5,21-78.6,29.68,16.39-9.19,20.12,96.86,64.24,92.86,31.26-2.84,115-46.88,115-46.88s47.6-63.81,73.61-60.74c8-3.15-27.79-16.24-26-17.1-3.52-1.88-7-3.81-10.48-5.73-2.62-.54-5.32-1-8.13-1.53-17.22-3-28.84-22.1-41.33-22.62,2.39,1.32-12,3-9.53,4.24C637.5,428.85,579.34,450.66,517.09,435.83Z"/><path class="cls-37" d="M196.74,601.88c-30.45-1.92-39.78,21.18-42.2,29.86,13.06-9.06,34.68-18.47,70-22.14,25-2.61,55.86-15.47,55.86-15.47a274.89,274.89,0,0,1,39.18,3.16,130.33,130.33,0,0,0,11.85-6.45c-2.84-1.91-5.62-3.86-8.44-5.81q-3.13-.82-6.51-1.58a246.91,246.91,0,0,0-37.9-5.06c1.93,1.33,3.84,2.67,5.79,4C280.13,584.9,248,605.12,196.74,601.88Z"/><path class="cls-38" d="M358.06,748c2.42-8.68,11.74-31.78,42.19-29.86,51.3,3.24,83.4-17,87.59-19.51-1.94-1.31-3.86-2.64-5.78-4-8.43-.51-13.95-.48-13.95-.48S437.25,707,412.25,709.59c-38.28,4-60.48,14.72-73.11,24.45a156.65,156.65,0,0,1,14.16,12.82c1,.78,2,1.56,3,2.34C356.88,748.78,357.46,748.37,358.06,748Z"/><path class="cls-39" d="M580.39,356.09c2.42-8.68,11.75-31.78,42.19-29.86,51.3,3.24,83.4-17,87.6-19.51-1.95-1.31-3.87-2.64-5.79-4-8.42-.51-13.95-.48-13.95-.48s-30.85,12.86-55.85,15.47c-38.29,4-60.49,14.72-73.11,24.44A158,158,0,0,1,575.64,355c1,.78,2,1.56,3,2.33Z"/><path class="cls-40" d="M306.76,393.54c-11.52,5.71-45.11,19.61-90.2,8.76-38.2-9.19-50.4,35.57-50.4,35.57a174.44,174.44,0,0,0-12.29-20.44c-.64,1.7-1,2.92-1.17,3.44a177.87,177.87,0,0,1,23.67,35s12.2-44.75,50.41-35.56c52.37,12.59,89.22-8.18,94-10.75C316.14,404.32,311.74,398.89,306.76,393.54Z"/><path class="cls-41" d="M526.14,515s.13-.8.46-2.17c-1.4-1.19-2.83-2.36-4.29-3.49C524.78,512.82,526.14,515,526.14,515Z"/><path class="cls-42" d="M526.14,515s.13-.8.46-2.17c-1.4-1.19-2.83-2.36-4.29-3.49C524.78,512.82,526.14,515,526.14,515Z"/><path class="cls-43" d="M507.14,441.53c72.82,15.32,76.13-17.81,95-25.35-8.32-3.4-9.47,4.91-13.19-6.08-.78-2.3,38.51-35.64-.25-27,42.89,26.37-21,76.51-123.82,32.7-50.26-21.41-74.79,11.89-77.78,20.64-9,24,17.41,22,19.37,18.08,8.73,5.3.72,39.29,57.17,38C437,445.14,450.17,429.54,507.14,441.53Z"/><path class="cls-44" d="M212.07,398c41.42,9.47,72.94-1.71,86.75-8.14A110.93,110.93,0,0,0,279.48,379c-3.25-1.44-6.53-2.72-9.76-3.85C255.57,381.1,228.35,389,193.55,381c-30.22-6.91-42.45,22.45-45.33,31l.59.81a153.44,153.44,0,0,1,14.46,17.61C167.08,419.85,180.59,390.82,212.07,398Z"/><path class="cls-45" d="M430.34,466.43l-1.15-1-.48.32c.9,1.09,1.38,1.7,1.38,1.7S430.16,467.08,430.34,466.43Z"/><path class="cls-46" d="M430.34,466.43l-1.15-1-.48.32c.9,1.09,1.38,1.7,1.38,1.7S430.16,467.08,430.34,466.43Z"/><path class="cls-47" d="M430.34,466.43l-1.15-1-.48.32c.9,1.09,1.38,1.7,1.38,1.7S430.16,467.08,430.34,466.43Z"/><path class="cls-48" d="M430.34,466.43l-1.15-1-.48.32c.9,1.09,1.38,1.7,1.38,1.7S430.16,467.08,430.34,466.43Z"/><path class="cls-49" d="M430.34,466.43c.14-.54.36-1.28.65-2.17-.62.39-1.22.77-1.8,1.16Z"/><path class="cls-50" d="M430.34,466.43c.14-.54.36-1.28.65-2.17-.62.39-1.22.77-1.8,1.16Z"/></g></g></g></g></svg>