<svg xmlns="http://www.w3.org/2000/svg" xmlns:xlink="http://www.w3.org/1999/xlink" viewBox="0 0 972.8 972.73"><defs><style>.cls-1{isolation:isolate;}.cls-2{fill:url(#linear-gradient);}.cls-3{fill:url(#linear-gradient-2);}.cls-4{fill:url(#linear-gradient-3);}.cls-5{fill:url(#linear-gradient-4);}.cls-6{fill:url(#linear-gradient-5);}.cls-7{fill:url(#linear-gradient-6);}.cls-8{fill:url(#linear-gradient-7);}.cls-9{fill:url(#linear-gradient-8);}.cls-10{opacity:0.28;mix-blend-mode:screen;}.cls-11,.cls-12{fill:#e6e6e6;}.cls-11{mix-blend-mode:multiply;}.cls-13{fill:#0284a8;}.cls-14{fill:#0ba0a0;}.cls-15{fill:#a9e8dc;}</style><linearGradient id="linear-gradient" x1="408.83" y1="1074.49" x2="83.07" y2="64.44" gradientUnits="userSpaceOnUse"><stop offset="0.03" stop-color="#02bec4"/><stop offset="0.36" stop-color="#a9e8dc"/></linearGradient><linearGradient id="linear-gradient-2" x1="714.96" y1="963.49" x2="128.51" y2="329.36" gradientUnits="userSpaceOnUse"><stop offset="0" stop-color="#254b8e"/><stop offset="0.35" stop-color="#02bec4"/></linearGradient><linearGradient id="linear-gradient-3" x1="961.7" y1="767.3" x2="241.13" y2="-11.85" gradientUnits="userSpaceOnUse"><stop offset="0.53" stop-color="#254b8e"/><stop offset="0.85" stop-color="#02bec4"/></linearGradient><linearGradient id="linear-gradient-4" x1="644.43" y1="693.17" x2="1196.89" y2="544.5" gradientUnits="userSpaceOnUse"><stop offset="0" stop-color="#02bec4"/><stop offset="0.49" stop-color="#a9e8dc"/></linearGradient><linearGradient id="linear-gradient-5" x1="1072.4" y1="632.93" x2="351.82" y2="-146.23" gradientUnits="userSpaceOnUse"><stop offset="0.21" stop-color="#88e0d7"/><stop offset="0.6" stop-color="#f0f7fc"/></linearGradient><linearGradient id="linear-gradient-6" x1="571.37" y1="547.26" x2="762.31" y2="-496.7" gradientUnits="userSpaceOnUse"><stop offset="0.13" stop-color="#02bec4"/><stop offset="0.58" stop-color="#a9e8dc"/></linearGradient><linearGradient id="linear-gradient-7" x1="695.42" y1="981.56" x2="-25.15" y2="202.4" gradientUnits="userSpaceOnUse"><stop offset="0.03" stop-color="#02bec4"/><stop offset="1" stop-color="#a9e8dc"/></linearGradient><linearGradient id="linear-gradient-8" x1="588.17" y1="1080.75" x2="-132.4" y2="301.59" gradientUnits="userSpaceOnUse"><stop offset="0.21" stop-color="#88e0d7"/><stop offset="0.89" stop-color="#f0f7fc"/></linearGradient></defs><title>Equadratures Graph 01 no logo</title><g class="cls-1"><g id="Layer_2" data-name="Layer 2"><g id="Layer_1-2" data-name="Layer 1"><path class="cls-2" d="M334.13,652.32,149.31,837.14A484.83,484.83,0,0,0,474.67,972.73V711.31A224.41,224.41,0,0,1,334.13,652.32Z"/><path class="cls-3" d="M498.13,711.31V972.73A484.81,484.81,0,0,0,823.49,837.14L638.67,652.32A224.41,224.41,0,0,1,498.13,711.31Z"/><path class="cls-4" d="M474.67,261.42V0A484.69,484.69,0,0,0,152.28,132.76L337.2,317.68A224.27,224.27,0,0,1,474.67,261.42Z"/><path class="cls-5" d="M711.43,495.2a224.29,224.29,0,0,1-56.34,140.36L840,820.48A484.7,484.7,0,0,0,972.8,495.2Z"/><path class="cls-6" d="M711.12,471.73H972.68a484.77,484.77,0,0,0-135.5-322.45L652.36,334.1A224.3,224.3,0,0,1,711.12,471.73Z"/><path class="cls-7" d="M635.6,317.68,820.52,132.76A484.69,484.69,0,0,0,498.13,0V261.42A224.25,224.25,0,0,1,635.6,317.68Z"/><path class="cls-8" d="M320.44,334.1,135.62,149.28A484.71,484.71,0,0,0,.13,471.73H261.68A224.27,224.27,0,0,1,320.44,334.1Z"/><path class="cls-9" d="M261.38,495.2H0A484.75,484.75,0,0,0,132.79,820.49L317.72,635.56A224.18,224.18,0,0,1,261.38,495.2Z"/><g class="cls-10"><path class="cls-11" d="M334.13,651.58l-33.26,33.27a271.27,271.27,0,0,0,173.8,72.76v-47A224.35,224.35,0,0,1,334.13,651.58Z"/><path class="cls-11" d="M498.13,710.57v47a271.27,271.27,0,0,0,173.8-72.76l-33.26-33.27A224.35,224.35,0,0,1,498.13,710.57Z"/><path class="cls-11" d="M474.67,260.68v-47a271.12,271.12,0,0,0-170.78,70l33.31,33.32A224.33,224.33,0,0,1,474.67,260.68Z"/><path class="cls-12" d="M655.09,634.83l33.31,33.31a271.15,271.15,0,0,0,70.09-173.68H711.43A224.34,224.34,0,0,1,655.09,634.83Z"/><path class="cls-11" d="M711.12,471h47.14a271.19,271.19,0,0,0-72.64-170.9l-33.26,33.26A224.33,224.33,0,0,1,711.12,471Z"/><path class="cls-12" d="M635.6,316.94l33.32-33.31a271.13,271.13,0,0,0-170.79-70v47A224.3,224.3,0,0,1,635.6,316.94Z"/><path class="cls-11" d="M320.44,333.36,287.18,300.1A271.25,271.25,0,0,0,214.54,471h47.14A224.33,224.33,0,0,1,320.44,333.36Z"/><path class="cls-11" d="M261.38,494.46H214.31A271.15,271.15,0,0,0,284.4,668.14l33.32-33.31A224.23,224.23,0,0,1,261.38,494.46Z"/></g><path class="cls-13" d="M268.5,820.29V809.84c0-2.35-1.49-3.15-2.85-3.15a2.81,2.81,0,0,0-2.89,3.15v10.45h-4.31V803h4.21v1.59a5.93,5.93,0,0,1,4.31-1.79,5.61,5.61,0,0,1,4.08,1.53,6.42,6.42,0,0,1,1.76,4.91v11Z"/><path class="cls-13" d="M287.4,820.29V818.7a5.93,5.93,0,0,1-4.31,1.79A5.61,5.61,0,0,1,279,819a6.42,6.42,0,0,1-1.76-4.91V803h4.31v10.45c0,2.35,1.49,3.15,2.85,3.15a2.81,2.81,0,0,0,2.89-3.15V803h4.31v17.28Z"/><path class="cls-13" d="M316.54,820.29V809.84c0-2.35-1.49-3.15-2.85-3.15a2.79,2.79,0,0,0-2.89,3v10.55h-4.31V809.84c0-2.35-1.49-3.15-2.85-3.15a2.8,2.8,0,0,0-2.88,3.15v10.45h-4.31V803h4.21v1.59a6.05,6.05,0,0,1,4.31-1.79,5.35,5.35,0,0,1,4.57,2.19,6.62,6.62,0,0,1,5.18-2.19,6,6,0,0,1,4.24,1.53,6.49,6.49,0,0,1,1.89,4.91v11Z"/><path class="cls-13" d="M328.87,813a3.54,3.54,0,0,0,3.78,3.85,4.88,4.88,0,0,0,3.92-1.63l2.62,2.56a8.13,8.13,0,0,1-6.57,2.72c-4.08,0-8-1.86-8-8.86,0-5.63,3.05-8.82,7.53-8.82,4.8,0,7.53,3.45,7.53,8.36V813Zm6.17-4.8a3.21,3.21,0,0,0-5.77,0,4.26,4.26,0,0,0-.4,1.85h6.57A4.12,4.12,0,0,0,335,808.19Z"/><path class="cls-13" d="M353,807.72a2.88,2.88,0,0,0-5.07,2.16v10.41h-4.31V803h4.21v1.66a5.88,5.88,0,0,1,4.35-1.86,5.17,5.17,0,0,1,4.07,1.63Z"/><path class="cls-13" d="M358.68,800.06v-3.51h4.41v3.51Zm.07,20.23V803.51h4.31v16.78Z"/><path class="cls-13" d="M374.73,820.49c-3.45,0-7.73-1.86-7.73-8.86s4.28-8.82,7.73-8.82a7.34,7.34,0,0,1,5.7,2.32l-2.91,2.92a3.5,3.5,0,0,0-2.79-1.36,3,3,0,0,0-2.45,1.13,5.81,5.81,0,0,0-1,3.81,5.92,5.92,0,0,0,1,3.85,3,3,0,0,0,2.45,1.13,3.5,3.5,0,0,0,2.79-1.36l2.91,2.88A7.37,7.37,0,0,1,374.73,820.49Z"/><path class="cls-13" d="M392.47,820.29v-1.5a5.26,5.26,0,0,1-4.25,1.66,6,6,0,0,1-4.41-1.52,5.58,5.58,0,0,1-1.42-3.88c0-2.75,1.89-5,6-5h4v-.86c0-1.89-.93-2.72-3.22-2.72a3.81,3.81,0,0,0-3.31,1.49l-2.72-2.68c1.69-1.86,3.31-2.46,6.2-2.46,4.87,0,7.36,2.06,7.36,6.1v11.38Zm-.1-7.3h-3.28c-1.73,0-2.56.7-2.56,2s.83,2,2.62,2a3.25,3.25,0,0,0,2.55-.83,2.66,2.66,0,0,0,.67-2.19Z"/><path class="cls-13" d="M406.2,820.29a4.69,4.69,0,0,1-5-4.94V796.68h4.31v18.4c0,1,.43,1.56,1.52,1.56h1.66v3.65Z"/><path class="cls-13" d="M417.77,820.49c-2.72,0-5.14-.3-7.36-2.49l2.81-2.82a6.24,6.24,0,0,0,4.61,1.63c1.49,0,3.05-.5,3.05-1.79,0-.87-.43-1.46-1.82-1.6l-2.78-.26c-3.06-.3-5-1.66-5-4.84,0-3.62,3.15-5.51,6.66-5.51,2.72,0,5,.5,6.6,2l-2.65,2.68a6,6,0,0,0-4-1.16c-1.72,0-2.45.8-2.45,1.66s.49,1.36,1.79,1.49l2.71.27c3.42.33,5.14,2.12,5.14,5.07C425.09,818.66,421.85,820.49,417.77,820.49Z"/><path class="cls-13" d="M258.38,830.42v-3.51h4.41v3.51Zm.07,20.23V833.87h4.31v16.78Z"/><path class="cls-13" d="M277.62,850.65V840.2c0-2.35-1.5-3.15-2.86-3.15a2.8,2.8,0,0,0-2.88,3.15v10.45h-4.31V833.37h4.21V835a5.93,5.93,0,0,1,4.31-1.79,5.63,5.63,0,0,1,4.08,1.53,6.4,6.4,0,0,1,1.76,4.91v11Z"/><path class="cls-13" d="M292,850.65a4.69,4.69,0,0,1-5-4.95v-8.55h-1.82v-3.28H287v-5.11h4.32v5.11h3.05v3.28h-3.05v8.29c0,1,.46,1.56,1.49,1.56h1.56v3.65Z"/><path class="cls-13" d="M301.45,843.35a3.54,3.54,0,0,0,3.78,3.85,4.91,4.91,0,0,0,3.92-1.63l2.62,2.56a8.13,8.13,0,0,1-6.57,2.72c-4.08,0-8-1.86-8-8.86,0-5.63,3.05-8.82,7.53-8.82,4.8,0,7.53,3.45,7.53,8.36v1.82Zm6.17-4.81a3.22,3.22,0,0,0-5.77,0,4.34,4.34,0,0,0-.4,1.86H308A4.19,4.19,0,0,0,307.62,838.54Z"/><path class="cls-13" d="M322.21,857.18a8.07,8.07,0,0,1-6.27-2.26l2.69-2.72a4.39,4.39,0,0,0,3.38,1.33,3.26,3.26,0,0,0,3.48-3.58v-1.76a5.05,5.05,0,0,1-4.11,1.73,5.75,5.75,0,0,1-4.11-1.53c-1.63-1.62-1.76-3.85-1.76-6.86s.13-5.21,1.76-6.83a5.83,5.83,0,0,1,4.14-1.53,5,5,0,0,1,4.21,1.83v-1.63h4.18V850C329.8,854.16,326.85,857.18,322.21,857.18Zm.43-20.13c-2.55,0-2.82,2.19-2.82,4.48s.27,4.51,2.82,4.51,2.85-2.22,2.85-4.51S325.2,837.05,322.64,837.05Z"/><path class="cls-13" d="M344,838.08a2.88,2.88,0,0,0-5.08,2.15v10.42h-4.31V833.37h4.22V835a5.8,5.8,0,0,1,4.34-1.86,5.21,5.21,0,0,1,4.08,1.63Z"/><path class="cls-13" d="M358.25,850.65v-1.5a5.24,5.24,0,0,1-4.24,1.66,6,6,0,0,1-4.41-1.52,5.56,5.56,0,0,1-1.43-3.88c0-2.76,1.89-5,6-5h4v-.86c0-1.89-.93-2.72-3.21-2.72a3.83,3.83,0,0,0-3.32,1.49l-2.72-2.69c1.69-1.85,3.32-2.45,6.2-2.45,4.88,0,7.36,2.06,7.36,6.1v11.38Zm-.1-7.3h-3.28c-1.73,0-2.55.7-2.55,2s.82,2,2.62,2a3.3,3.3,0,0,0,2.55-.83,2.67,2.67,0,0,0,.66-2.19Z"/><path class="cls-13" d="M372.51,850.65a4.69,4.69,0,0,1-5-4.95v-8.55h-1.82v-3.28h1.82v-5.11h4.31v5.11h3.05v3.28h-3.05v8.29c0,1,.47,1.56,1.49,1.56h1.56v3.65Z"/><path class="cls-13" d="M378.71,830.42v-3.51h4.41v3.51Zm.07,20.23V833.87h4.3v16.78Z"/><path class="cls-13" d="M399.83,848.72a7.22,7.22,0,0,1-5.37,2.13,7.11,7.11,0,0,1-5.34-2.13c-1.56-1.66-2-3.61-2-6.73s.4-5,2-6.7a7.82,7.82,0,0,1,10.71,0c1.56,1.66,1.95,3.58,1.95,6.7S401.42,847.1,399.83,848.72Zm-3.35-10.91a2.75,2.75,0,0,0-2-.76,2.71,2.71,0,0,0-2,.76c-.9.87-1,2.42-1,4.18s.1,3.35,1,4.21a2.68,2.68,0,0,0,2,.76,2.71,2.71,0,0,0,2-.76c.89-.86,1-2.42,1-4.21S397.37,838.68,396.48,837.81Z"/><path class="cls-13" d="M415.94,850.65V840.2c0-2.35-1.49-3.15-2.85-3.15a2.8,2.8,0,0,0-2.88,3.15v10.45H405.9V833.37h4.21V835a5.92,5.92,0,0,1,4.31-1.79,5.64,5.64,0,0,1,4.08,1.53,6.39,6.39,0,0,1,1.75,4.91v11Z"/><path class="cls-14" d="M65.12,619a5.81,5.81,0,0,1-4.18,1.55,5.07,5.07,0,0,1-4.18-1.72v7.86H52.45V603.06h4.18v1.63a5.2,5.2,0,0,1,4.31-1.83,5.82,5.82,0,0,1,4.18,1.56c1.66,1.69,1.79,4.38,1.79,7.26S66.78,617.28,65.12,619Zm-5.44-12.24c-2.58,0-2.92,2.16-2.92,4.94s.34,5,2.92,5,2.92-2.19,2.92-5S62.27,606.74,59.68,606.74Z"/><path class="cls-14" d="M83,618.41a7.22,7.22,0,0,1-5.37,2.12,7.11,7.11,0,0,1-5.34-2.12c-1.56-1.65-2-3.61-2-6.73s.4-5,2-6.7A7.82,7.82,0,0,1,83,605c1.56,1.66,2,3.59,2,6.7S84.55,616.79,83,618.41ZM79.61,607.5a2.75,2.75,0,0,0-2-.76,2.71,2.71,0,0,0-2,.76c-.9.87-1,2.43-1,4.18s.1,3.35,1,4.21a2.68,2.68,0,0,0,2,.77,2.72,2.72,0,0,0,2-.77c.89-.86,1-2.42,1-4.21S80.5,608.37,79.61,607.5Z"/><path class="cls-14" d="M93.9,620.34a4.69,4.69,0,0,1-5-4.94V596.73h4.31v18.4c0,1,.43,1.56,1.53,1.56h1.65v3.65Z"/><path class="cls-14" d="M105.24,623.12a6.22,6.22,0,0,1-1.29,2.22,5,5,0,0,1-3.72,1.33H98.54v-3.88h1a1.87,1.87,0,0,0,2.16-1.56l.73-2.12-5.9-16.05h4.54l3.58,10.68,3.45-10.68h4.54Z"/><path class="cls-14" d="M125.23,620.34V609.89c0-2.35-1.49-3.15-2.85-3.15a2.81,2.81,0,0,0-2.89,3.15v10.45h-4.3V603.06h4.21v1.59a5.92,5.92,0,0,1,4.31-1.79,5.6,5.6,0,0,1,4.07,1.53,6.36,6.36,0,0,1,1.76,4.9v11.05Z"/><path class="cls-14" d="M146.12,618.41a7.2,7.2,0,0,1-5.37,2.12,7.13,7.13,0,0,1-5.34-2.12c-1.56-1.65-2-3.61-2-6.73s.4-5,2-6.7a7.16,7.16,0,0,1,5.34-2.12,7.09,7.09,0,0,1,5.37,2.12c1.56,1.66,2,3.59,2,6.7S147.71,616.79,146.12,618.41Zm-3.35-10.91a3,3,0,0,0-4,0c-.9.87-1,2.43-1,4.18s.09,3.35,1,4.21a3,3,0,0,0,4,0c.9-.86,1-2.42,1-4.21S143.67,608.37,142.77,607.5Z"/><path class="cls-14" d="M172.28,620.34V609.89c0-2.35-1.49-3.15-2.85-3.15a2.79,2.79,0,0,0-2.89,3v10.55h-4.31V609.89c0-2.35-1.49-3.15-2.85-3.15a2.8,2.8,0,0,0-2.88,3.15v10.45h-4.31V603.06h4.21v1.59a6.05,6.05,0,0,1,4.31-1.79,5.35,5.35,0,0,1,4.57,2.19,6.62,6.62,0,0,1,5.18-2.19,6,6,0,0,1,4.24,1.53,6.5,6.5,0,0,1,1.89,4.9v11.05Z"/><path class="cls-14" d="M181.17,600.11V596.6h4.41v3.51Zm.06,20.23V603.56h4.31v16.78Z"/><path class="cls-14" d="M199.2,620.34v-1.5A5.24,5.24,0,0,1,195,620.5a6,6,0,0,1-4.41-1.52,5.54,5.54,0,0,1-1.43-3.88c0-2.75,1.89-5,6-5h4v-.86c0-1.89-.92-2.72-3.21-2.72a3.83,3.83,0,0,0-3.32,1.49l-2.72-2.68c1.69-1.86,3.32-2.46,6.2-2.46,4.88,0,7.36,2.06,7.36,6.1v11.38Zm-.1-7.3h-3.28c-1.72,0-2.55.7-2.55,2s.83,2,2.62,2a3.26,3.26,0,0,0,2.55-.83,2.67,2.67,0,0,0,.66-2.19Z"/><path class="cls-14" d="M212.93,620.34a4.69,4.69,0,0,1-5-4.94V596.73h4.31v18.4c0,1,.43,1.56,1.53,1.56h1.65v3.65Z"/><path class="cls-14" d="M59.32,650.89c-3.45,0-7.73-1.85-7.73-8.85s4.28-8.82,7.73-8.82a7.37,7.37,0,0,1,5.7,2.32l-2.92,2.92a3.49,3.49,0,0,0-2.78-1.36,3,3,0,0,0-2.46,1.13,5.87,5.87,0,0,0-1,3.81,6,6,0,0,0,1,3.85A3,3,0,0,0,59.32,647a3.46,3.46,0,0,0,2.78-1.36L65,648.54A7.4,7.4,0,0,1,59.32,650.89Z"/><path class="cls-14" d="M78.41,650.7V640.25c0-2.35-1.49-3.15-2.85-3.15a2.8,2.8,0,0,0-2.88,3.15V650.7H68.37V627.09h4.31V635a6,6,0,0,1,8.29-.26,6.39,6.39,0,0,1,1.75,4.9V650.7Z"/><path class="cls-14" d="M96.22,650.7v-1.5A5.26,5.26,0,0,1,92,650.86a6,6,0,0,1-4.41-1.52,5.6,5.6,0,0,1-1.42-3.89c0-2.75,1.89-5,6-5h4v-.86c0-1.89-.93-2.72-3.22-2.72a3.82,3.82,0,0,0-3.31,1.49l-2.72-2.69c1.69-1.85,3.32-2.45,6.2-2.45,4.87,0,7.36,2.06,7.36,6.1V650.7Zm-.1-7.3H92.84c-1.73,0-2.56.7-2.56,2s.83,2,2.62,2a3.32,3.32,0,0,0,2.56-.83,2.71,2.71,0,0,0,.66-2.19Z"/><path class="cls-14" d="M117,648.77a7.22,7.22,0,0,1-5.37,2.12,7.11,7.11,0,0,1-5.34-2.12c-1.56-1.66-2-3.61-2-6.73s.4-5,2-6.7a7.82,7.82,0,0,1,10.71,0c1.56,1.66,1.95,3.58,1.95,6.7S118.6,647.15,117,648.77Zm-3.35-10.91a2.75,2.75,0,0,0-2-.76,2.71,2.71,0,0,0-2,.76c-.9.86-1,2.42-1,4.18s.1,3.35,1,4.21a2.68,2.68,0,0,0,2,.76,2.71,2.71,0,0,0,2-.76c.89-.86,1-2.42,1-4.21S114.55,638.72,113.66,637.86Z"/><path class="cls-14" d="M128.75,650.89c-2.72,0-5.14-.29-7.37-2.48l2.82-2.82a6.27,6.27,0,0,0,4.61,1.62c1.49,0,3.05-.49,3.05-1.79,0-.86-.43-1.46-1.82-1.59l-2.79-.26c-3-.3-5-1.66-5-4.85,0-3.61,3.15-5.5,6.67-5.5,2.71,0,4.93.5,6.59,2l-2.65,2.69a5.92,5.92,0,0,0-4-1.16c-1.73,0-2.45.79-2.45,1.66s.49,1.35,1.78,1.49l2.72.26c3.42.34,5.14,2.13,5.14,5.08C136.07,649.07,132.82,650.89,128.75,650.89Z"/><path class="cls-15" d="M556.94,820.49c-2.72,0-5.14-.3-7.36-2.49l2.82-2.82a6.21,6.21,0,0,0,4.61,1.63c1.49,0,3-.5,3-1.79,0-.87-.43-1.46-1.82-1.59l-2.79-.27c-3.05-.3-5-1.66-5-4.84,0-3.62,3.15-5.51,6.66-5.51,2.72,0,4.94.5,6.6,2l-2.65,2.68a6,6,0,0,0-4-1.16c-1.73,0-2.46.8-2.46,1.66s.5,1.36,1.79,1.49l2.72.27c3.42.33,5.14,2.12,5.14,5.07C564.27,818.66,561,820.49,556.94,820.49Z"/><path class="cls-15" d="M571.27,813a3.53,3.53,0,0,0,3.78,3.85,4.85,4.85,0,0,0,3.91-1.63l2.62,2.56a8.13,8.13,0,0,1-6.57,2.72c-4.07,0-8-1.86-8-8.86,0-5.63,3.05-8.82,7.53-8.82,4.81,0,7.53,3.45,7.53,8.36V813Zm6.16-4.8a3.22,3.22,0,0,0-5.77,0,4.29,4.29,0,0,0-.39,1.85h6.56A4.15,4.15,0,0,0,577.43,808.19Z"/><path class="cls-15" d="M596.1,820.29V809.84c0-2.35-1.49-3.15-2.85-3.15a2.81,2.81,0,0,0-2.89,3.15v10.45h-4.31V803h4.22v1.6a5.87,5.87,0,0,1,4.31-1.8,5.6,5.6,0,0,1,4.07,1.53,6.38,6.38,0,0,1,1.76,4.91v11Z"/><path class="cls-15" d="M610.72,820.49c-2.72,0-5.14-.3-7.36-2.49l2.82-2.82a6.21,6.21,0,0,0,4.61,1.63c1.49,0,3.05-.5,3.05-1.79,0-.87-.43-1.46-1.82-1.59l-2.79-.27c-3.05-.3-5-1.66-5-4.84,0-3.62,3.15-5.51,6.66-5.51,2.72,0,4.94.5,6.6,2l-2.65,2.68a6,6,0,0,0-4-1.16c-1.73,0-2.46.8-2.46,1.66s.5,1.36,1.79,1.49l2.72.27c3.42.33,5.14,2.12,5.14,5.07C618.05,818.66,614.8,820.49,610.72,820.49Z"/><path class="cls-15" d="M621.6,800.06v-3.51H626v3.51Zm.06,20.23V803.51H626v16.78Z"/><path class="cls-15" d="M636.19,820.29a4.69,4.69,0,0,1-5-4.94v-8.56h-1.82v-3.28h1.82V798.4h4.31v5.11h3v3.28h-3v8.29c0,1,.46,1.56,1.49,1.56h1.56v3.65Z"/><path class="cls-15" d="M642.39,800.06v-3.51h4.4v3.51Zm.06,20.23V803.51h4.31v16.78Z"/><path class="cls-15" d="M659,820.29h-3.38L649.28,803h4.54l3.52,10.68L660.82,803h4.54Z"/><path class="cls-15" d="M667.85,800.06v-3.51h4.41v3.51Zm.07,20.23V803.51h4.31v16.78Z"/><path class="cls-15" d="M682.44,820.29a4.69,4.69,0,0,1-5-4.94v-8.56h-1.82v-3.28h1.82V798.4h4.31v5.11h3v3.28h-3v8.29c0,1,.47,1.56,1.49,1.56h1.56v3.65Z"/><path class="cls-15" d="M695.14,823.07a6.14,6.14,0,0,1-1.3,2.22,5,5,0,0,1-3.71,1.33h-1.69v-3.88h1a1.86,1.86,0,0,0,2.15-1.56l.73-2.12-5.9-16H691l3.58,10.68L698,803h4.54Z"/><path class="cls-15" d="M560.13,850.65v-1.5a5.26,5.26,0,0,1-4.25,1.66,6,6,0,0,1-4.41-1.52,5.53,5.53,0,0,1-1.42-3.88c0-2.75,1.89-5,6-5h4v-.86c0-1.89-.93-2.72-3.22-2.72a3.83,3.83,0,0,0-3.32,1.49l-2.71-2.68c1.69-1.86,3.31-2.46,6.2-2.46,4.87,0,7.36,2.06,7.36,6.1v11.38Zm-.1-7.3h-3.29c-1.72,0-2.55.7-2.55,2s.83,2,2.62,2a3.26,3.26,0,0,0,2.55-.83,2.67,2.67,0,0,0,.67-2.19Z"/><path class="cls-15" d="M579,850.65V840.2c0-2.35-1.5-3.15-2.86-3.15a2.8,2.8,0,0,0-2.88,3.15v10.45H569V833.37h4.21V835a5.93,5.93,0,0,1,4.31-1.79,5.63,5.63,0,0,1,4.08,1.53,6.4,6.4,0,0,1,1.76,4.91v11Z"/><path class="cls-15" d="M596.83,850.65v-1.5a5.24,5.24,0,0,1-4.24,1.66,6,6,0,0,1-4.41-1.52,5.54,5.54,0,0,1-1.43-3.88c0-2.75,1.89-5,6-5h4v-.86c0-1.89-.93-2.72-3.21-2.72a3.83,3.83,0,0,0-3.32,1.49l-2.72-2.68c1.69-1.86,3.32-2.46,6.2-2.46,4.87,0,7.36,2.06,7.36,6.1v11.38Zm-.1-7.3h-3.28c-1.73,0-2.56.7-2.56,2s.83,2,2.63,2a3.26,3.26,0,0,0,2.55-.83,2.71,2.71,0,0,0,.66-2.19Z"/><path class="cls-15" d="M610.56,850.65a4.69,4.69,0,0,1-5-4.94V827h4.31v18.4c0,1,.43,1.56,1.52,1.56H613v3.65Z"/><path class="cls-15" d="M621.9,853.43a6.23,6.23,0,0,1-1.3,2.22,5,5,0,0,1-3.71,1.33H615.2V853.1h1a1.87,1.87,0,0,0,2.16-1.56l.73-2.12-5.9-16h4.54l3.58,10.68,3.45-10.68h4.54Z"/><path class="cls-15" d="M637.35,850.85c-2.72,0-5.14-.3-7.36-2.49l2.81-2.82a6.24,6.24,0,0,0,4.61,1.63c1.5,0,3.05-.5,3.05-1.8,0-.86-.43-1.45-1.82-1.59l-2.78-.26c-3.06-.3-5-1.66-5-4.84,0-3.62,3.15-5.51,6.67-5.51,2.72,0,4.94.5,6.59,2l-2.65,2.68a6,6,0,0,0-4-1.16c-1.72,0-2.45.8-2.45,1.66s.49,1.36,1.79,1.49l2.71.27c3.42.33,5.15,2.12,5.15,5.07C644.68,849,641.43,850.85,637.35,850.85Z"/><path class="cls-15" d="M648.22,830.42v-3.51h4.41v3.51Zm.07,20.23V833.87h4.31v16.78Z"/><path class="cls-15" d="M663.08,850.85c-2.72,0-5.14-.3-7.37-2.49l2.82-2.82a6.24,6.24,0,0,0,4.61,1.63c1.49,0,3.05-.5,3.05-1.8,0-.86-.43-1.45-1.82-1.59l-2.79-.26c-3.05-.3-5-1.66-5-4.84,0-3.62,3.15-5.51,6.67-5.51,2.71,0,4.93.5,6.59,2l-2.65,2.68a6,6,0,0,0-4-1.16c-1.73,0-2.45.8-2.45,1.66s.49,1.36,1.78,1.49l2.72.27c3.42.33,5.14,2.12,5.14,5.07C670.4,849,667.15,850.85,663.08,850.85Z"/><path class="cls-13" d="M770.12,620.34v-1.5a5.26,5.26,0,0,1-4.25,1.66,6,6,0,0,1-4.41-1.52A5.53,5.53,0,0,1,760,615.1c0-2.75,1.89-5,6-5h4v-.86c0-1.89-.93-2.72-3.22-2.72a3.83,3.83,0,0,0-3.32,1.49l-2.71-2.68c1.69-1.86,3.31-2.46,6.2-2.46,4.87,0,7.36,2.06,7.36,6.1v11.38ZM770,613h-3.29c-1.72,0-2.55.7-2.55,2s.83,2,2.62,2a3.26,3.26,0,0,0,2.55-.83A2.67,2.67,0,0,0,770,614Z"/><path class="cls-13" d="M785.83,620.53c-3.45,0-7.72-1.85-7.72-8.85s4.27-8.82,7.72-8.82a7.34,7.34,0,0,1,5.7,2.32l-2.91,2.92a3.5,3.5,0,0,0-2.79-1.36,3,3,0,0,0-2.45,1.13,5.81,5.81,0,0,0-1,3.81,5.92,5.92,0,0,0,1,3.85,3,3,0,0,0,2.45,1.13,3.5,3.5,0,0,0,2.79-1.36l2.91,2.88A7.37,7.37,0,0,1,785.83,620.53Z"/><path class="cls-13" d="M800.29,620.34a4.69,4.69,0,0,1-5-4.94v-8.56h-1.82v-3.28h1.82v-5.11h4.31v5.11h3v3.28h-3v8.29a1.36,1.36,0,0,0,1.49,1.56h1.56v3.65Z"/><path class="cls-13" d="M806.49,600.11V596.6h4.41v3.51Zm.06,20.23V603.56h4.32v16.78Z"/><path class="cls-13" d="M823.13,620.34h-3.38l-6.37-17.28h4.55l3.51,10.68,3.48-10.68h4.55Z"/><path class="cls-13" d="M835.07,613a3.54,3.54,0,0,0,3.78,3.85,4.88,4.88,0,0,0,3.91-1.63l2.62,2.56a8.12,8.12,0,0,1-6.56,2.71c-4.08,0-8-1.85-8-8.85,0-5.64,3-8.82,7.52-8.82,4.81,0,7.53,3.45,7.53,8.36V613Zm6.17-4.81a3.22,3.22,0,0,0-5.77,0,4.19,4.19,0,0,0-.4,1.86h6.56A4.33,4.33,0,0,0,841.24,608.23Z"/><path class="cls-13" d="M766.93,650.89c-2.72,0-5.14-.29-7.36-2.48l2.82-2.82a6.24,6.24,0,0,0,4.61,1.62c1.49,0,3-.49,3-1.79,0-.86-.43-1.46-1.82-1.59l-2.79-.26c-3.05-.3-5-1.66-5-4.85,0-3.61,3.15-5.5,6.66-5.5,2.72,0,4.94.5,6.6,2l-2.65,2.69a5.93,5.93,0,0,0-4-1.16c-1.73,0-2.46.79-2.46,1.66s.5,1.35,1.79,1.49l2.72.26c3.42.34,5.14,2.13,5.14,5.08C774.26,649.07,771,650.89,766.93,650.89Z"/><path class="cls-13" d="M787.82,650.7v-1.6a5.88,5.88,0,0,1-4.31,1.79,5.62,5.62,0,0,1-4.08-1.52,6.41,6.41,0,0,1-1.75-4.91v-11H782v10.45c0,2.35,1.49,3.14,2.85,3.14a2.79,2.79,0,0,0,2.88-3.14V633.42H792V650.7Z"/><path class="cls-13" d="M809.54,649.34a5.81,5.81,0,0,1-4.18,1.55,5.19,5.19,0,0,1-4.31-1.82v1.63h-4.18V627.09h4.31V635a5.08,5.08,0,0,1,4.18-1.73,5.71,5.71,0,0,1,4.18,1.56c1.66,1.69,1.79,4.38,1.79,7.26S811.2,647.64,809.54,649.34ZM804.1,637.1c-2.58,0-2.92,2.16-2.92,4.94s.34,5,2.92,5,2.92-2.18,2.92-5S806.69,637.1,804.1,637.1Z"/><path class="cls-13" d="M821.11,650.89c-2.72,0-5.14-.29-7.36-2.48l2.82-2.82a6.24,6.24,0,0,0,4.61,1.62c1.49,0,3.05-.49,3.05-1.79,0-.86-.43-1.46-1.83-1.59l-2.78-.26c-3-.3-5-1.66-5-4.85,0-3.61,3.14-5.5,6.66-5.5,2.72,0,4.94.5,6.6,2l-2.65,2.69a6,6,0,0,0-4-1.16c-1.72,0-2.45.79-2.45,1.66s.5,1.35,1.79,1.49l2.72.26c3.41.34,5.14,2.13,5.14,5.08C828.44,649.07,825.19,650.89,821.11,650.89Z"/><path class="cls-13" d="M844.72,649.34a5.81,5.81,0,0,1-4.18,1.55,5.07,5.07,0,0,1-4.18-1.72V657h-4.31V633.42h4.18V635a5.22,5.22,0,0,1,4.31-1.82,5.77,5.77,0,0,1,4.18,1.56c1.65,1.69,1.79,4.38,1.79,7.26S846.37,647.64,844.72,649.34Zm-5.44-12.24c-2.59,0-2.92,2.16-2.92,4.94s.33,5,2.92,5,2.92-2.18,2.92-5S841.87,637.1,839.28,637.1Z"/><path class="cls-13" d="M859.47,650.7v-1.5a5.24,5.24,0,0,1-4.24,1.66,6,6,0,0,1-4.41-1.52,5.56,5.56,0,0,1-1.43-3.89c0-2.75,1.89-5,6-5h4v-.86c0-1.89-.92-2.72-3.21-2.72a3.83,3.83,0,0,0-3.32,1.49l-2.72-2.69c1.69-1.85,3.32-2.45,6.2-2.45,4.88,0,7.36,2.06,7.36,6.1V650.7Zm-.1-7.3h-3.28c-1.72,0-2.55.7-2.55,2s.83,2,2.62,2a3.3,3.3,0,0,0,2.55-.83,2.67,2.67,0,0,0,.66-2.19Z"/><path class="cls-13" d="M875.19,650.89c-3.45,0-7.73-1.85-7.73-8.85s4.28-8.82,7.73-8.82a7.34,7.34,0,0,1,5.7,2.32L878,638.46a3.47,3.47,0,0,0-2.78-1.36,3,3,0,0,0-2.46,1.13,5.87,5.87,0,0,0-1,3.81,6,6,0,0,0,1,3.85,3,3,0,0,0,2.46,1.12,3.44,3.44,0,0,0,2.78-1.36l2.92,2.89A7.37,7.37,0,0,1,875.19,650.89Z"/><path class="cls-13" d="M887.12,643.4a3.54,3.54,0,0,0,3.78,3.85,4.91,4.91,0,0,0,3.92-1.63l2.62,2.56a8.16,8.16,0,0,1-6.57,2.71c-4.08,0-8-1.85-8-8.85,0-5.64,3-8.82,7.53-8.82,4.8,0,7.53,3.45,7.53,8.36v1.82Zm6.17-4.81a3.22,3.22,0,0,0-5.77,0,4.34,4.34,0,0,0-.4,1.86h6.57A4.19,4.19,0,0,0,893.29,638.59Z"/><path class="cls-13" d="M51.78,331a2.87,2.87,0,0,0-5.05,2.15v10.36H42.44V326.27h4.19v1.65A5.84,5.84,0,0,1,51,326.07,5.19,5.19,0,0,1,55,327.69Z"/><path class="cls-13" d="M57.39,323.33v-3.5h4.39v3.5Zm.06,20.13v-16.7h4.3v16.7Z"/><path class="cls-13" d="M76,343.46v-1.61a5.17,5.17,0,0,1-4.26,1.81,5.77,5.77,0,0,1-4.19-1.55c-1.65-1.68-1.79-4.36-1.79-7.26s.14-5.55,1.79-7.23a5.69,5.69,0,0,1,4.16-1.55,5.18,5.18,0,0,1,4.19,1.71V320h4.29v23.5Zm-3-13.53c-2.57,0-2.9,2.15-2.9,4.92s.33,4.95,2.9,4.95,2.94-2.18,2.94-4.95S75.57,329.93,73,329.93Z"/><path class="cls-13" d="M91,350a8,8,0,0,1-6.23-2.24L87.42,345a4.35,4.35,0,0,0,3.36,1.32,3.25,3.25,0,0,0,3.47-3.56V341a5,5,0,0,1-4.09,1.72,5.68,5.68,0,0,1-4.09-1.52c-1.62-1.62-1.75-3.83-1.75-6.83s.13-5.19,1.75-6.8a5.77,5.77,0,0,1,4.12-1.52,5,5,0,0,1,4.19,1.81v-1.61h4.16v16.57C98.54,347,95.6,350,91,350Zm.43-20c-2.54,0-2.8,2.18-2.8,4.46s.26,4.48,2.8,4.48,2.84-2.21,2.84-4.48S94,329.93,91.41,329.93Z"/><path class="cls-13" d="M106.72,336.2a3.52,3.52,0,0,0,3.77,3.83,4.84,4.84,0,0,0,3.89-1.62L117,341a8.07,8.07,0,0,1-6.54,2.71c-4.06,0-8-1.85-8-8.81,0-5.61,3-8.78,7.49-8.78,4.79,0,7.49,3.43,7.49,8.32v1.81Zm6.14-4.78a3.2,3.2,0,0,0-5.74,0,4.21,4.21,0,0,0-.4,1.84h6.54A4.08,4.08,0,0,0,112.86,331.42Z"/><path class="cls-13" d="M51.25,373.82v-1.48A5.23,5.23,0,0,1,47,374a5.94,5.94,0,0,1-4.39-1.52,5.5,5.5,0,0,1-1.42-3.86c0-2.74,1.88-5,5.94-5h4v-.86c0-1.88-.92-2.7-3.2-2.7a3.82,3.82,0,0,0-3.3,1.48L42,358.87c1.68-1.85,3.3-2.44,6.17-2.44,4.85,0,7.33,2,7.33,6.07v11.32Zm-.1-7.26H47.89c-1.72,0-2.54.69-2.54,2s.82,1.95,2.6,1.95a3.23,3.23,0,0,0,2.54-.83,2.65,2.65,0,0,0,.66-2.18Z"/><path class="cls-13" d="M72.67,372.47A5.76,5.76,0,0,1,68.51,374a5,5,0,0,1-4.16-1.72v7.82H60.06v-23.5h4.16v1.62a5.18,5.18,0,0,1,4.29-1.81A5.76,5.76,0,0,1,72.67,358c1.65,1.68,1.78,4.36,1.78,7.23S74.32,370.78,72.67,372.47Zm-5.41-12.18c-2.58,0-2.91,2.14-2.91,4.92s.33,5,2.91,5,2.9-2.18,2.9-5S69.83,360.29,67.26,360.29Z"/><path class="cls-13" d="M91.15,372.47A5.76,5.76,0,0,1,87,374a5,5,0,0,1-4.16-1.72v7.82H78.54v-23.5H82.7v1.62A5.18,5.18,0,0,1,87,356.43,5.76,5.76,0,0,1,91.15,358c1.65,1.68,1.78,4.36,1.78,7.23S92.8,370.78,91.15,372.47Zm-5.41-12.18c-2.58,0-2.91,2.14-2.91,4.92s.33,5,2.91,5,2.9-2.18,2.9-5S88.31,360.29,85.74,360.29Z"/><path class="cls-13" d="M106.36,361.31a2.87,2.87,0,0,0-5,2.15v10.36H97v-17.2h4.19v1.66a5.81,5.81,0,0,1,4.33-1.85A5.22,5.22,0,0,1,109.6,358Z"/><path class="cls-13" d="M122.93,371.91a7.2,7.2,0,0,1-5.35,2.11,7.1,7.1,0,0,1-5.31-2.11c-1.55-1.65-2-3.6-2-6.7s.4-5,2-6.67a7.79,7.79,0,0,1,10.66,0c1.55,1.65,1.95,3.56,1.95,6.67S124.51,370.29,122.93,371.91Zm-3.33-10.86a2.71,2.71,0,0,0-2-.76,2.68,2.68,0,0,0-2,.76c-.89.86-1,2.41-1,4.16s.1,3.33,1,4.19a2.72,2.72,0,0,0,2,.76,2.75,2.75,0,0,0,2-.76c.89-.86,1-2.41,1-4.19S120.49,361.91,119.6,361.05Z"/><path class="cls-13" d="M137.75,373.82l-3.17-5.15-3.14,5.15h-5.15l5.94-8.78-5.71-8.42h5.15l2.91,4.92,2.93-4.92h5.15L137,365l5.94,8.78Z"/><path class="cls-13" d="M145.63,353.69v-3.5H150v3.5Zm.07,20.13v-16.7H150v16.7Z"/><path class="cls-13" d="M174.77,373.82v-10.4c0-2.34-1.48-3.13-2.83-3.13a2.78,2.78,0,0,0-2.88,3v10.49h-4.29v-10.4c0-2.34-1.48-3.13-2.84-3.13a2.78,2.78,0,0,0-2.87,3.13v10.4h-4.29v-17.2H159v1.59a6,6,0,0,1,4.29-1.78,5.32,5.32,0,0,1,4.56,2.18,6.55,6.55,0,0,1,5.15-2.18,6,6,0,0,1,4.22,1.52,6.45,6.45,0,0,1,1.88,4.88v11Z"/><path class="cls-13" d="M192.49,373.82v-1.48a5.23,5.23,0,0,1-4.22,1.65,5.94,5.94,0,0,1-4.39-1.52,5.5,5.5,0,0,1-1.42-3.86c0-2.74,1.88-5,5.94-5h4v-.86c0-1.88-.92-2.7-3.2-2.7a3.82,3.82,0,0,0-3.3,1.48l-2.7-2.67c1.68-1.85,3.3-2.44,6.17-2.44,4.85,0,7.32,2,7.32,6.07v11.32Zm-.1-7.26h-3.26c-1.72,0-2.55.69-2.55,2s.83,1.95,2.61,1.95a3.23,3.23,0,0,0,2.54-.83,2.65,2.65,0,0,0,.66-2.18Z"/><path class="cls-13" d="M206.68,373.82a4.66,4.66,0,0,1-5-4.92v-8.51h-1.82v-3.27h1.82V352H206v5.08h3v3.27h-3v8.25c0,1,.46,1.55,1.48,1.55H209v3.63Z"/><path class="cls-13" d="M212.85,353.69v-3.5h4.39v3.5Zm.07,20.13v-16.7h4.29v16.7Z"/><path class="cls-13" d="M233.87,371.91a7.79,7.79,0,0,1-10.66,0c-1.55-1.65-1.94-3.6-1.94-6.7s.39-5,1.94-6.67a7.13,7.13,0,0,1,5.32-2.11,7,7,0,0,1,5.34,2.11c1.56,1.65,1.95,3.56,1.95,6.67S235.46,370.29,233.87,371.91Zm-3.33-10.86a3,3,0,0,0-4,0c-.89.86-1,2.41-1,4.16s.1,3.33,1,4.19a3,3,0,0,0,4,0c.89-.86,1-2.41,1-4.19S231.43,361.91,230.54,361.05Z"/><path class="cls-13" d="M249.91,373.82v-10.4c0-2.34-1.48-3.13-2.84-3.13a2.78,2.78,0,0,0-2.87,3.13v10.4h-4.29v-17.2h4.19v1.59a5.88,5.88,0,0,1,4.29-1.78,5.56,5.56,0,0,1,4.06,1.52,6.34,6.34,0,0,1,1.75,4.88v11Z"/><path class="cls-15" d="M267.74,135.63a5.8,5.8,0,0,1-4.18,1.56,5.06,5.06,0,0,1-4.17-1.73v7.86h-4.31V119.71h4.17v1.63a5.22,5.22,0,0,1,4.31-1.83,5.8,5.8,0,0,1,4.18,1.56c1.66,1.69,1.79,4.38,1.79,7.26S269.4,133.94,267.74,135.63Zm-5.44-12.24c-2.58,0-2.91,2.16-2.91,4.94s.33,5,2.91,5,2.92-2.19,2.92-5S264.89,123.39,262.3,123.39Z"/><path class="cls-15" d="M285.58,135.06a7.2,7.2,0,0,1-5.37,2.13,7.13,7.13,0,0,1-5.34-2.13c-1.56-1.65-2-3.61-2-6.73s.4-5,2-6.69a7.13,7.13,0,0,1,5.34-2.13,7.06,7.06,0,0,1,5.37,2.13c1.56,1.65,2,3.58,2,6.69S287.17,133.44,285.58,135.06Zm-3.35-10.9a3,3,0,0,0-4,0c-.9.86-1,2.42-1,4.17s.1,3.35,1,4.21a3,3,0,0,0,4,0c.9-.86,1-2.42,1-4.21S283.13,125,282.23,124.16Z"/><path class="cls-15" d="M296.52,137a4.69,4.69,0,0,1-5-4.94V113.38h4.31v18.4c0,1,.43,1.56,1.53,1.56H299V137Z"/><path class="cls-15" d="M307.86,139.77a6.08,6.08,0,0,1-1.29,2.22,5,5,0,0,1-3.71,1.33h-1.7v-3.88h1a1.86,1.86,0,0,0,2.15-1.56l.73-2.12-5.9-16h4.54l3.58,10.68,3.45-10.68h4.55Z"/><path class="cls-15" d="M327.85,137V126.54c0-2.35-1.49-3.15-2.85-3.15a2.8,2.8,0,0,0-2.88,3.15V137h-4.31V119.71H322v1.59a5.93,5.93,0,0,1,4.31-1.79,5.63,5.63,0,0,1,4.08,1.53,6.41,6.41,0,0,1,1.75,4.91v11Z"/><path class="cls-15" d="M348.74,135.06a7.8,7.8,0,0,1-10.71,0c-1.56-1.65-1.95-3.61-1.95-6.73s.39-5,1.95-6.69a7.15,7.15,0,0,1,5.34-2.13,7,7,0,0,1,5.37,2.13c1.56,1.65,2,3.58,2,6.69S350.33,133.44,348.74,135.06Zm-3.35-10.9a3,3,0,0,0-4,0c-.89.86-1,2.42-1,4.17s.1,3.35,1,4.21a3,3,0,0,0,4,0c.9-.86,1-2.42,1-4.21S346.29,125,345.39,124.16Z"/><path class="cls-15" d="M374.9,137V126.54c0-2.35-1.49-3.15-2.85-3.15a2.79,2.79,0,0,0-2.88,3V137h-4.31V126.54c0-2.35-1.49-3.15-2.85-3.15a2.81,2.81,0,0,0-2.89,3.15V137h-4.31V119.71H359v1.59a6.05,6.05,0,0,1,4.31-1.79,5.36,5.36,0,0,1,4.58,2.19,6.61,6.61,0,0,1,5.17-2.19,6,6,0,0,1,4.24,1.53,6.49,6.49,0,0,1,1.89,4.91v11Z"/><path class="cls-15" d="M383.79,116.76v-3.51h4.41v3.51Zm.07,20.23V120.21h4.31V137Z"/><path class="cls-15" d="M401.83,137V135.5a5.26,5.26,0,0,1-4.25,1.65,6,6,0,0,1-4.41-1.52,5.53,5.53,0,0,1-1.42-3.88c0-2.75,1.89-5,6-5h4v-.86c0-1.89-.93-2.72-3.22-2.72a3.83,3.83,0,0,0-3.32,1.49L392.47,122c1.7-1.86,3.32-2.46,6.21-2.46,4.87,0,7.36,2.06,7.36,6.11V137Zm-.1-7.3h-3.29c-1.72,0-2.55.7-2.55,2s.83,2,2.62,2a3.26,3.26,0,0,0,2.55-.83,2.67,2.67,0,0,0,.67-2.19Z"/><path class="cls-15" d="M415.55,137a4.7,4.7,0,0,1-5-4.94V113.38h4.31v18.4c0,1,.43,1.56,1.53,1.56H418V137Z"/><path class="cls-15" d="M427.12,137.19c-2.72,0-5.14-.3-7.36-2.49l2.82-2.82a6.21,6.21,0,0,0,4.61,1.63c1.49,0,3.05-.5,3.05-1.8,0-.86-.43-1.45-1.82-1.59l-2.79-.26c-3.05-.3-5-1.66-5-4.84,0-3.62,3.15-5.51,6.66-5.51,2.72,0,4.94.5,6.6,2l-2.65,2.68a6,6,0,0,0-4-1.16c-1.73,0-2.46.8-2.46,1.66s.5,1.36,1.79,1.49l2.72.27c3.42.33,5.14,2.12,5.14,5.07C434.45,135.36,431.2,137.19,427.12,137.19Z"/><path class="cls-15" d="M267,165.42a7.82,7.82,0,0,1-10.71,0c-1.56-1.65-2-3.61-2-6.73s.39-5,2-6.7a7.18,7.18,0,0,1,5.34-2.12A7.07,7.07,0,0,1,267,152c1.56,1.66,2,3.59,2,6.7S268.6,163.8,267,165.42Zm-3.35-10.91a3,3,0,0,0-4,0c-.89.87-1,2.43-1,4.18s.1,3.35,1,4.21a3,3,0,0,0,4,0c.9-.86,1-2.42,1-4.21S264.56,155.38,263.66,154.51Z"/><path class="cls-15" d="M283.13,167.35V156.9c0-2.35-1.5-3.15-2.85-3.15a2.81,2.81,0,0,0-2.89,3.15v10.45h-4.31V150.07h4.21v1.59a5.93,5.93,0,0,1,4.31-1.79,5.61,5.61,0,0,1,4.08,1.53,6.39,6.39,0,0,1,1.76,4.9v11Z"/><path class="cls-15" d="M305.74,173.88a8.07,8.07,0,0,1-6.27-2.26l2.69-2.72a4.39,4.39,0,0,0,3.38,1.33,3.26,3.26,0,0,0,3.48-3.58v-1.76a5.07,5.07,0,0,1-4.11,1.73,5.75,5.75,0,0,1-4.11-1.53c-1.63-1.62-1.76-3.84-1.76-6.86s.13-5.21,1.76-6.83a5.83,5.83,0,0,1,4.14-1.53,5,5,0,0,1,4.21,1.83v-1.63h4.18v16.65C313.33,170.86,310.38,173.88,305.74,173.88Zm.43-20.13c-2.55,0-2.82,2.19-2.82,4.48s.27,4.51,2.82,4.51,2.85-2.22,2.85-4.51S308.72,153.75,306.17,153.75Z"/><path class="cls-15" d="M327.56,154.78a2.89,2.89,0,0,0-5.08,2.16v10.41h-4.31V150.07h4.21v1.66a5.84,5.84,0,0,1,4.35-1.86,5.21,5.21,0,0,1,4.08,1.63Z"/><path class="cls-15" d="M341.78,167.35v-1.5a5.25,5.25,0,0,1-4.25,1.66,6,6,0,0,1-4.41-1.52,5.58,5.58,0,0,1-1.42-3.88c0-2.75,1.89-5,6-5h4v-.86c0-1.89-.93-2.72-3.22-2.72a3.82,3.82,0,0,0-3.31,1.49l-2.72-2.68c1.69-1.86,3.32-2.46,6.2-2.46,4.87,0,7.36,2.06,7.36,6.1v11.38Zm-.1-7.3H338.4c-1.73,0-2.56.7-2.56,2s.83,2,2.62,2a3.27,3.27,0,0,0,2.56-.83,2.71,2.71,0,0,0,.66-2.19Z"/><path class="cls-15" d="M363.3,166a5.81,5.81,0,0,1-4.18,1.55,5.07,5.07,0,0,1-4.18-1.72v7.86h-4.31V150.07h4.18v1.63a5.2,5.2,0,0,1,4.31-1.83,5.82,5.82,0,0,1,4.18,1.56c1.65,1.69,1.79,4.38,1.79,7.26S365,164.29,363.3,166Zm-5.44-12.24c-2.59,0-2.92,2.16-2.92,4.94s.33,5,2.92,5,2.92-2.19,2.92-5S360.45,153.75,357.86,153.75Z"/><path class="cls-15" d="M379.25,167.35V156.9c0-2.35-1.5-3.15-2.86-3.15a2.8,2.8,0,0,0-2.88,3.15v10.45H369.2V143.74h4.31v7.92a5.55,5.55,0,0,1,4.21-1.79,5.61,5.61,0,0,1,4.08,1.53,6.39,6.39,0,0,1,1.76,4.9v11Z"/><path class="cls-15" d="M393.87,167.54c-2.72,0-5.14-.29-7.36-2.48l2.82-2.82a6.2,6.2,0,0,0,4.6,1.63c1.5,0,3.05-.5,3.05-1.8,0-.86-.43-1.45-1.82-1.59l-2.78-.26c-3.05-.3-5-1.66-5-4.84,0-3.62,3.15-5.51,6.67-5.51,2.71,0,4.94.5,6.6,2L398,154.58a6,6,0,0,0-4-1.16c-1.72,0-2.45.8-2.45,1.66s.49,1.36,1.79,1.49l2.72.27c3.41.33,5.14,2.12,5.14,5.07C401.2,165.72,398,167.54,393.87,167.54Z"/><path class="cls-14" d="M771.43,338.28h-9.88v-23.6H771c4.61,0,7.29,2.58,7.29,6.63a5.45,5.45,0,0,1-2.91,4.87,5.51,5.51,0,0,1,3.25,5.31C778.66,335.9,775.64,338.28,771.43,338.28Zm-.77-19.49h-4.5v5.44h4.5c2,0,3.05-1.1,3.05-2.72S772.62,318.79,770.66,318.79Zm.3,9.58h-4.8v5.8H771a2.91,2.91,0,1,0,0-5.8Z"/><path class="cls-14" d="M791.88,338.28v-1.49a5.24,5.24,0,0,1-4.24,1.66,6,6,0,0,1-4.41-1.52A5.56,5.56,0,0,1,781.8,333c0-2.75,1.9-5,6-5h4v-.86c0-1.89-.92-2.72-3.21-2.72a3.83,3.83,0,0,0-3.32,1.49l-2.72-2.69c1.69-1.85,3.32-2.45,6.2-2.45,4.88,0,7.37,2.06,7.37,6.1v11.37Zm-.1-7.29H788.5c-1.72,0-2.55.7-2.55,2s.83,2,2.62,2a3.3,3.3,0,0,0,2.55-.83,2.67,2.67,0,0,0,.66-2.19Z"/><path class="cls-14" d="M807,341.07a6.08,6.08,0,0,1-1.29,2.22,5,5,0,0,1-3.71,1.33h-1.69v-3.88h1a1.87,1.87,0,0,0,2.16-1.56l.73-2.12L798.28,321h4.55l3.58,10.68L809.86,321h4.54Z"/><path class="cls-14" d="M820,331a3.54,3.54,0,0,0,3.78,3.85,4.88,4.88,0,0,0,3.91-1.63l2.62,2.56a8.12,8.12,0,0,1-6.56,2.71c-4.08,0-8-1.85-8-8.85,0-5.64,3-8.82,7.52-8.82,4.81,0,7.53,3.45,7.53,8.36V331Zm6.17-4.81a3.22,3.22,0,0,0-5.77,0A4.19,4.19,0,0,0,820,328h6.57A4.34,4.34,0,0,0,826.17,326.18Z"/><path class="cls-14" d="M840.46,338.48c-2.72,0-5.14-.29-7.36-2.48l2.82-2.82a6.23,6.23,0,0,0,4.6,1.62c1.5,0,3.05-.49,3.05-1.79,0-.86-.43-1.46-1.82-1.59l-2.78-.26c-3.05-.3-5-1.66-5-4.85,0-3.61,3.15-5.5,6.67-5.5,2.71,0,4.94.5,6.6,2l-2.66,2.69a5.9,5.9,0,0,0-4-1.16c-1.72,0-2.45.79-2.45,1.66s.49,1.35,1.79,1.49l2.72.26c3.41.34,5.13,2.13,5.13,5.08C847.78,336.66,844.54,338.48,840.46,338.48Z"/><path class="cls-14" d="M851.33,318.06v-3.52h4.41v3.52Zm.07,20.22V321.51h4.31v16.77Z"/><path class="cls-14" d="M869.37,338.28v-1.49a5.24,5.24,0,0,1-4.24,1.66,6,6,0,0,1-4.41-1.52,5.56,5.56,0,0,1-1.43-3.89c0-2.75,1.89-5,6-5h4v-.86c0-1.89-.93-2.72-3.22-2.72a3.82,3.82,0,0,0-3.31,1.49L860,323.26c1.69-1.85,3.32-2.45,6.2-2.45,4.88,0,7.36,2.06,7.36,6.1v11.37Zm-.1-7.29H866c-1.73,0-2.55.7-2.55,2s.82,2,2.61,2a3.31,3.31,0,0,0,2.56-.83,2.67,2.67,0,0,0,.66-2.19Z"/><path class="cls-14" d="M888.27,338.28V327.84c0-2.35-1.49-3.15-2.85-3.15a2.81,2.81,0,0,0-2.89,3.15v10.44h-4.31V321h4.21v1.59a5.93,5.93,0,0,1,4.31-1.79,5.57,5.57,0,0,1,4.08,1.53,6.39,6.39,0,0,1,1.76,4.9v11Z"/><path class="cls-14" d="M773.88,367.28a5.77,5.77,0,0,1-4.18,1.56,5.05,5.05,0,0,1-4.17-1.72V375h-4.32V351.37h4.18V353a5.24,5.24,0,0,1,4.31-1.82,5.77,5.77,0,0,1,4.18,1.56c1.66,1.69,1.79,4.37,1.79,7.26S775.54,365.59,773.88,367.28Zm-5.44-12.23c-2.58,0-2.91,2.15-2.91,4.94s.33,5,2.91,5,2.92-2.19,2.92-5S771,355.05,768.44,355.05Z"/><path class="cls-14" d="M791.72,366.72a7.22,7.22,0,0,1-5.37,2.12,7.11,7.11,0,0,1-5.34-2.12c-1.56-1.66-2-3.61-2-6.73s.4-5,2-6.7a7.82,7.82,0,0,1,10.71,0c1.56,1.66,2,3.58,2,6.7S793.31,365.1,791.72,366.72Zm-3.35-10.91a3,3,0,0,0-4,0c-.9.86-1,2.42-1,4.18s.1,3.35,1,4.21a3,3,0,0,0,4,0c.9-.86,1-2.42,1-4.21S789.27,356.67,788.37,355.81Z"/><path class="cls-14" d="M802.66,368.64a4.69,4.69,0,0,1-5-4.94V345h4.31v18.41c0,1,.43,1.56,1.53,1.56h1.65v3.64Z"/><path class="cls-14" d="M814,371.43a6.22,6.22,0,0,1-1.29,2.22A5,5,0,0,1,809,375H807.3V371.1h1a1.86,1.86,0,0,0,2.15-1.56l.73-2.12-5.9-16.05h4.54L813.4,362l3.45-10.67h4.54Z"/><path class="cls-14" d="M834,368.64V358.2c0-2.36-1.49-3.15-2.85-3.15s-2.88.79-2.88,3.15v10.44H824V351.37h4.21V353a5.92,5.92,0,0,1,4.31-1.79,5.6,5.6,0,0,1,4.08,1.53,6.39,6.39,0,0,1,1.75,4.9v11Z"/><path class="cls-14" d="M854.88,366.72a7.82,7.82,0,0,1-10.71,0c-1.56-1.66-1.95-3.61-1.95-6.73s.39-5,1.95-6.7a7.82,7.82,0,0,1,10.71,0c1.56,1.66,2,3.58,2,6.7S856.47,365.1,854.88,366.72Zm-3.35-10.91a3,3,0,0,0-4,0c-.9.86-1,2.42-1,4.18s.09,3.35,1,4.21a3,3,0,0,0,4,0c.9-.86,1-2.42,1-4.21S852.43,356.67,851.53,355.81Z"/><path class="cls-14" d="M881,368.64V358.2c0-2.36-1.49-3.15-2.85-3.15a2.78,2.78,0,0,0-2.88,3.05v10.54H871V358.2c0-2.36-1.5-3.15-2.86-3.15s-2.88.79-2.88,3.15v10.44H861V351.37h4.21V353a6.05,6.05,0,0,1,4.31-1.79,5.38,5.38,0,0,1,4.58,2.19,6.56,6.56,0,0,1,5.17-2.19,6,6,0,0,1,4.24,1.53,6.47,6.47,0,0,1,1.89,4.9v11Z"/><path class="cls-14" d="M889.93,348.42V344.9h4.41v3.52Zm.06,20.22V351.87h4.31v16.77Z"/><path class="cls-14" d="M908,368.64v-1.49a5.24,5.24,0,0,1-4.24,1.66,5.94,5.94,0,0,1-4.41-1.53,5.52,5.52,0,0,1-1.43-3.88c0-2.75,1.9-5,6-5h4v-.87c0-1.89-.93-2.71-3.22-2.71a3.83,3.83,0,0,0-3.32,1.49l-2.72-2.69c1.69-1.85,3.32-2.45,6.2-2.45,4.88,0,7.37,2.05,7.37,6.1v11.37Zm-.09-7.29h-3.29c-1.72,0-2.55.69-2.55,2s.83,2,2.62,2a3.26,3.26,0,0,0,2.55-.83,2.65,2.65,0,0,0,.67-2.18Z"/><path class="cls-14" d="M921.69,368.64a4.69,4.69,0,0,1-5-4.94V345H921v18.41c0,1,.43,1.56,1.53,1.56h1.65v3.64Z"/><path class="cls-14" d="M770.6,386.44a2.88,2.88,0,0,0-5.07,2.15V399h-4.32V381.73h4.22v1.65a5.83,5.83,0,0,1,4.34-1.85,5.23,5.23,0,0,1,4.08,1.62Z"/><path class="cls-14" d="M778.69,391.71a3.53,3.53,0,0,0,3.78,3.84,4.89,4.89,0,0,0,3.91-1.62l2.62,2.55a8.13,8.13,0,0,1-6.56,2.72c-4.08,0-8-1.86-8-8.85,0-5.64,3-8.82,7.53-8.82,4.81,0,7.53,3.45,7.53,8.35v1.83Zm6.17-4.81a3.22,3.22,0,0,0-5.77,0,4.16,4.16,0,0,0-.4,1.86h6.56A4.3,4.3,0,0,0,784.86,386.9Z"/><path class="cls-14" d="M799.44,405.53a8.08,8.08,0,0,1-6.26-2.25l2.68-2.72a4.39,4.39,0,0,0,3.38,1.33,3.28,3.28,0,0,0,3.49-3.59v-1.75a5.06,5.06,0,0,1-4.11,1.72,5.75,5.75,0,0,1-4.12-1.52c-1.62-1.63-1.75-3.85-1.75-6.87s.13-5.2,1.75-6.83a5.85,5.85,0,0,1,4.15-1.52,5.07,5.07,0,0,1,4.21,1.82v-1.62H807v16.64C807,402.52,804.09,405.53,799.44,405.53Zm.43-20.12c-2.55,0-2.81,2.19-2.81,4.47s.26,4.51,2.81,4.51,2.86-2.22,2.86-4.51S802.43,385.41,799.87,385.41Z"/><path class="cls-14" d="M821.26,386.44a2.88,2.88,0,0,0-5.07,2.15V399h-4.31V381.73h4.21v1.65a5.85,5.85,0,0,1,4.34-1.85,5.22,5.22,0,0,1,4.08,1.62Z"/><path class="cls-14" d="M829.35,391.71a3.53,3.53,0,0,0,3.78,3.84,4.87,4.87,0,0,0,3.91-1.62l2.62,2.55a8.13,8.13,0,0,1-6.56,2.72c-4.08,0-8-1.86-8-8.85,0-5.64,3-8.82,7.52-8.82,4.81,0,7.53,3.45,7.53,8.35v1.83Zm6.17-4.81a3.22,3.22,0,0,0-5.77,0,4.16,4.16,0,0,0-.4,1.86h6.57A4.3,4.3,0,0,0,835.52,386.9Z"/><path class="cls-14" d="M849.81,399.2c-2.72,0-5.14-.3-7.36-2.49l2.82-2.82a6.2,6.2,0,0,0,4.6,1.63c1.5,0,3-.5,3-1.79,0-.86-.43-1.46-1.82-1.59l-2.78-.27c-3.05-.3-5-1.66-5-4.84,0-3.61,3.15-5.5,6.67-5.5,2.71,0,4.94.5,6.6,2L854,386.24a5.92,5.92,0,0,0-4-1.16c-1.72,0-2.45.79-2.45,1.65s.49,1.36,1.79,1.49l2.72.27c3.41.33,5.13,2.12,5.13,5.07C857.13,397.38,853.89,399.2,849.81,399.2Z"/><path class="cls-14" d="M866.25,399.2c-2.72,0-5.14-.3-7.36-2.49l2.82-2.82a6.21,6.21,0,0,0,4.61,1.63c1.49,0,3-.5,3-1.79,0-.86-.43-1.46-1.82-1.59l-2.79-.27c-3-.3-5-1.66-5-4.84,0-3.61,3.15-5.5,6.66-5.5,2.72,0,4.94.5,6.6,2l-2.65,2.69a6,6,0,0,0-4-1.16c-1.72,0-2.45.79-2.45,1.65s.5,1.36,1.79,1.49l2.72.27c3.42.33,5.14,2.12,5.14,5.07C873.58,397.38,870.33,399.2,866.25,399.2Z"/><path class="cls-14" d="M877.13,378.78v-3.52h4.41v3.52ZM877.2,399V382.22h4.3V399Z"/><path class="cls-14" d="M898.25,397.08a7.26,7.26,0,0,1-5.37,2.12,7.15,7.15,0,0,1-5.34-2.12c-1.56-1.66-2-3.62-2-6.73s.4-5,2-6.7a7.82,7.82,0,0,1,10.71,0c1.56,1.66,2,3.58,2,6.7S899.84,395.45,898.25,397.08Zm-3.35-10.91a2.71,2.71,0,0,0-2-.76,2.68,2.68,0,0,0-2,.76c-.9.86-1,2.42-1,4.18s.1,3.35,1,4.21a2.68,2.68,0,0,0,2,.76,2.71,2.71,0,0,0,2-.76c.89-.86,1-2.42,1-4.21S895.79,387,894.9,386.17Z"/><path class="cls-14" d="M914.36,399V388.56c0-2.36-1.49-3.15-2.85-3.15s-2.88.79-2.88,3.15V399h-4.31V381.73h4.21v1.59a5.88,5.88,0,0,1,4.31-1.79,5.64,5.64,0,0,1,4.08,1.52,6.42,6.42,0,0,1,1.75,4.91v11Z"/><path class="cls-13" d="M547.84,137a4.69,4.69,0,0,1-5-4.94v-8.56H541v-3.28h1.82V115.1h4.31v5.11h3.05v3.28h-3.05v8.29c0,1,.46,1.56,1.49,1.56h1.56V137Z"/><path class="cls-13" d="M563.49,124.42a2.89,2.89,0,0,0-5.08,2.16V137H554.1V119.71h4.21v1.66a5.84,5.84,0,0,1,4.35-1.86,5.24,5.24,0,0,1,4.08,1.63Z"/><path class="cls-13" d="M579.14,137V135.4a5.93,5.93,0,0,1-4.31,1.79,5.61,5.61,0,0,1-4.08-1.53,6.38,6.38,0,0,1-1.76-4.91v-11h4.31v10.45c0,2.35,1.49,3.15,2.85,3.15a2.81,2.81,0,0,0,2.89-3.15V119.71h4.31V137Z"/><path class="cls-13" d="M593.86,137.19c-2.72,0-5.14-.3-7.36-2.49l2.81-2.82a6.24,6.24,0,0,0,4.61,1.63c1.49,0,3.05-.5,3.05-1.8,0-.86-.43-1.45-1.82-1.59l-2.78-.26c-3.06-.3-5-1.66-5-4.84,0-3.62,3.15-5.51,6.66-5.51,2.72,0,5,.5,6.6,2L598,124.22a6,6,0,0,0-4-1.16c-1.72,0-2.46.8-2.46,1.66s.5,1.36,1.8,1.49l2.71.27c3.42.33,5.14,2.12,5.14,5.07C601.18,135.36,597.94,137.19,593.86,137.19Z"/><path class="cls-13" d="M609.87,137a4.68,4.68,0,0,1-5-4.94v-8.56H603v-3.28h1.83V115.1h4.31v5.11h3.05v3.28h-3.05v8.29c0,1,.46,1.56,1.49,1.56h1.56V137Z"/><path class="cls-13" d="M615.67,129.53v-4h10.22v4Z"/><path class="cls-13" d="M639.64,124.42a2.88,2.88,0,0,0-5.07,2.16V137h-4.31V119.71h4.21v1.66a5.84,5.84,0,0,1,4.35-1.86,5.21,5.21,0,0,1,4.07,1.63Z"/><path class="cls-13" d="M647.73,129.69a3.54,3.54,0,0,0,3.78,3.85,4.88,4.88,0,0,0,3.92-1.63l2.62,2.56a8.13,8.13,0,0,1-6.57,2.72c-4.08,0-8-1.86-8-8.86,0-5.63,3-8.82,7.53-8.82,4.8,0,7.52,3.45,7.52,8.36v1.82Zm6.17-4.81a3.23,3.23,0,0,0-5.77,0,4.37,4.37,0,0,0-.4,1.86h6.57A4.22,4.22,0,0,0,653.9,124.88Z"/><path class="cls-13" d="M668.49,143.52a8.1,8.1,0,0,1-6.27-2.25l2.69-2.72a4.42,4.42,0,0,0,3.38,1.32,3.26,3.26,0,0,0,3.48-3.58v-1.76a5.05,5.05,0,0,1-4.11,1.73,5.71,5.71,0,0,1-4.11-1.53c-1.62-1.62-1.76-3.84-1.76-6.86s.14-5.21,1.76-6.83a5.83,5.83,0,0,1,4.15-1.53,5.06,5.06,0,0,1,4.21,1.83v-1.63h4.17v16.65C676.08,140.5,673.13,143.52,668.49,143.52Zm.43-20.13c-2.55,0-2.82,2.19-2.82,4.48s.27,4.51,2.82,4.51,2.85-2.22,2.85-4.51S671.47,123.39,668.92,123.39Z"/><path class="cls-13" d="M680.86,116.76v-3.51h4.41v3.51Zm.06,20.23V120.21h4.31V137Z"/><path class="cls-13" d="M702,135.06a7.22,7.22,0,0,1-5.37,2.13,7.11,7.11,0,0,1-5.34-2.13c-1.56-1.65-2-3.61-2-6.73s.4-5,2-6.69a7.8,7.8,0,0,1,10.71,0c1.56,1.65,2,3.58,2,6.69S703.57,133.44,702,135.06Zm-3.35-10.9a3,3,0,0,0-4,0c-.9.86-1,2.42-1,4.17s.1,3.35,1,4.21a3,3,0,0,0,4,0c.9-.86,1-2.42,1-4.21S699.53,125,698.63,124.16Z"/><path class="cls-13" d="M718.09,137V126.54c0-2.35-1.49-3.15-2.85-3.15a2.8,2.8,0,0,0-2.88,3.15V137h-4.31V119.71h4.21v1.59a5.92,5.92,0,0,1,4.31-1.79,5.64,5.64,0,0,1,4.08,1.53A6.41,6.41,0,0,1,722.4,126v11Z"/><path class="cls-13" d="M554.37,165.42a7.22,7.22,0,0,1-5.37,2.12,7.11,7.11,0,0,1-5.34-2.12c-1.56-1.65-2-3.61-2-6.73s.4-5,2-6.7a7.82,7.82,0,0,1,10.71,0c1.56,1.66,2,3.59,2,6.7S556,163.8,554.37,165.42ZM551,154.51a2.75,2.75,0,0,0-2-.76,2.71,2.71,0,0,0-2,.76c-.9.87-1,2.43-1,4.18s.1,3.35,1,4.21a2.68,2.68,0,0,0,2,.77,2.72,2.72,0,0,0,2-.77c.89-.86,1-2.42,1-4.21S551.91,155.38,551,154.51Z"/><path class="cls-13" d="M573.1,166a5.79,5.79,0,0,1-4.18,1.55,5.05,5.05,0,0,1-4.17-1.72v7.86h-4.31V150.07h4.17v1.63a5.22,5.22,0,0,1,4.31-1.83,5.8,5.8,0,0,1,4.18,1.56c1.66,1.69,1.79,4.38,1.79,7.26S574.76,164.29,573.1,166Zm-5.44-12.24c-2.58,0-2.91,2.16-2.91,4.94s.33,5,2.91,5,2.92-2.19,2.92-5S570.25,153.75,567.66,153.75Z"/><path class="cls-13" d="M584.41,167.35a4.69,4.69,0,0,1-5-4.94v-8.56h-1.82v-3.28h1.82v-5.11h4.31v5.11h3v3.28h-3v8.29a1.36,1.36,0,0,0,1.49,1.56h1.56v3.65Z"/><path class="cls-13" d="M590.61,147.12v-3.51H595v3.51Zm.06,20.23V150.57H595v16.78Z"/><path class="cls-13" d="M619.88,167.35V156.9c0-2.35-1.49-3.15-2.85-3.15a2.79,2.79,0,0,0-2.88,3.05v10.55h-4.31V156.9c0-2.35-1.49-3.15-2.85-3.15a2.81,2.81,0,0,0-2.89,3.15v10.45h-4.31V150.07H604v1.59a6.05,6.05,0,0,1,4.31-1.79,5.36,5.36,0,0,1,4.58,2.19,6.58,6.58,0,0,1,5.17-2.19,6.07,6.07,0,0,1,4.25,1.53,6.5,6.5,0,0,1,1.89,4.9v11Z"/><path class="cls-13" d="M628.77,147.12v-3.51h4.41v3.51Zm.07,20.23V150.57h4.31v16.78Z"/><path class="cls-13" d="M643.62,167.54c-2.72,0-5.14-.29-7.36-2.48l2.82-2.82a6.21,6.21,0,0,0,4.61,1.63c1.49,0,3-.5,3-1.8,0-.86-.43-1.45-1.82-1.59l-2.79-.26c-3-.3-5-1.66-5-4.84,0-3.62,3.15-5.51,6.66-5.51,2.72,0,4.94.5,6.6,2l-2.65,2.69a6,6,0,0,0-4-1.16c-1.73,0-2.46.8-2.46,1.66s.5,1.36,1.79,1.49l2.72.27c3.42.33,5.14,2.12,5.14,5.07C651,165.72,647.7,167.54,643.62,167.54Z"/><path class="cls-13" d="M663.42,167.35v-1.5a5.26,5.26,0,0,1-4.25,1.66,6,6,0,0,1-4.41-1.52,5.58,5.58,0,0,1-1.42-3.88c0-2.75,1.89-5,6-5h4v-.86c0-1.89-.93-2.72-3.22-2.72a3.8,3.8,0,0,0-3.31,1.49l-2.72-2.68c1.69-1.86,3.31-2.46,6.2-2.46,4.87,0,7.36,2.06,7.36,6.1v11.38Zm-.1-7.3H660c-1.73,0-2.56.7-2.56,2s.83,2,2.62,2a3.29,3.29,0,0,0,2.56-.83,2.71,2.71,0,0,0,.66-2.19Z"/><path class="cls-13" d="M677.68,167.35a4.69,4.69,0,0,1-5-4.94v-8.56h-1.82v-3.28h1.82v-5.11H677v5.11h3v3.28h-3v8.29c0,1,.46,1.56,1.49,1.56H680v3.65Z"/><path class="cls-13" d="M683.87,147.12v-3.51h4.41v3.51Zm.07,20.23V150.57h4.31v16.78Z"/><path class="cls-13" d="M705,165.42a7.23,7.23,0,0,1-5.38,2.12,7.1,7.1,0,0,1-5.33-2.12c-1.56-1.65-2-3.61-2-6.73s.4-5,2-6.7A7.82,7.82,0,0,1,705,152c1.55,1.66,2,3.59,2,6.7S706.59,163.8,705,165.42Zm-3.35-10.91a2.76,2.76,0,0,0-2-.76,2.73,2.73,0,0,0-2,.76c-.89.87-1,2.43-1,4.18s.1,3.35,1,4.21a2.7,2.7,0,0,0,2,.77,2.73,2.73,0,0,0,2-.77c.89-.86,1-2.42,1-4.21S702.54,155.38,701.65,154.51Z"/><path class="cls-13" d="M721.11,167.35V156.9c0-2.35-1.49-3.15-2.85-3.15a2.81,2.81,0,0,0-2.89,3.15v10.45h-4.31V150.07h4.22v1.59a5.9,5.9,0,0,1,4.31-1.79,5.6,5.6,0,0,1,4.07,1.53,6.36,6.36,0,0,1,1.76,4.9v11Z"/></g></g></g></svg>